<svg id="download-icons" viewBox="0 0 20 20">
<path id="download-soda-casino" d="M5,1.1c0,0,0-0.1,0-0.2C4.9,0.8,4.9,0.8,4.8,0.8c0,0,0,0.1,0,0.2C4.9,1.1,4.9,1.1,5,1.1z
	 M2.5,4.3C2.6,4.2,2.6,4,2.4,3.8C2.2,3.7,2,3.6,1.9,3.7C1.8,3.8,1.8,4,2,4.2C2.1,4.3,2.4,4.4,2.5,4.3z M14.6,18
	c0,0.1,0.2,0.1,0.2,0.1c0,0,0-0.1,0-0.2c0-0.1-0.2-0.1-0.2-0.1l0,0C14.5,17.9,14.5,17.9,14.6,18z M15.2,6.3C15,5.2,10.1,1.6,1.4,8.1
	C1.1,9.5,1.2,11,1.8,12.4C2.6,9.9,4,7.7,6,5.9l3.1-1c-2.5,2.4-4.3,5.4-5.1,8.6C11,14.7,16.3,9.2,15.2,6.3z M13.3,17
	c-0.1-0.3-0.1-0.6,0.2-0.8c0.1,0,0.2-0.1,0.3-0.1c0.1,0,0.1,0,0.2,0c0-0.3,0.1-0.5,0.3-0.7c0.2-0.1,0.4-0.2,0.7-0.2
	c0.1,0,0.2,0,0.3,0.1c0,0,0,0,0.1-0.1c0.2-0.2,0.7,0,0.8-0.1v-1.4c0-0.5,0.5-0.9,1-0.9c0,0,0,0,0.1,0c1.1-2,1.1-4.3,0-6.3
	c1,4.7-5.4,9.4-12.7,9C6,16.5,7.8,17,9.6,17c0.3,0,0.6,0,0.8,0c0.5,0.2,1,0.5,1.3,1c0.2,0.3,0.4,0.6,0.7,0.8c0.1,0,0.2,0.1,0.3,0
	c0.2-0.3-0.4-0.5-0.9-0.9c-0.5-0.3-0.5-0.8-0.2-1.1c0.2,0,0.3-0.1,0.5-0.1c0.4,0,0.7,0.1,1,0.4c0.2,0.2,0.2,0.5,0.4,0.7
	c0.1,0.1,0.2,0,0.2-0.1C13.7,17.3,13.5,17.3,13.3,17z M0,4.4L0,4.4C0,4.5,0,4.6,0.1,4.7c0.1,0.1,0.2,0.1,0.3,0.1s0-0.2-0.1-0.2
	C0.2,4.4,0.1,4.4,0,4.4z M1.9,5.2L1.9,5.2c0.2,0.2,0.3,0.6,0.3,0.9C2,6.5,1.8,6.9,1.6,7.3c4-3.6,8.8-4.9,12-4.1
	c-1.2-0.6-2.5-0.9-3.9-0.9C9.1,2.1,8.5,1.7,8.1,1.1C8,0.7,7.7,0.3,7.4,0.1C7.3,0,7.1-0.1,7.1,0.1c-0.2,0.3,0.5,0.6,1,1
	c0.5,0.4,0.5,0.9,0.2,1.2c-0.3,0-0.5,0.1-0.7,0.1c-0.4,0-0.7-0.2-1-0.5C6.3,1.7,6.4,1.4,6.1,1.2c-0.1-0.1-0.3,0-0.2,0.1
	C5.9,1.7,6.2,1.7,6.4,2c0.1,0.3,0.1,0.6-0.1,0.8C6.1,2.9,5.9,3,5.7,3C5,3,4.4,2.7,4.1,2.1c-0.3-0.5-0.7-1-1-1.5
	c-0.2-0.1-0.4-0.1-0.5,0C2.4,0.8,2.4,0.9,2.5,1C2.7,1.4,3.4,1.8,4,2.3c0.5,0.3,0.7,0.9,0.6,1.5C4.4,3.9,4.2,4,4,4.1
	C3.7,4.2,3.2,3.9,3.2,4.3c0,0.2,0,0.4,0,0.6C3.1,5,3,5.2,2.9,5.3c-0.3,0.1-0.6,0-0.8-0.1C1.9,4.9,1.6,4.5,1.5,4.5
	c-0.2-0.1-0.3,0-0.2,0.2C1.3,4.8,1.7,5,1.9,5.2z M19.8,20h-5.4v-1.2c0-0.1,0.1-0.3,0.3-0.3c0.2,0,0.3,0.1,0.3,0.2v0v0.7h4.3v-0.7
	c0-0.1,0.1-0.3,0.3-0.3s0.3,0.1,0.3,0.2v0V20z M19.9,15.7c-0.2-0.2-0.5-0.2-0.8,0l-1.2,1.1v-3.1c0-0.3-0.3-0.6-0.7-0.6
	c-0.3,0-0.7,0.3-0.7,0.6v3.1l-1.2-1.1c-0.2-0.2-0.5-0.2-0.8-0.1s-0.3,0.5-0.1,0.7c0,0,0,0,0.1,0.1l2.6,2.3l2.6-2.3
	C20,16.2,20,15.9,19.9,15.7z"/>
<path id="download-casino-gold" d="M16.5,17.3l2.6-2.7c0.1-0.1,0.1-0.2,0-0.3c0,0-0.1-0.1-0.1-0.1h-1.2c-0.1,0-0.2-0.1-0.2-0.2l0,0
	v-3.4c0-0.1-0.1-0.2-0.2-0.2h-2c-0.1,0-0.2,0.1-0.2,0.2l0,0l0,3.4c0,0.1-0.1,0.2-0.2,0.2h-1.2c-0.1,0-0.2,0.1-0.2,0.2
	c0,0.1,0,0.1,0.1,0.1l2.6,2.7C16.3,17.4,16.4,17.4,16.5,17.3L16.5,17.3z M19.8,17.5H19c-0.1,0-0.2,0.1-0.2,0.2v0.9
	c0,0.1-0.1,0.2-0.2,0.2l0,0h-4.5c-0.1,0-0.2-0.1-0.2-0.2l0,0v-0.9c0-0.1-0.1-0.2-0.2-0.2h-0.8c-0.1,0-0.2,0.1-0.2,0.2l0,0v2.1
	c0,0.1,0.1,0.2,0.2,0.2l0,0h6.9c0.1,0,0.2-0.1,0.2-0.2l0,0v-2.1C20,17.5,19.9,17.5,19.8,17.5z M16.6,3.8c-0.8,0.5-1.4,1.3-1.6,2.3
	c-0.2,0.5,0,1,0.3,1.5c0,0-1.1,1.2-2.1,1c-1.6-0.3-1.6,1.2-3,0.2c0,0-0.3,0.5-1.3,0.5S7.4,8.8,7.4,8.8c-1.3,0.8-1.3-0.7-3-0.3
	c-1,0.2-2.1-0.8-2.1-0.8c0.3-0.5,0.5-1,0.3-1.5C2.4,5.2,1.8,4.3,1,3.8c-0.8,0.8-1.1,2-1,3C0.4,9,1.6,7.7,1.6,7.7s-1,1.3-0.5,2.7
	s1,1.2,0.8,1.8c-0.3,0.8,0.2,1.7,0.2,1.7c0-0.5,0.5-0.7,1-0.7c0.8,0,1.4-1.2,1.4-1.2c0,1-0.8,1-0.8,2c0,0.8,0.5,1.5,1.3,1.7
	c0.2,0.7,1.1,1.2,1.1,1.2L6.3,16c0.6,0.2,2.1,0.3,2.6,0.3s2.1-0.2,2.6-0.3l0.2,0.8c0,0,0.8-0.5,1.1-1.2c0.2,0,0.4-0.1,0.5-0.2
	L13,15.2c-0.3-0.3-0.4-0.8-0.2-1.2c0.2-0.4,0.5-0.7,1-0.7h0.1c-0.2-0.4-0.7-0.6-0.7-1.4c0,0,0.5,0.9,1.1,1.1v-2.5
	c0-0.3,0.1-0.6,0.3-0.8c0.2-0.2,0.5-0.3,0.7-0.3h1.3c-0.1-0.9-0.7-1.7-0.7-1.7s1.3,1.3,1.6-0.8C17.7,5.8,17.4,4.7,16.6,3.8z M1.6,7
	L1.6,7L1.2,6.3c0.2,1-0.5,2.3-0.8,0.7S1,4.5,1,4.5C2.3,5.7,1.6,7,1.6,7z M7.6,9.8L7.6,9.8c0.3-0.2,0.6,0.3,0.6,0.3s0.2-0.3,0.5-0.3
	s0.5,0.3,0.5,0.3s0.3-0.5,0.6-0.3c0.3,0.2,0,1-1.1,1C7.6,10.8,7.3,10,7.6,9.8z M7.7,11.5c0.3-0.3,0.8-0.5,1-0.5c0.3,0,0.8,0.2,1,0.3
	c0.3,0.3-0.3,0-1,0l0,0C8.1,11.3,7.6,11.8,7.7,11.5z M4.4,11.2L4.4,11.2c-0.5-0.3-0.8-0.8-0.8-1.5c0,0-1,0.2-0.8-1.2
	c0,0,0.3,1,1,0.7s2.9-0.8,3.4,1.7C7.1,11,5.6,12,4.4,11.2z M11.3,15.3L11.3,15.3c-0.5,0-0.8-0.2-1.1-0.5c-0.3,0.5-0.8,0.7-1.3,0.7
	c-0.5,0-1.1-0.2-1.4-0.7c-0.3,0.3-0.7,0.5-1.1,0.5c-1.1-0.2-2.2-2.5,1.1-2.7c0,0,0.2-1,1.4-1c1.3,0,1.4,1,1.4,1
	C13.5,12.8,12.2,15.1,11.3,15.3z M13.8,9.7c0,0.7-0.3,1.2-0.8,1.5C11.8,12,10.5,11,10.5,11c0.5-2.5,2.7-2,3.4-1.7s1-0.7,1-0.7
	C14.8,9.8,13.8,9.7,13.8,9.7z M17.2,7L17.2,7c-0.3,1.8-1,0.3-0.8-0.7L15.9,7c0,0-0.5-1.3,0.6-2.7C16.6,4.5,17.5,5.2,17.2,7z
	 M3.1,4.3c0.5-0.3,0.5-1,0.2-1.2c-0.2,0-0.5,0-0.6,0.2c0,0-0.2,0.2,0,0.2h0.5C3.2,3.7,3.2,4,2.9,4C2.6,4.3,2.1,4.2,2.1,3.5
	s1-1,1.6-0.3c0.3,0.3,0.3,1,0,1.3c-1.1,0.8-1,1.3-0.8,1.7c0,0.2,0.2,0.2,0.3,0.2c-0.2,0-0.2,0.2-0.2,0.3C2.8,7.3,3.2,8.1,4,8
	c0.3,0,0.5-0.3,0.5-0.5s0-0.5-0.2-0.7c-0.2-0.3-0.5-0.3-0.6,0C3.7,6.9,3.7,7,3.6,7l0,0v0.3C3.6,7.1,3.7,7,3.9,7
	c0.5-0.2,0.5,0.7,0,0.7c-0.5,0.2-0.8-0.5-0.6-1c0.2-0.2,0.3-0.3,0.6-0.3c0.2,0,0.5,0,0.6,0.2S4.8,7,4.8,7.1C5,7.6,5.2,8,5.6,8h0.2
	c0.5,0.7,1.4,0.3,1.6-0.2c0.2-0.3,0-0.7-0.3-0.8C6.9,6.8,6.6,7,6.4,7c-0.3,0.3,0,0.8,0,0.7c0-0.2,0-0.3,0.2-0.5
	c0.2-0.2,0.5,0,0.5,0.3C6.9,8.1,6.3,8,6,7.8C5.8,7.6,5.8,7.3,5.8,7s0.3-0.5,0.5-0.5c0.5-0.2,0.8,0,1.1,0.3C7.6,7,7.6,7.1,7.6,7.3
	c-0.2,0.3-0.2,0.7,0,1c0.3,0.2,0.8,0.5,1.1,0.5s0.8-0.2,1-0.5c0.2-0.3,0.2-0.7,0.2-1c0-0.2,0-0.3,0.2-0.5c0.3-0.3,0.8-0.5,1.1-0.3
	c0.3,0,0.5,0.2,0.5,0.5s0,0.7-0.2,0.8c-0.2,0.3-0.8,0.3-1-0.2s0.3-0.5,0.5-0.3c0.2,0.2,0.2,0.3,0.2,0.5c0,0.2,0.5-0.3,0-0.7
	c-0.3-0.3-0.6-0.3-0.8,0c-0.2,0.2-0.2,0.5-0.2,0.7c0.2,0.5,1,0.8,1.4,0.3h0.2c0.5,0,0.6-0.5,0.8-0.8c0-0.3,0.2-0.5,0.3-0.7
	c0.2-0.2,0.5-0.2,0.6-0.2c0.3,0,0.5,0.2,0.6,0.3c0.2,0.3-0.2,1-0.8,0.8c-0.5-0.2-0.5-0.8,0-0.7c0.2,0,0.3,0.1,0.3,0.3
	c0.1-0.1,0.1-0.2,0-0.3l0,0c0.2-0.3-0.2-0.5-0.5-0.3c-0.1,0-0.2,0.1-0.2,0.2l0,0c-0.2,0.2-0.2,0.3-0.2,0.7S13.2,8,13.3,8
	c1,0.2,1.4-0.7,1.1-1.3c0-0.2-0.2-0.2-0.2-0.3c0.2,0,0.2-0.2,0.3-0.2C14.8,6,14.9,5.5,14,4.5c-0.5-0.3-0.5-0.8-0.2-1.3
	c0.6-0.7,1.6-0.3,1.6,0.3s-0.5,0.8-0.8,0.7s-0.3-0.5-0.2-0.5h0.5c0.2,0,0-0.2,0-0.2c-0.1-0.2-0.5-0.2-0.6-0.2
	c-0.3,0.2-0.5,0.8,0.2,1.2c0.8,0.3,1.4-0.2,1.4-1c0-0.3-0.2-0.5-0.3-0.7c-0.2-0.3-0.3-0.7-0.6-1l0.2-0.2L14,1
	c-0.5-0.2-0.8-0.2-1.3,0c-1.4,0.3-3.5,0.5-4-1C8.2,1.7,6.1,1.3,4.9,1C4.4,0.8,4.1,0.8,3.6,1L2.5,1.5c0,0.1,0.1,0.2,0.2,0.2l0,0
	C2.3,2,2.1,2.3,2,2.7C1.8,2.8,1.7,3.2,1.7,3.3C1.6,4.2,2.4,4.8,3.1,4.3z M8.7,8C8.5,8,8.2,7.8,8.2,7.5C8.2,7.3,8.4,7,8.7,7
	c0.2,0,0.5,0.2,0.5,0.5C9.2,7.7,9,8,8.7,8z M8.7,1.3c0.2,0,0.5,0.2,0.5,0.5C9.2,2,9,2.3,8.7,2.3c-0.2,0-0.5-0.2-0.5-0.5
	C8.4,1.5,8.5,1.3,8.7,1.3z M9.2,3.3c0,0.2-0.1,0.3-0.3,0.3c-0.2,0-0.3-0.1-0.3-0.3C8.4,3,8.5,2.8,8.7,2.8C9,2.8,9.2,3.2,9.2,3.3z
	 M8.7,4.8c0.3,0,0.6,0.3,0.6,0.7c0,0.3-0.2,0.8-0.6,0.8C8.4,6.3,8.1,6,8.1,5.7C8.1,5.2,8.4,4.8,8.7,4.8z M9.8,13L9.8,13
	c0,0,0-0.8-1.1-0.8S7.6,13,7.6,13c-2.6,0-2.2,2-1.3,2c0.3,0,0.6-0.2,1-0.3c-0.2-0.2-0.2-0.3,0-0.7c-0.1,0-0.2-0.1-0.2-0.2l0,0
	c0,0,0.2-0.3,0.3-0.3c0.1,0,0.2,0.1,0.2,0.2v0v0.2c-0.2,0.3-0.2,0.7,0.2,0.8C8.1,15,8.4,15,8.9,15c0.3,0,0.8-0.2,1.1-0.3
	c0-0.2,0.2-0.5,0-0.8c0-0.1,0.1-0.2,0.2-0.2s0.2,0.1,0.2,0.2c0,0.1-0.1,0.2-0.2,0.2l0,0v0.7c0.3,0.3,0.6,0.3,1,0.3
	C12.2,15,12.4,13,9.8,13z M10.8,10.8c0,0,0.8-1.5,1.8-1c1.1,0.3,0,1.3,0,1.3c1-0.3,1-1.5,1-1.5C11.4,8.5,10.8,10.8,10.8,10.8z
	 M5.2,11.2c0.8,0.3,1.6-0.3,1.6-0.3C6.1,8.5,4,9.7,4,9.7s1.4-0.5,2.1,0.5C6.6,11.2,5.2,11.2,5.2,11.2z M16.6,3.8L16.6,3.8L16.6,3.8z
	 M16.7,9.5"/>
<path id="download-owsports" d="M4.3,5.9c1.5-2,3.9-2.4,4.5-1.2c0.6,1.4-1.3,2.9-3.4,2.7c0,0-0.6,0-0.5-0.3C5,6.2,5.4,5.4,6,4.8
	l0.8-0.3C6.2,5.2,5.7,6,5.5,6.9c1.7,0.3,3.1-1.2,2.8-2C8.3,4.6,6.8,3.5,4.3,5.9z M5.5,13.1L5.5,13.1c-0.1,0-0.2,0-0.2,0l0,0
	l-1.5-0.5c-0.2,0-0.3-0.2-0.4-0.3c0,0,0-0.1-0.1-0.2c0,0-0.5-1.9-0.6-2.3c0-0.2,0-0.3,0-0.4c0-0.1,0.1-0.1,0.1-0.2
	c0,0,0.9-0.9,1.1-1.2c0.1-0.1,0.2-0.2,0.4-0.2c0.1,0,0.2,0,0.3,0.1L6,8.4c0.2,0,0.3,0.1,0.4,0.3c0,0,0,0.1,0,0.2
	c0,0.1,0.6,2.1,0.6,2.4c0,0.1,0,0.2-0.1,0.3c0,0,0,0.1-0.1,0.1c0,0-0.8,1-1,1.3C5.8,13.1,5.7,13.1,5.5,13.1z M10.8,12L10.8,12
	c0,0-0.1,0-0.1,0c0,0-2.1-0.5-2.5-0.5c-0.2,0-0.3-0.1-0.4-0.2c0,0,0-0.1-0.1-0.2l0,0c0-0.2-0.6-2-0.6-2.4c0-0.1,0-0.3,0.1-0.4
	c0,0,0.1-0.1,0.1-0.2c0,0,1.5-1.4,1.8-1.7c0.1-0.1,0.3-0.2,0.4-0.2c0.1,0,0.2,0,0.2,0l2.5,0.5c0.1,0,0.2,0.1,0.3,0.2
	c0,0,0,0.1,0.1,0.2c0,0,0.4,1.7,0.6,2.2c0.1,0.2,0,0.3,0,0.5c0,0-0.1,0.1-0.1,0.2c0,0-1.6,1.5-1.9,1.7C11.1,12,11,12,10.8,12z
	 M2.2,8.8L2.2,8.8c0,0-0.1,0-0.2,0C1.9,8.7,1.9,8.4,1.9,8.4s0-0.3,0.1-0.7c0.1-0.5,0.2-1,0.4-1.5c0.4-0.8,0.9-1.5,1.5-2.2
	C4,4,4,4,4.2,4c0,0,0.1,0,0.2,0c0,0,0.2,0.2,0.3,0.3c0.1,0.1,0,0.3,0,0.3L3.8,7.2c0,0-1.4,1.4-1.4,1.5C2.4,8.7,2.3,8.8,2.2,8.8z
	 M12.6,6.2L12.6,6.2c-0.1,0-0.2,0-0.3,0c0,0-2.1-0.5-2.4-0.5c-0.2,0-0.3-0.1-0.4-0.2c0,0-0.1-0.1-0.1-0.2c0,0-0.4-1.1-0.5-1.4
	c0-0.1-0.1-0.3,0-0.4c0,0,0.1-0.1,0.1-0.1l0,0c0,0,1.2-0.9,1.4-1.1c0.1-0.1,0.2-0.1,0.3-0.1c0.1,0,0.1,0,0.2,0l2.4,0.5
	c0.2,0,0.3,0.1,0.4,0.2c0.1,0,0.1,0.1,0.1,0.2c0,0,0.4,1.2,0.6,1.5c0,0.1,0,0.3,0,0.4c0,0-0.1,0.1-0.1,0.1c0,0-0.9,0.7-1.2,1
	C12.8,6.2,12.7,6.2,12.6,6.2z M5.3,3.9c0,0-0.1,0-0.2,0c0,0-0.1-0.1-0.3-0.3c0,0-0.1-0.1-0.1-0.2c0-0.1,0-0.2,0.1-0.2
	C5,3,5.1,2.9,5.3,2.7C5.5,2.6,5.7,2.4,6,2.3C6.3,2.2,6.6,2,6.9,1.9c0.3-0.1,0.6-0.2,1-0.3c0.2-0.1,0.6-0.2,0.9-0.2s0.6-0.1,0.9-0.1
	c0.1,0,0.2,0.1,0.2,0.2v0c0,0.1,0,0.2-0.1,0.2L8.1,3.1C8.1,3.1,5.6,3.8,5.3,3.9C5.3,3.9,5.3,3.9,5.3,3.9z M17.6,14.1
	c2.3-2.8,1.5-6,1.5-6s0.4,2.8-1.5,5.3V14.1z M17.7,10.6c0,0,0,0.7-0.6,1.5c0.3,0.2,0.4,0.5,0.4,0.8v0.1c1.3-1.9,1.4-4,1-5.9
	C18.8,9.6,17.7,10.6,17.7,10.6z M14.2,1c0.6,0.4,4,1.7,5.8,7c0,0-0.8-4.9-5.7-7.2C12.6,0.1,7.5-1,3.5,1.9C6.7-0.1,10.7-0.4,14.2,1z
	 M13.4,16.3C13.4,16.3,13.4,16.2,13.4,16.3c-0.2-0.3-0.3-0.5-0.3-0.7c0-0.1,0-0.2,0.1-0.3c-0.2,0.1-0.4,0.2-0.6,0.2
	c-2.1,0.7-4.7,0.5-6.3-0.3C0.2,12.3,2,6.9,2,6.9s1-4.5,6.6-5.7c4.6-0.8,8.7,2.2,10.3,4.8c0,0-3.1-7.2-12.1-5.4C5,1-0.5,3.4,0,9.7
	C0.2,13.9,5.6,19.1,13,17c0.3-0.1,0.6-0.2,0.9-0.3L13.4,16.3z M14.8,15l0.4,0.3c0.1,0,0.2-0.1,0.2-0.2v-1.2
	c-0.3,0.2-0.7,0.5-1.1,0.7C14.5,14.7,14.7,14.8,14.8,15z M15.4,15.5v-0.2c0,0-0.1,0.1-0.2,0.1L15.4,15.5z M19.2,20h-5.8v-1.3
	c0-0.2,0.1-0.3,0.3-0.3c0.2,0,0.3,0.1,0.3,0.3v0v0.8h4.5v-0.8c0-0.2,0.1-0.3,0.3-0.3s0.3,0.1,0.3,0.3v0V20z M19.2,15.1
	c-0.2-0.2-0.6-0.2-0.8,0l-1.3,1.2v-3.5c0-0.4-0.3-0.7-0.7-0.7s-0.7,0.3-0.7,0.7v3.5l-1.3-1.2c-0.2-0.2-0.6-0.3-0.8-0.1
	s-0.3,0.5-0.1,0.8c0,0,0,0,0.1,0.1l2.8,2.7l2.8-2.7C19.5,15.7,19.5,15.4,19.2,15.1z"/>
<path id="download-dafasports" d="M14,12.2c0,0-0.1,0-0.2,0c0.3-0.5,0.6-1.2,0.7-1.9l0,0c0,0,0.9-1,0.7-3.3c0.3,1.7,0.3,3.6-0.6,5.3
	c-0.1,0-0.2-0.1-0.3-0.1C14.2,12.2,14.1,12.2,14,12.2C14,12.2,14,12.2,14,12.2z M6,9.3c0,0-0.1,0.1-0.1,0.2l0,0c0,0,0,0.1,0,0.1
	c0,0,0,0.1-0.1,0.1c-0.1,0.1-0.1,0.2-0.1,0.4c0,0-0.1,0.1-0.1,0.2c0,0.1-0.1,0.2-0.1,0.2l0,0c0,0.1-0.1,0.1-0.1,0.2
	c-0.1,0.1-0.2,0.2-0.2,0.3C5.1,11.1,5,11.2,5,11.4c0,0.1-0.1,0.2-0.1,0.3c0,0.1-0.1,0.1-0.1,0.2c0,0.1-0.1,0.2-0.2,0.3
	c-0.1,0.1-0.1,0.2-0.2,0.3l0,0c0,0,0,0-0.1,0.1c-0.1,0.2-0.6,0.3-0.5,0.5c0.3,0.2,0.7,0.2,1.1,0.3c5.4,0.9,10.4-3.9,8.9-8.2
	C12.5,1.4,6.2,2.4,2.2,8.7c6.6-7.4,10.3-3.9,10.4-2.9c0.7,2.4-2.7,6.9-7.2,6.1c0,0,0,0,0.1,0c0,0,0,0,0,0c0,0,0,0,0.1-0.1
	c0-0.1,0.1-0.1,0.1-0.2C5.9,11.4,5.9,11.2,6,11l0,0c0.1-0.1,0.2-0.3,0.3-0.4c0,0,0.1,0,0.1-0.1c0,0,0.1-0.1,0.1-0.1
	c0.1,0,0.1,0,0.2,0l0,0h0C6.9,10.3,7,10.2,7,10.1C7.1,10,7.2,9.9,7.3,9.7c0-0.1,0.1-0.2,0.1-0.2c0,0,0.1,0,0.1-0.1l0,0c0,0,0,0,0,0
	l0,0c0,0,0-0.1,0.1-0.2S7.7,9,7.7,9v0c0.1,0,0.1-0.1,0.2-0.2l0,0v0l0,0c0.1,0,0.1-0.1,0.1-0.2C8.2,8.3,8.3,8.2,8.4,8
	c0.1-0.2,0.1-0.3,0.2-0.5c0-0.1,0.1-0.3,0.1-0.4c0,0,0,0,0,0.1c0,0,0,0,0,0.1l0,0h0l0,0c0,0,0,0,0,0.1c0,0,0,0.1,0,0.1
	c0,0,0,0.1,0,0.2c0,0,0,0.1,0,0.1c0,0-0.1,0-0.1,0c0,0,0,0.1-0.1,0.1c0,0,0,0,0,0.1c0,0,0,0,0,0c0,0,0,0.1,0.1,0
	c0,0,0.1-0.1,0.1-0.1c0,0,0,0,0,0c0,0,0,0,0,0l0,0c0,0-0.1,0.1-0.1,0.2c0,0,0,0.1,0,0.1c0,0,0.1,0,0.1,0l0,0c0,0,0.1-0.1,0.1-0.2
	c0,0,0,0,0.1-0.1s0,0,0,0c0,0,0,0,0,0c0,0-0.1,0.1-0.1,0.2l0,0c0,0,0,0,0,0s0,0,0,0c0,0,0,0,0,0l0,0c0,0,0,0,0.1,0c0,0,0,0.1,0,0.1
	s0,0,0,0s0,0,0.1,0c0.1,0,0.1,0,0.1-0.1c0,0,0.1,0,0.1-0.1s0.1-0.1,0.1-0.1c0-0.1,0-0.2,0-0.3c0,0,0,0,0,0c0,0,0,0,0-0.1
	c0,0,0-0.1,0-0.2S9,7.5,9,7.5c0,0,0-0.1,0-0.1c0,0,0-0.1,0-0.1l0,0c0,0,0,0,0,0v0C9,7.1,9,7,9,6.9c0-0.2-0.1-0.3-0.1-0.4
	c0-0.1-0.1-0.2-0.1-0.3l0,0c0,0-0.1,0-0.1,0s-0.1,0-0.1,0c-0.1,0-0.1,0-0.2,0c-0.1,0-0.2,0-0.3,0h0c0,0,0-0.1-0.1-0.2C8,6.1,8,6,8,6
	c0-0.1,0-0.2,0-0.2c0,0,0-0.1,0-0.2C8,5.5,8,5.5,8,5.5c0-0.1-0.1-0.2-0.1-0.3C7.7,5.1,7.7,5.1,7.6,5c0,0-0.1-0.1-0.1-0.1
	c0,0,0,0,0,0l0,0c0,0,0,0.1,0,0.2h0c0,0,0,0,0,0l0,0l0,0c0,0,0,0.1,0,0.2c0,0-0.1,0.1-0.1,0.1c0,0.1,0,0.1,0,0.2c0,0,0,0.1,0,0.2
	c0,0,0,0.1,0,0.2c0,0,0,0.1,0,0.1c0,0,0,0,0.1,0c0,0,0,0.1,0,0.1c0,0,0,0.1,0.1,0.1c0,0,0,0.1,0,0.2c0,0,0,0.1,0,0.1
	c-0.1,0-0.1,0-0.2,0C7.1,6.5,7,6.6,6.9,6.7C6.8,6.8,6.7,6.9,6.6,7v0c0,0,0,0,0,0l0,0c0,0,0,0-0.1,0.1c0,0-0.1,0.1-0.1,0.1
	c0,0-0.1,0-0.2,0c-0.1,0-0.2,0-0.3,0c-0.1,0-0.2,0-0.3,0c0,0-0.1,0-0.1,0C5.5,7,5.5,7,5.4,7c0,0,0,0-0.1,0s-0.1,0-0.1,0s0,0-0.1,0h0
	c0,0,0,0,0,0h0l0,0c0,0,0,0,0,0c0,0,0,0,0,0s0,0,0,0.1c0,0,0,0,0.1,0c0,0,0.1,0,0.1,0.1c0,0,0,0,0,0c0,0,0,0,0,0c0,0,0,0,0,0
	c0,0,0,0,0,0s0,0-0.1,0c0,0-0.1,0-0.1,0c0,0,0,0.1,0,0.1c0,0,0,0,0.1,0s0,0,0.1,0s0.1,0,0.1,0c0,0,0.1,0,0.1,0c0,0,0,0,0.1,0
	c0.1,0,0.2,0.1,0.3,0.1c0.1,0,0.1,0,0.2,0.1c0,0,0.1,0,0.1,0h0h0c0.1,0,0.2-0.1,0.3-0.2l0,0l0,0h0c0.1,0,0.1,0,0.1-0.1
	c0,0,0,0.1,0,0.2c0,0.2,0,0.3-0.1,0.4c0,0,0,0,0,0.1h0c0,0-0.1,0-0.1,0.1h0c-0.1,0-0.2,0-0.3,0c-0.1,0-0.1,0-0.2,0c0,0,0,0-0.1,0
	c-0.1,0-0.1,0-0.2,0c-0.2,0-0.3,0-0.4,0.1C5.4,8,5.3,8.1,5.2,8.1L5.1,8.2c0,0-0.1,0-0.1,0.1c0,0-0.1,0-0.1,0c0,0,0,0-0.1,0.1
	c0,0-0.1,0.1-0.1,0.2L4.6,8.8c0,0.1-0.1,0.1-0.1,0.2v0c0,0.1,0,0.2,0.1,0.3c0.1,0,0.1,0,0.2,0c0,0,0.1,0,0.1,0C5,9.4,5,9.4,5.2,9.4
	c0.1,0,0.1,0,0.2-0.1c0,0,0.1,0,0.1-0.1l0,0c0.1,0,0.1,0.1,0.2,0.2c0,0.1,0.1,0.1,0.1,0.2c0,0,0,0,0,0c0,0,0,0,0,0h0
	C6,9.6,6,9.5,6,9.4c0-0.1,0-0.2-0.1-0.3c0.1,0,0.1,0,0.2,0l0,0C6.1,9,6.2,9,6.3,8.9c0.1,0,0.1-0.1,0.2-0.1C6.4,8.9,6.3,8.9,6.2,9
	C6.2,9.2,6.1,9.2,6,9.3z M11.7,1.1c0.5,0.3,3.3,1.7,4.7,6.8c0,0-0.6-4.8-4.7-7.1c-1.4-0.8-5.6-1.8-8.8,1C5.5-0.1,8.8-0.4,11.7,1.1z
	 M15,12.6C15,12.6,15,12.6,15,12.6c0.7-1.4,0.9-3,0.6-4.6c0.1,1.5-0.2,3.1-0.9,4.5C14.9,12.5,14.9,12.5,15,12.6L15,12.6z M14.7,17.4
	c0,0-0.1,0-0.1,0.1c0,0,0,0-0.1,0h0h0c0,0-0.1,0-0.1,0s-0.1,0-0.1,0c-0.4,0.1-0.8,0.1-1.2,0c-0.1,0-0.2-0.1-0.3-0.1
	c0,0-0.1,0-0.1-0.1c0,0,0,0-0.1,0c0,0-0.1,0-0.1-0.1c-0.1-0.1-0.2-0.2-0.3-0.2C12.1,17,12,16.8,12,16.8c-0.1-0.1-0.1-0.2-0.2-0.3
	c0,0,0-0.1-0.1-0.1v0c0-0.1-0.1-0.1-0.1-0.2c-0.1-0.2-0.2-0.5-0.2-0.7c0-0.1,0-0.2,0-0.3v0c0-0.4,0.1-0.8,0.2-1.2v0l0,0
	c0,0,0,0,0-0.1c0,0,0-0.1,0.1-0.2c0,0,0,0,0-0.1l0,0c0-0.1,0.1-0.1,0.1-0.2c0,0,0.1-0.1,0.1-0.1c0,0,0,0,0.1-0.1l0.1-0.1
	c0,0,0,0,0,0l0,0l0.1,0c0,0,0.1-0.1,0.1-0.1c0.1-0.1,0.2-0.2,0.3-0.2h0c0.1,0,0.1-0.1,0.2-0.1c0.2-0.1,0.3-0.1,0.5-0.2
	c0.2,0,0.4,0,0.6,0c0,0,0,0,0.1,0c0.1,0,0.1,0,0.2,0c0.2,0.1,0.5,0.2,0.7,0.3c0.1,0.1,0.3,0.2,0.4,0.3c0,0,0.1,0.1,0.1,0.1l0,0l0,0
	c0,0,0,0,0.1,0.1c0,0,0,0,0,0c0,0,0,0,0,0.1c0.1,0.1,0.1,0.2,0.2,0.3c0.1,0.2,0.2,0.5,0.2,0.8c0,0.1,0,0.2,0,0.2s0,0,0,0.1
	c0,0,0,0,0,0.1c-0.1-0.2-0.3-0.3-0.5-0.3c-0.1,0-0.3,0-0.4,0.1c-0.1-0.1-0.2-0.3-0.2-0.4v0l0,0c-0.2,0-0.5,0-0.7,0.1h0l0,0
	c-0.1,0.2-0.1,0.4-0.2,0.7c0,0.2-0.1,0.3-0.1,0.5l0,0c0,0,0,0,0,0c0.2,0.3,0.4,0.5,0.7,0.8h0l0,0c0.1-0.1,0.2-0.2,0.3-0.2
	c0,0,0,0,0,0l0.5,0.6c0,0,0,0-0.1,0.1l-0.1,0l0,0l-0.1,0l-0.1,0c0,0,0,0-0.1,0c0,0-0.1,0.1-0.1,0.1C14.9,17.3,14.8,17.3,14.7,17.4z
	 M14.3,12.5c0.1,0.1,0.2,0.3,0.4,0.4c0.1,0.1,0.3,0.4,0.3,0.4c0.1,0,0.3,0,0.4,0l0,0l0,0l0,0c0,0,0,0-0.1-0.1
	c-0.1-0.1-0.2-0.2-0.3-0.3C14.7,12.6,14.5,12.6,14.3,12.5z M13.3,12.9L13.3,12.9c0,0.2-0.1,0.2-0.1,0.3c0,0.1,0,0.2,0,0.2
	c0.3,0.2,0.6,0.4,0.9,0.7l0,0l0,0c0.2-0.1,0.5-0.1,0.7-0.1c0-0.1,0.1-0.8,0.1-0.8s-0.2-0.3-0.3-0.5c-0.1-0.1-0.2-0.2-0.3-0.3
	c-0.1-0.1-0.1-0.1-0.2-0.2c-0.1,0-0.1,0-0.2,0C13.8,12.6,13.5,12.8,13.3,12.9z M11.7,13.5c0,0.1,0.1,0.2,0.1,0.3l0,0
	c0,0.1,0,0.3,0.1,0.4l0,0h0c0.1,0,0.1,0,0.2,0h0.1l0,0c0,0,0,0,0,0c0.2-0.3,0.5-0.5,0.8-0.7h0l0,0l0,0c0-0.1,0-0.1,0-0.2
	c0-0.1,0-0.3,0.1-0.4h0l0,0h0c-0.2-0.1-0.3-0.2-0.5-0.3c-0.1,0.1-0.2,0.1-0.3,0.2c0,0-0.1,0.1-0.1,0.1l-0.1,0l0,0l0,0l0,0.1
	c0,0,0,0-0.1,0.1c0,0-0.1,0.1-0.1,0.1C11.8,13.4,11.8,13.4,11.7,13.5z M12.4,16.3c0.1-0.2,0.1-0.5,0.2-0.7l0,0c0,0,0,0,0,0
	c-0.2-0.3-0.3-0.8-0.4-1.2c0,0-0.1,0-0.1,0c-0.1,0-0.1,0-0.2,0c-0.1,0.1-0.2,0.2-0.3,0.3c-0.1,0.1-0.2,0.2-0.2,0.3
	c0,0.1,0,0.2,0,0.3c0,0.3,0.1,0.5,0.2,0.7c0,0.1,0.1,0.2,0.1,0.2l0,0C11.9,16.3,12.2,16.3,12.4,16.3C12.4,16.3,12.4,16.3,12.4,16.3
	L12.4,16.3z M14.2,17.5c-0.1-0.1-0.1-0.1-0.2-0.2h0c-0.3,0-0.6,0-0.9-0.1c-0.1,0.1-0.2,0.1-0.3,0.2c0,0,0,0,0.1,0
	c0.1,0,0.2,0.1,0.3,0.1c0.1,0,0.2,0,0.3,0.1C13.7,17.6,13.9,17.6,14.2,17.5z M14.4,16.4L14.4,16.4c-0.3-0.3-0.5-0.5-0.7-0.8
	c-0.3,0.1-0.7,0.1-1.1,0c0,0.1-0.1,0.5-0.2,0.7l0,0l0,0c0.2,0.2,0.4,0.5,0.5,0.8c0,0,0,0,0.1,0c0.1,0,0.3,0,0.4,0.1
	c0.1,0,0.3,0,0.4,0h0h0c0.1-0.1,0.2-0.3,0.3-0.4C14.3,16.7,14.4,16.6,14.4,16.4L14.4,16.4z M11.4,16.2c-0.1-0.2-0.2-0.5-0.2-0.8
	c0-0.1,0-0.2,0-0.3v0c0-0.2,0-0.3,0-0.4c-0.3,0.2-0.6,0.3-0.9,0.5c-1.8,0.6-3.9,0.4-5.2-0.4c-5-2.7-3.5-8-3.5-8s0.8-4.3,5.5-5.5
	c3.8-0.8,7.2,2.2,8.4,4.7c0,0-2.5-7.1-9.9-5.2C4.1,0.9-0.4,3.3,0,9.5c0.1,4,4.6,9.1,10.6,7.1C10.9,16.5,11.2,16.4,11.4,16.2
	C11.4,16.2,11.4,16.2,11.4,16.2L11.4,16.2z M19.8,18.6L19.8,18.6c0-0.2-0.1-0.3-0.3-0.3c-0.1,0-0.2,0.2-0.2,0.3v0.8h-3.8v-0.8v0
	c0-0.2-0.1-0.3-0.3-0.3S15,18.5,15,18.6V20h4.9V18.6z M19.8,15.9l-2.4,2.7l-2.4-2.7c0,0,0,0-0.1-0.1c-0.2-0.2-0.1-0.6,0.1-0.8
	s0.5-0.2,0.7,0.1l1.1,1.2v-3.5c0-0.4,0.3-0.7,0.6-0.7c0.3,0,0.6,0.3,0.6,0.7v3.5l1.1-1.2c0.2-0.2,0.5-0.2,0.7,0
	C20.1,15.3,20.1,15.7,19.8,15.9z"/>
<path id="download-skywind" d="M6.4,15.8c0,0-2.8,1.9-5.5-2.2c-1.3-2-1.4-5.8,0.7-8.9C3.6,1.8,7.7,0,7.7,0s-3.2,2.1-4,5.3
	c-0.5,2.1,0.7,5,1.8,5.6C6.3,11.5,9.7,13.5,6.4,15.8z M16.7,10.2c0,0,3.1,1.5,0.9,5.8c-1,2.1-4.3,4.2-8,4c-3.5-0.2-7.2-2.8-7.2-2.8
	s3.4,1.7,6.7,0.7c2-0.6,3.9-3.1,3.9-4.4C13,12.5,13,8.5,16.7,10.2z M6.7,4.1c0,0-0.3-3.4,4.6-3.7c2.4-0.2,5.8,1.6,7.5,4.9
	c1.6,3.1,1.2,7.6,1.2,7.6s-0.3-3.8-2.7-6.1c-1.5-1.5-4.7-1.8-5.8-1.2C10.6,6.1,7.1,8.1,6.7,4.1z"/>
<path id="download-mg" d="M10,0c5.5,0,10,4.5,10,10s-4.5,10-10,10S0,15.5,0,10S4.5,0,10,0z M1.5,15.7c0,0,1.8-2.8,3.2-5.1
	c1-1.7,1.7-3.2,1.7-3.2s-0.2,5,0.8,7.4c0.8,1.8,2.2,1.6,2.2,1.6s0.9,0,1.8-0.9c1.7-2,3.5-6.1,3.5-6.1s0.6,1.3,1.2,2.3
	c0.5,0.9,1.1,1.5,1.4,1.6c0.5,0.4,0.4-0.4,0.4-0.4s-0.6-0.5-1.1-1.9c-1.1-3.3-0.6-3.7-0.9-4.5c-0.2-0.4-0.4-0.4-0.6-0.4
	c-0.8-0.3-1.2,0.7-1.2,0.7s-1.6,3.4-3.2,6.2c-1,1.6-1.5,1.6-1.5,1.6s-0.8-1.2-0.9-5C8,6.4,8.4,3.3,8.4,3C8.2,2,7.6,2,7.1,2.2
	C6.7,2.4,6.5,2.8,6.5,2.8S5.6,4.6,4.3,6.8C2.4,10.1,0.3,13,0.3,13L1.5,15.7z"/>
<path id="download-casino" d="M4.3,10.4C6,11.5,8,12,10,12c2,0,4-0.5,5.7-1.6c1.6-1.1,2.4-2.5,2.4-4s-0.9-3-2.4-4
	C14,1.2,12,0.7,10,0.7c-2,0-4,0.5-5.7,1.6c-1.6,1.1-2.4,2.5-2.4,4S2.8,9.3,4.3,10.4z M10,11.6c0,0-0.3,0-0.3,0v-0.1
	c0.1,0,0.2,0,0.3,0c0.1,0,0.2,0,0.3,0v0.1C10.4,11.6,10,11.6,10,11.6L10,11.6z M4.4,9.7l0.7-0.1c0.1,0.1,0.2,0.2,0.2,0.3l-0.6,0.2
	C4.7,9.9,4.5,9.8,4.4,9.7L4.4,9.7z M4.8,8.1c0-0.2,0-0.4,0-0.5c0-0.1,0-0.2,0-0.2c0-0.2,0-0.4,0.1-0.6C5,6.7,5,6.5,5.1,6.4
	C5.2,6.2,5.4,6,5.5,5.8c0.1-0.1,0.3-0.3,0.4-0.4c0.2-0.2,0.3-0.3,0.5-0.4S6.8,4.8,7,4.7c0.2-0.1,0.5-0.2,0.7-0.3
	c0.2-0.1,0.4-0.1,0.7-0.2c0.3,0,0.5-0.1,0.8-0.1l0,0h0.1v0.4C8.3,4.6,7.4,4.9,6.6,5.4c-0.7,0.4-1.1,1.2-1.1,2C5.5,8.3,6,9,6.8,9.6
	c0.9,0.6,2,0.9,3.1,0.9c1.1,0,2.2-0.3,3.1-0.9c0.9-0.6,1.3-1.3,1.3-2.2c0-0.8-0.5-1.6-1.1-2c-0.8-0.6-1.6-0.9-2.6-0.9V4.1h0
	c0.3,0,0.5,0.1,0.8,0.1c0.2,0,0.5,0.1,0.7,0.2c0.2,0.1,0.5,0.2,0.7,0.3c0.2,0.1,0.4,0.2,0.6,0.3c0.2,0.1,0.4,0.3,0.6,0.4
	c0.2,0.1,0.3,0.2,0.4,0.4c0.2,0.2,0.3,0.3,0.4,0.5c0.1,0.2,0.2,0.4,0.2,0.5c0.1,0.2,0.1,0.4,0.1,0.6c0,0.1,0,0.2,0,0.2
	c0,0.2,0,0.4,0,0.5c0,0.2-0.1,0.4-0.2,0.6c-0.1,0.2-0.2,0.4-0.3,0.6c-0.2,0.2-0.3,0.4-0.5,0.5c-0.3,0.2-0.5,0.4-0.8,0.6
	c-0.2,0.1-0.5,0.2-0.8,0.4c-0.4,0.2-0.7,0.2-1.1,0.3c-0.3,0-0.6,0.1-0.9,0.1c-0.3,0-0.7,0-1,0C9.2,11,8.9,11,8.5,11
	c-0.4-0.1-0.8-0.2-1.1-0.3c-0.3-0.1-0.5-0.2-0.8-0.4c-0.3-0.2-0.5-0.4-0.8-0.6C5.6,9.6,5.5,9.4,5.3,9.2C5.2,9.1,5.1,8.9,5,8.7
	C4.9,8.5,4.9,8.3,4.8,8.1L4.8,8.1z M10,5.6c0,0,0.1,0,0.1,0v0.6c0,0.1-0.1,0.1-0.1,0.1c-0.1,0-0.1-0.1-0.1-0.1V5.6
	C9.9,5.6,9.9,5.6,10,5.6L10,5.6z M10.8,4.9c0.1,0,0.2,0,0.3,0l-0.5,0.7c0,0,0,0-0.1,0V5.3C10.6,5.3,10.7,5.1,10.8,4.9z M5.9,7.5
	c0-0.5,0.2-0.9,0.5-1.3l2.3,0.3c0,0.1,0,0.2,0.1,0.3L6,8.1C5.9,7.9,5.9,7.7,5.9,7.5z M8.5,5l0.6,0.8C9,5.9,8.9,6,8.8,6.1L6.7,5.9
	C7.3,5.5,7.8,5.2,8.5,5L8.5,5z M10,6.7c0.3,0,0.5-0.2,0.5-0.5V6c0,0,0,0,0,0c0.2,0,0.3,0.2,0.3,0.4c0,0,0,0,0,0.1
	c0,0.1-0.1,0.2-0.2,0.3c-0.1,0.1-0.2,0.2-0.4,0.2c-0.2,0-0.5,0-0.7,0c-0.2,0-0.3-0.1-0.4-0.2C9.2,6.7,9.1,6.6,9.1,6.5c0,0,0,0,0-0.1
	C9.2,6.2,9.3,6.1,9.5,6c0,0,0,0,0,0v0.2C9.5,6.4,9.7,6.7,10,6.7L10,6.7L10,6.7z M9.1,7.1c0.1,0,0.2,0.1,0.2,0.1L8.1,9.9
	C7.3,9.6,6.6,9.2,6.1,8.4L9.1,7.1z M9.7,7.3c0.1,0,0.2,0,0.3,0c0.1,0,0.2,0,0.3,0l1.3,2.6c-0.5,0.1-1,0.2-1.6,0.2
	c-0.5,0-1-0.1-1.6-0.2L9.7,7.3z M11.9,9.9l-1.3-2.6c0.1,0,0.2-0.1,0.2-0.1l3,1.3C13.4,9.1,12.7,9.6,11.9,9.9L11.9,9.9z M14,8.1
	l-2.8-1.3c0.1-0.1,0.1-0.2,0.1-0.3l2.3-0.3c0.3,0.4,0.5,0.8,0.5,1.3C14.1,7.7,14.1,7.9,14,8.1L14,8.1z M11.2,6.2
	C11.1,6,11,5.9,10.9,5.8l0.6-0.8c0.7,0.2,1.2,0.4,1.8,0.9L11.2,6.2z M9.5,5.6C9.5,5.6,9.5,5.6,9.5,5.6L8.9,5c0.1,0,0.2,0,0.3,0
	c0,0.2,0.1,0.4,0.3,0.5V5.6z M15.2,10l-0.6-0.2c0.1-0.1,0.2-0.2,0.2-0.3l0.7,0.1C15.5,9.8,15.3,9.9,15.2,10L15.2,10z M10.7,11.5
	c0.2,0,0.5,0,0.7-0.1l0.1,0.2c-0.2,0-0.5,0.1-0.8,0.1V11.5z M13.4,10.7l0.3,0.2c-0.2,0.1-0.4,0.2-0.7,0.3L12.9,11
	C13.1,10.9,13.3,10.8,13.4,10.7L13.4,10.7z M12.6,11l0.2,0.2c-0.3,0.1-0.6,0.2-0.9,0.2l-0.1-0.2C12,11.2,12.3,11.2,12.6,11L12.6,11z
	 M14.8,10.3c-0.2,0.1-0.4,0.2-0.6,0.4l-0.4-0.2c0.2-0.1,0.3-0.2,0.5-0.4L14.8,10.3L14.8,10.3z M6.6,10.7c0.2,0.1,0.3,0.2,0.5,0.2
	l-0.2,0.2C6.6,11,6.4,11,6.2,10.9L6.6,10.7z M8.6,11.4c0.2,0,0.5,0.1,0.7,0.1v0.2c-0.3,0-0.5,0-0.8-0.1L8.6,11.4z M8.2,11.5
	c-0.3,0-0.6-0.1-0.9-0.2L7.4,11c0.3,0.1,0.5,0.2,0.9,0.2L8.2,11.5z M5.7,10.1c0.2,0.1,0.3,0.3,0.5,0.4l-0.4,0.2
	c-0.2-0.1-0.4-0.2-0.6-0.4L5.7,10.1z M15.8,9.4l-0.7-0.2C15.2,9.2,15.2,9,15.3,9h0.9C16.1,9.1,16,9.2,15.8,9.4L15.8,9.4z M16.3,8.6
	h-0.9c0-0.1,0-0.2,0.1-0.2l1-0.1C16.4,8.4,16.4,8.5,16.3,8.6L16.3,8.6z M16.6,7.5c0,0.1,0,0.3,0,0.4l-1,0.1c0-0.1,0-0.2,0-0.4
	c0,0,0,0,0-0.1l1-0.2C16.6,7.4,16.6,7.4,16.6,7.5L16.6,7.5z M15.6,7.2c0-0.1,0-0.2,0-0.3l0.9-0.4c0,0.2,0.1,0.3,0.1,0.4L15.6,7.2z
	 M15.4,6.6c0-0.1-0.1-0.2-0.1-0.3l0.8-0.5c0.1,0.1,0.2,0.3,0.2,0.4L15.4,6.6z M15.1,6c0-0.1-0.1-0.2-0.2-0.2l0.7-0.5
	c0.1,0.1,0.2,0.2,0.3,0.3L15.1,6z M14.7,5.5c0,0-0.1-0.1-0.2-0.2l0.5-0.6c0.1,0.1,0.2,0.2,0.3,0.2L14.7,5.5z M14.3,5.1
	c-0.1-0.1-0.2-0.2-0.3-0.2l0.4-0.6c0.1,0.1,0.3,0.2,0.4,0.2L14.3,5.1z M13.6,4.7c-0.1,0-0.2-0.1-0.3-0.2l0.3-0.6
	c0.1,0,0.2,0.1,0.3,0.2L13.6,4.7z M13,4.3c-0.1,0-0.3-0.1-0.4-0.2l0.3-0.5c0.2,0,0.3,0.1,0.4,0.2L13,4.3z M12.3,4.1
	C12.2,4.1,12,4,11.9,4l0.2-0.5c0.2,0,0.3,0.1,0.5,0.1L12.3,4.1z M11.6,3.9c-0.2,0-0.3-0.1-0.5-0.1l0-0.5c0.2,0,0.4,0,0.6,0.1
	L11.6,3.9z M10.7,3.8L10.7,3.8c0-0.1,0-0.2,0-0.2c0-0.1,0-0.2,0-0.2h0.1L10.7,3.8z M10.3,3.5c0,0.1,0,0.2-0.1,0.2c0,0-0.1,0.1,0,0.2
	c0,0.1,0.1,0.1,0.2,0.1h0v0.7c0,0.2-0.1,0.3-0.2,0.4l0,0l0,0c-0.1,0.1-0.3,0.1-0.4,0l0,0l0,0C9.7,5.1,9.6,4.9,9.6,4.8V4.1h0
	c0.1,0,0.2,0,0.2-0.1c0-0.1,0-0.2,0-0.2C9.7,3.7,9.6,3.6,9.6,3.5c0-0.2,0.2-0.4,0.3-0.4l0,0C10.2,3.2,10.3,3.3,10.3,3.5L10.3,3.5z
	 M9.4,3.7C9.3,3.7,9.3,3.8,9.4,3.7L9.3,3.3h0.1C9.3,3.4,9.3,3.4,9.3,3.5C9.3,3.6,9.3,3.6,9.4,3.7L9.4,3.7z M8.9,3.3l0,0.5
	c-0.2,0-0.3,0-0.5,0.1L8.3,3.4C8.5,3.4,8.7,3.4,8.9,3.3L8.9,3.3z M7.9,3.5L8.1,4C8,4,7.9,4.1,7.8,4.1L7.5,3.6
	C7.6,3.6,7.8,3.5,7.9,3.5L7.9,3.5z M7.1,3.7l0.3,0.5C7.3,4.3,7.1,4.3,7,4.4L6.7,3.9C6.8,3.8,7,3.8,7.1,3.7L7.1,3.7z M6.3,4l0.3,0.6
	c-0.1,0-0.2,0.1-0.3,0.2L6,4.2C6.1,4.1,6.2,4,6.3,4L6.3,4z M5.7,4.3l0.4,0.6C6,4.9,5.9,5,5.8,5.1L5.3,4.5C5.4,4.5,5.5,4.4,5.7,4.3
	L5.7,4.3z M5,4.7l0.5,0.6c-0.1,0-0.1,0.1-0.2,0.2L4.7,4.9C4.8,4.9,4.9,4.8,5,4.7L5,4.7z M4.4,5.2l0.7,0.5C5,5.8,5,5.9,4.9,6L4.2,5.5
	C4.2,5.4,4.3,5.3,4.4,5.2L4.4,5.2z M4,5.8l0.8,0.5c0,0.1-0.1,0.2-0.1,0.3L3.7,6.2C3.8,6.1,3.8,5.9,4,5.8L4,5.8z M3.6,6.6l0.9,0.4
	c0,0.1,0,0.2,0,0.3L3.5,7C3.5,6.8,3.5,6.7,3.6,6.6L3.6,6.6z M4.4,7.5C4.4,7.6,4.4,7.6,4.4,7.5c0,0.2,0,0.3,0,0.4l-1-0.1
	c0-0.1,0-0.3,0-0.4c0,0,0-0.1,0-0.1L4.4,7.5z M4.5,8.3c0,0.1,0,0.2,0.1,0.2H3.7c0-0.1-0.1-0.2-0.1-0.4L4.5,8.3z M4.7,9
	c0,0.1,0.1,0.2,0.2,0.3L4.2,9.4C4,9.3,4,9.1,3.8,9H4.7z M10,1.1c2.8,0,5.3,1,6.6,2.6c-1.6-1.3-4-2.1-6.6-2.1S5,2.4,3.4,3.6
	C4.7,2.1,7.2,1.1,10,1.1L10,1.1z M2.3,6C2.4,5.4,2.6,4.9,3,4.5c1.5-1.5,4.1-2.5,7-2.5s5.5,0.9,7,2.5c0.4,0.4,0.7,0.9,0.7,1.5
	c0,0.1,0,0.2,0,0.4c0,0.4-0.1,0.7-0.2,1.1l0-0.6c0-0.1-0.1-0.2-0.2-0.2s-0.2,0.1-0.2,0.2l0,0.7c0,0.1,0.1,0.2,0.2,0.2l0,0
	c0,0,0.1,0,0.1,0c-0.3,0.7-0.7,1.4-1.3,1.9C16.7,9,16.9,8.2,17,7.5C17,5,14.1,3,10.4,2.9c-0.1-0.1-0.2-0.1-0.3-0.1
	c-0.2,0-0.3,0-0.4,0.1c-0.2,0-0.4,0-0.6,0C8.7,3,8.3,3,8,3.1c-0.3,0-0.6,0.1-0.9,0.2C6.8,3.4,6.6,3.5,6.3,3.6
	C6.1,3.7,5.9,3.8,5.6,3.9C5.4,4,5.1,4.2,4.9,4.3C4.7,4.5,4.5,4.7,4.3,4.8C4.1,5,3.9,5.2,3.7,5.4C3.5,5.6,3.4,5.9,3.3,6.2
	C3.1,6.6,3,7,3,7.4c0,0.2,0,0.4,0.1,0.6c0.1,0.6,0.3,1,0.7,1.5C3.2,9,2.8,8.3,2.5,7.6c0,0,0.1,0,0.1,0l0,0c0.1,0,0.2-0.1,0.2-0.2
	l0-0.7c0-0.1-0.1-0.2-0.2-0.2c-0.1,0-0.2,0.1-0.2,0.2l0,0l0,0.7C2.3,7.1,2.3,6.7,2.3,6.4C2.3,6.2,2.3,6.1,2.3,6L2.3,6z M5.2,3.8
	c0,0.1,0.1,0.1,0.2,0.1c0,0,0,0,0.1,0c0.1,0,0.1-0.2,0.1-0.2L5.3,3.2c0-0.1-0.2-0.1-0.2-0.1l0,0C5,3.2,5,3.3,5,3.4l0,0L5.2,3.8z
	 M14.6,3.9C14.6,3.9,14.6,3.9,14.6,3.9c0.2,0,0.2,0,0.2-0.1L15,3.3c0-0.1,0-0.2-0.1-0.2l0,0c-0.1,0-0.2,0-0.2,0.1l0,0l-0.2,0.4
	C14.4,3.7,14.5,3.8,14.6,3.9z M9.7,2.5h0.6c0.1,0,0.2-0.1,0.2-0.2l0,0c0-0.1-0.1-0.2-0.2-0.2l0,0H9.7c-0.1,0-0.2,0.1-0.2,0.2l0,0
	C9.5,2.5,9.6,2.5,9.7,2.5L9.7,2.5z M14.4,14.8c0.2-0.1,0.3-0.2,0.5-0.2V15c-0.1,0-0.2,0.1-0.2,0.1L14.4,14.8z M20,6.5L20,6.5
	c0,0.4,0,0.7-0.1,1c-0.2,0.7-0.4,1.3-0.7,2c-0.2,1.5-1,2.8-2.1,4V13c0.7-0.7,1.3-1.7,1.6-2.7c-0.5,0.6-1,1.1-1.6,1.6
	c-0.1,0-0.1,0.1-0.2,0.2c-0.1-0.1-0.2-0.2-0.2-0.3c0.1,0,0.2-0.1,0.2-0.2c0.4-0.3,0.7-0.7,1.1-1c-0.3,0.2-0.6,0.4-0.9,0.6
	c-0.2,0.1-0.4,0.2-0.7,0.4c-0.1-0.1-0.3-0.1-0.4-0.1c0,0-0.1,0-0.2,0c2-1,3.4-2.4,3.8-4.1c0-0.3,0.1-0.6,0.1-0.9
	c0-3.4-4.3-6.2-9.6-6.2c-5.3,0-9.6,2.8-9.7,6.2c0,0.3,0,0.6,0.1,0.9c0.7,3,4.7,5.4,9.6,5.4c1.9,0,3.8-0.4,5.3-1
	c-0.2,0.1-0.3,0.3-0.3,0.5c-1.6,0.6-3.3,0.9-4.9,0.9c-2.5,0-4.9-0.6-7-1.9c-0.3-0.2-0.6-0.4-0.9-0.6c0.3,0.4,0.7,0.7,1.1,1
	C5.1,13.2,7.5,14,10,14c1.7,0,3.4-0.4,4.9-1.1v0.4c-1.5,0.7-3.2,1.1-4.9,1.1c-2.6,0-5-0.8-7.1-2.4c-0.6-0.5-1.1-1-1.6-1.6
	c0.5,1.5,1.4,2.7,2.6,3.5c1.7,1.2,3.8,1.9,6,1.9c0.9,0,1.8-0.1,2.7-0.3c0,0.1,0,0.2,0.1,0.4C11.9,16,11,16.1,10,16.1
	c-2.2,0-4.3-0.6-6.2-1.9c-1.7-1.2-2.8-2.9-3-4.7C0.5,9,0.3,8.3,0.1,7.6C0,7.2,0,6.9,0,6.6V6.5c0-1.8,1.1-3.4,3-4.6
	c2.1-1.3,4.6-2,7-1.9c2.5,0,4.9,0.6,7,1.9C18.9,3.1,20,4.7,20,6.5z M18.6,20h-5.5v-1.4c0-0.2,0.1-0.3,0.3-0.3c0.2,0,0.3,0.1,0.3,0.3
	v0v0.8H18v-0.8c0-0.2,0.1-0.3,0.3-0.3s0.3,0.1,0.3,0.3v0V20z M18.6,15c-0.2-0.2-0.5-0.2-0.8,0l-1.2,1.3v-3.6c0-0.4-0.3-0.7-0.7-0.7
	s-0.7,0.3-0.7,0.7v3.6L14,15c-0.2-0.2-0.5-0.3-0.8-0.1c-0.2,0.2-0.3,0.6-0.1,0.8c0,0,0,0,0.1,0.1l2.7,2.7l2.7-2.7
	C18.8,15.6,18.8,15.3,18.6,15z"/>
<path id="download-dafaconnect" d="M8.2,0C5.8,0,3.5,1.2,1.9,3.1V2.5C1.9,2.3,1.7,2,1.4,2S1,2.3,1,2.5l0,0v2.1
	c0,0.5,0.6,0.5,0.5,0.5h0L3.4,5c0.3,0,0.5-0.3,0.4-0.5l0,0C3.9,4.2,3.6,4,3.3,4l0,0l-1,0.1C4.7,0.7,9.3,0,12.5,2.4
	c1.9,1.4,3,3.7,3,6.1C15.6,8.8,15.8,9,16,9c0.2,0,0.4-0.2,0.4-0.5C16.5,3.8,12.8,0,8.2,0z M2.7,8.9c3.7-5.5,9.5-6.3,10.8-3
	c1.4,3.7-3.2,7.8-8.3,7.1c0,0-1.4-0.1-1.2-1c0.3-2.2,1.3-4.3,2.8-5.9l1.9-0.7c-1.5,1.7-2.6,3.9-3.1,6.2c4.3,0.8,7.5-3.1,6.9-5.2
	C12.3,5.6,8.8,2.6,2.7,8.9z M14.6,14C13,15.9,10.7,17,8.2,17C3.7,17,0,13.2,0,8.5C0,8.3,0.2,8,0.5,8S1,8.3,1,8.5
	c0,2.4,1.1,4.6,3,6.1c3.2,2.5,7.8,1.7,10.2-1.7l-1,0.1c-0.3,0-0.5-0.2-0.5-0.5c0-0.3,0.2-0.5,0.4-0.5l1.9-0.1c0.3,0,0.5,0.2,0.5,0.5
	v2.1c0,0,0,0.1,0,0.1c-0.3-0.2-0.6-0.2-0.9,0c0,0,0-0.1,0-0.2L14.6,14L14.6,14z M19.9,20h-5.3v-1.3c0-0.2,0.1-0.3,0.3-0.3
	s0.3,0.1,0.3,0.3v0.8h4.2v-0.8c0-0.2,0.1-0.3,0.3-0.3c0.1,0,0.2,0.1,0.3,0.3V20z M19.9,15.2c-0.2-0.2-0.5-0.2-0.7,0l0,0l-1.2,1.2
	v-3.5c0-0.4-0.3-0.7-0.6-0.7c-0.4,0-0.6,0.3-0.6,0.7v3.5l-1.2-1.2c-0.2-0.2-0.5-0.2-0.7,0s-0.2,0.5,0,0.8l2.6,2.6l2.6-2.6
	C20,15.7,20,15.4,19.9,15.2L19.9,15.2z"/>
<path id="download-poker" d="M9.6,2V3L9,2.8L9.6,2z M9.6,3.7c0,0,0,0.1,0.1,0.1c0,0,0.1,0,0.2,0s0.1,0,0.1-0.1V3.7L9.9,1.7
	c0,0,0-0.1-0.1-0.1c0,0-0.1-0.1-0.2-0.1c0,0-0.1,0-0.2,0s-0.1,0-0.1,0.1L8.2,3.2v0c0,0,0,0.1,0,0.2c0,0,0.1,0.1,0.2,0.1
	c0.1,0,0.1,0,0.2,0l0.2-0.3l0.7,0.2L9.6,3.7z M14.5,12.2L14,13v-0.9L14.5,12.2z M13.7,13.5c0,0,0.1,0.1,0.2,0.1c0,0,0.1,0,0.2,0
	c0,0,0.1,0,0.1-0.1l1.1-1.6v0c0,0,0-0.1,0-0.2c0,0-0.1-0.1-0.2-0.1c-0.1,0-0.1,0-0.2,0L14.6,12L14,11.8v-0.4c0,0,0-0.1-0.1-0.1
	c0,0-0.1,0-0.2,0c0,0-0.1,0-0.1,0.1v0l0.1,1.9C13.6,13.4,13.7,13.4,13.7,13.5z M10.1,5.6c0.2-0.1,0.3-0.1,0.5-0.1
	c0.4,0,0.7,0.2,0.9,0.5l0.3,0.5c0.1,0.1,0.3,0.2,0.4,0.1l0,0l0.6-0.3c0.2-0.1,0.3-0.1,0.5-0.1c0.6,0,1.1,0.4,1.1,0.9
	c0,0.3-0.2,0.7-0.5,0.8l-2.6,1.4L9.7,6.8C9.4,6.4,9.6,5.8,10.1,5.6L10.1,5.6z M10.8,9.6c0.1,0.1,0.2,0.2,0.4,0.2c0.1,0,0.2,0,0.2,0
	l2.7-1.4c0.8-0.4,1-1.3,0.6-2c-0.4-0.7-1.4-0.9-2.2-0.5L12.2,6L12,5.7c-0.3-0.5-0.8-0.7-1.4-0.7C10.3,4.9,10,5,9.8,5.1
	c-0.8,0.4-1,1.3-0.6,2L10.8,9.6z M13.7,14.9c0.4-0.3,1-0.3,1.4,0.1l0.1,0.1c0.2-0.1,0.4-0.2,0.5-0.3v-1.5l-0.3,0.9
	c-0.1,0.3-0.5,0.5-0.8,0.4l-9.3-2.3c-0.3-0.1-0.6-0.4-0.5-0.7l2.5-8.5L8,1c0.1-0.3,0.5-0.5,0.8-0.4l9.3,2.2c0.2,0,0.3,0.2,0.4,0.3
	c0.1,0.2,0.1,0.3,0.1,0.5l-1.8,6.2c0,0.2,0,0.3,0.2,0.3c0.2,0,0.3,0,0.3-0.2l1.8-6.2c0.1-0.3,0-0.6-0.1-0.8
	c-0.2-0.3-0.4-0.4-0.7-0.5L9,0C8.7,0,8.4,0,8.1,0.2C7.8,0.3,7.6,0.5,7.5,0.8l-0.6,2L5.2,3.2C5.1,3.2,5,3.4,5,3.5
	c0,0.1,0.1,0.2,0.3,0.2h0.1l1.4-0.3L6.5,4.3L2.9,5.2c-0.1,0-0.1,0.1-0.2,0.1s0,0.1,0,0.2c0.1,0.4-0.1,0.8-0.6,0.9
	C2.1,6.3,2,6.4,2,6.5c0,0.1,0,0.1,0,0.2l2.3,7.8c0,0.1,0.1,0.1,0.1,0.2c0.1,0,0.1,0,0.2,0c0.4-0.1,0.9,0.1,1,0.5
	c0,0.1,0.1,0.2,0.3,0.2h0.1l4.9-1.2l1.7,0.4l-8.1,1.9c-0.3,0.1-0.7-0.1-0.8-0.4l0,0L0.6,5.5C0.5,5.2,0.7,4.8,1.1,4.8l0,0L4.4,4
	c0.2,0,0.3-0.2,0.2-0.3c0-0.1-0.2-0.2-0.4-0.2L0.9,4.3C0.3,4.4-0.1,5,0,5.6l3.2,10.6C3.3,16.7,3.8,17,4.4,17c0.1,0,0.2,0,0.3,0
	L13.7,14.9L13.7,14.9z M6,14.8c-0.3-0.4-0.7-0.7-1.3-0.7L2.5,6.8c0.3-0.1,0.4-0.3,0.6-0.5c0.1-0.2,0.2-0.5,0.2-0.7l3-0.7l-2,6.6
	c-0.2,0.6,0.2,1.2,0.9,1.3l4.6,1.1L6,14.8z M16.9,10.5c-0.1,0-0.3,0-0.3,0.2v0l-0.5,1.5c0.2-0.2,0.4-0.3,0.7-0.3l0.3-1.1
	C17.1,10.7,17,10.5,16.9,10.5z M19.8,20h-6.1v-1.3c0-0.2,0.1-0.3,0.3-0.3s0.3,0.1,0.3,0.3v0.8h4.7v-0.8c0-0.2,0.1-0.3,0.3-0.3
	c0.2,0,0.3,0.1,0.3,0.3c0,0,0,0,0,0.1V20z M19.8,15.2c-0.2-0.2-0.6-0.2-0.9,0l0,0l-1.4,1.2v-3.5c0-0.4-0.3-0.7-0.7-0.7
	c-0.4,0-0.7,0.3-0.7,0.7v3.5l-1.4-1.2c-0.3-0.2-0.6-0.2-0.9,0c-0.3,0.2-0.3,0.5,0,0.8l2.9,2.7l2.9-2.7
	C20.1,15.7,20.1,15.4,19.8,15.2L19.8,15.2z"/>
</svg>
