<svg viewBox="0 0 96.801 96.796">
    <path class="fill-yellow" d="M24.547 68.523c-.242 0-7.228-.484-6.22-5.156 1.436-11.966 6.429-23.09 14.21-31.672l9.89-3.655c-7.941 9.418-13.503 20.921-16.145 33.389 21.876 4.403 38.673-16.872 35.158-28.15-.846-4.67-18.489-20.574-49.932 13.525C30.48 17.292 60.594 12.931 67.015 30.372c7.062 20.045-16.514 42.244-42.468 38.151zM63.74 80.24h3.471l1.655-1.54-4.034-4.406c-8.58 8.335-20.332 11.624-31.524 8.811l1.532-3.171-6.538.394-6.702.263 3.553 6.212 3.553 6.212 2.017-4.143c9.421 2.745 19.433 1.764 28.257-2.777v-.394c-.022-2.903 2.104-5.282 4.763-5.328v-.133h-.003zM82.592 45C82.558 20.11 64.045-.032 41.237 0 18.432.036-.032 20.239 0 45.126c.013 10.082 3.125 19.872 8.841 27.803l.443-4.801 4.033 1.273C1.057 52.566 3.626 28.073 19.05 14.689 34.478 1.307 56.926 4.106 69.188 20.941c5.021 6.89 7.752 15.431 7.752 24.236v.968h5.61c.041-.177.041-.484.041-.839V45h.001zm-2.058 38.721l12.107-13.212a1.036 1.036 0 0 0-.043-1.373.857.857 0 0 0-.602-.258h-5.529c-.493 0-.889-.432-.889-.968V51.612c0-.537-.397-.969-.887-.969h-9.566c-.493 0-.889.432-.889.969v16.649c0 .538-.4.968-.886.968h-5.489c-.493 0-.889.437-.884.973 0 .247.083.479.237.656l12.108 13.216a.832.832 0 0 0 1.21-.045v-.308h.002zm15.5.701h-4.037c-.493 0-.886.436-.886.968v4.405c0 .538-.4.968-.89.968H69.435c-.491 0-.889-.43-.889-.968V85.39c0-.532-.394-.968-.887-.968h-4.037c-.491 0-.889.436-.889.968v10.438c0 .538.4.968.889.968h32.292c.491 0 .887-.43.887-.968V85.656c.005-.488-.321-.902-.767-.968v-.266z"></path>
</svg>