<svg viewBox="0 0 129.449 129.452">
    <path class="fill-yellow" d="M84.424 98.665a7.227 7.227 0 0 1-1.216-1.699c-21.002 16.53-50.818 12.109-66.606-9.884C.815 65.087 5.038 33.856 26.04 17.32 47.039.788 76.863 5.211 92.65 27.206c6.203 8.636 9.551 19.153 9.544 29.963 0 1.612-.079 3.198-.218 4.768h6.741c.124-1.576.208-3.156.208-4.768C108.999 25.674 84.672.075 54.596 0 24.515-.076.075 25.399 0 56.898-.076 88.4 24.256 113.992 54.333 114.07c12.103.031 23.861-4.155 33.436-11.906l-3.345-3.499zM66.182 53.668c-1.165.345-2.076 1.299-2.406 2.524a34.607 34.607 0 0 0-7.55-.836 25.166 25.166 0 0 0-1.128-7.762c1.882-.324 3.156-2.179 2.847-4.152-.307-1.975-2.082-3.312-3.963-2.988-1.882.323-3.162 2.184-2.854 4.152.238 1.532 1.385 2.735 2.848 2.988a25.985 25.985 0 0 0-1.122 7.806 22.6 22.6 0 0 0-7.453 1.17c-.319-1.969-2.099-3.301-3.976-2.973-1.883.334-3.151 2.195-2.832 4.164.317 1.969 2.093 3.301 3.975 2.967 1.456-.254 2.589-1.445 2.837-2.967a22.276 22.276 0 0 0 7.443 1.181 39.301 39.301 0 0 0 .772 7.896c-1.84.54-2.908 2.536-2.391 4.462.519 1.923 2.429 3.042 4.261 2.501 1.834-.539 2.908-2.534 2.391-4.461-.33-1.213-1.235-2.156-2.391-2.497.534-2.584.794-5.221.788-7.865a34.28 34.28 0 0 0 7.524-.819c.523 1.931 2.438 3.053 4.278 2.509 1.839-.546 2.913-2.553 2.389-4.482-.529-1.935-2.443-3.057-4.287-2.518zM97.96 68.976v22.065c0 .708-.544 1.285-1.222 1.285h-7.57c-.674-.006-1.228.572-1.228 1.276 0 .342.13.671.36.907l16.7 17.559a1.19 1.19 0 0 0 1.73.004v-.004l16.706-17.489a1.328 1.328 0 0 0 0-1.812 1.195 1.195 0 0 0-.867-.378h-7.612c-.672 0-1.222-.571-1.222-1.285V68.965c0-.712-.551-1.284-1.229-1.284H99.191c-.674 0-1.225.571-1.225 1.284h-.006v.011zm30.268 44.006h-5.41c-.675 0-1.226.574-1.226 1.282v5.673c0 .705-.55 1.283-1.225 1.283H91.371c-.674 0-1.225-.572-1.225-1.283v-5.673c0-.708-.55-1.282-1.225-1.282h-5.419c-.674 0-1.225.574-1.225 1.282v13.902c0 .704.551 1.285 1.225 1.285h44.726c.671 0 1.222-.574 1.222-1.285v-13.902c0-.702-.538-1.276-1.213-1.282h-.009zM91.857 57.045c0 21.551-16.688 39.031-37.272 39.031-20.582 0-37.265-17.48-37.265-39.031 0-21.537 16.661-39.002 37.227-39.029 20.577-.021 37.28 17.427 37.311 38.986l-.001.043zM59.828 32.768a22.96 22.96 0 0 1 7.4 3.215l3.62-6.009a29.944 29.944 0 0 0-9.52-4.131l-1.5 6.925zm-21.57-2.778l3.602 6.008a23.07 23.07 0 0 1 7.4-3.209l-1.499-6.947a29.402 29.402 0 0 0-9.503 4.148zm-3.841 40.335a25.095 25.095 0 0 1-3.068-7.751l-6.64 1.56a32.993 32.993 0 0 0 3.942 9.969l5.766-3.778zm.125-26.538L28.776 40a32.675 32.675 0 0 0-3.948 9.972l6.591 1.559a25.015 25.015 0 0 1 3.123-7.744zM49.25 81.333a23.427 23.427 0 0 1-7.405-3.257l-3.604 6.051a29.47 29.47 0 0 0 9.51 4.122l1.499-6.916zm21.586 2.779l-3.619-6.036a23.194 23.194 0 0 1-7.405 3.229l1.499 6.932a29.924 29.924 0 0 0 9.525-4.125zm2.228-27.067c0-10.663-8.259-19.305-18.436-19.305-10.178 0-18.436 8.642-18.436 19.305 0 10.62 8.199 19.25 18.337 19.304h.071c10.19.003 18.453-8.636 18.464-19.304zm1.598-13.258a25.535 25.535 0 0 1 3.063 7.756l6.629-1.584a32.65 32.65 0 0 0-3.95-9.958l-5.742 3.786zm9.692 20.346l-6.629-1.555a25.78 25.78 0 0 1-3.063 7.75l5.743 3.777a32.671 32.671 0 0 0 3.949-9.972z"></path>
</svg>