<svg id="download-icons" viewBox="0 0 20 20">
<path id="download-owsports" d="M18.9,6.9c0-0.1-3.1-8.3-12.1-6.2C5,1.1-0.5,3.8,0,11.1c0.1,4.7,5.6,10.7,12.9,8.4
	c7.8-2.9,6.1-10.2,6.1-10.2s0.7,6-4.6,8.7c4.2-2.8,4.7-6.5,4-9.8c0.2,2.7-0.8,3.9-0.8,3.9s-0.2,3.5-5.1,5.6
	c-2.2,0.8-4.7,0.5-6.3-0.4C0.2,14.1,2,7.8,2,7.8s1-5.1,6.6-6.5C13.2,0.4,17.4,3.9,18.9,6.9z M3.5,2.2c0,0,4.7-3.8,10.7-1
	c0.6,0.4,4.1,2,5.8,8c0,0-0.8-5.6-5.7-8.3C12.6,0.1,7.5-1.1,3.5,2.2z M4.3,6.7C5.8,4.3,8.2,4,8.8,5.4c0.6,1.6-1.3,3.4-3.4,3
	c0,0-0.6,0-0.5-0.4C5,6.5,6,5.5,6,5.5l0.8-0.3c0,0-0.9,0.9-1.3,2.7c1.8,0.3,3.1-1.3,2.8-2.2C8.3,5.2,6.8,4,4.3,6.7z M12.3,7.9
	L9.8,7.3c-0.2-0.1-0.5,0-0.7,0.2C8.9,7.8,7.4,9.4,7.4,9.4S7.1,9.6,7.2,9.9c0.1,0.4,0.6,2.7,0.6,2.7s0,0.4,0.4,0.5
	c0.4,0.1,2.5,0.6,2.5,0.6s0.2,0.1,0.5-0.2s1.8-2,1.8-2s0.3-0.2,0.1-0.7s-0.6-2.5-0.6-2.5S12.6,8,12.3,7.9z M6,9.6L4.6,9.1
	c0,0-0.4-0.2-0.6,0.1s-1.1,1.4-1.1,1.4s-0.2,0.2-0.1,0.6c0.1,0.4,0.6,2.6,0.6,2.6s0,0.4,0.4,0.5c0.5,0.2,1.5,0.6,1.5,0.6
	s0.4,0.2,0.6-0.1c0.2-0.3,1-1.4,1-1.4C7,13.2,7.1,13,7.1,12.9c-0.1-0.3-0.6-2.8-0.6-2.8S6.4,9.7,6,9.6z M13.3,3l-2.4-0.6
	c0,0-0.2-0.1-0.5,0.1C10.1,2.7,9,3.8,9,3.8S8.7,4,8.9,4.4C9,4.8,9.4,6,9.4,6s0.1,0.3,0.5,0.4C10.2,6.5,12.3,7,12.3,7S12.7,7.2,13,7
	c0.4-0.3,1.2-1.1,1.2-1.1s0.3-0.2,0.2-0.6c-0.1-0.4-0.6-1.7-0.6-1.7C13.8,3.3,13.6,3.1,13.3,3z M9.6,1.5c0,0-1.4,0.1-2.7,0.7
	c-1.3,0.6-2,1.5-2,1.5s-0.2,0.2,0,0.4C5,4.3,5.1,4.4,5.1,4.4s0.1,0.1,0.3,0c0.3-0.1,2.8-0.8,2.8-0.8L9.7,2c0.1-0.1,0.1-0.2,0.1-0.3
	C9.8,1.6,9.7,1.5,9.6,1.5z M4.6,5.2c0,0,0.1-0.2,0-0.3C4.5,4.8,4.3,4.6,4.3,4.6S4.2,4.4,3.9,4.7c-0.1,0.2-1,1.2-1.5,2.5
	C2,8.3,2,9.6,2,9.6s0,0.3,0.1,0.3c0.2,0.1,0.3,0,0.3-0.1c0-0.1,1.4-1.7,1.4-1.7L4.6,5.2z"/>
<path id="download-dafasports" d="M6.6,13.4c5.6,1.1,9.8-4.1,8.9-6.9c-0.2-1.1-4.7-5-12.7,3.3c4.8-7.2,12.4-8.3,14.1-4
	c1.8,4.9-4.2,10.3-10.8,9.4c0,0-1.2-0.2-1.3-0.3c-0.2-0.1,0.5-0.3,0.6-0.5c0.2-0.2,0.5-0.6,0.5-0.6l0.3-0.3L6.6,13.4L6.6,13.4z
	 M11.1,8.8C11.1,8.8,11.1,8.8,11.1,8.8c0-0.1,0-0.1,0-0.1c0-0.1,0-0.1,0-0.2c0-0.1,0-0.1-0.1-0.1c0-0.1,0-0.1,0-0.2c0,0,0-0.1,0-0.1
	c0,0,0,0,0,0l0,0c0,0,0,0,0,0c0-0.1,0-0.2,0-0.3c0-0.2-0.1-0.3-0.1-0.5c0-0.1-0.1-0.2-0.2-0.3c0,0,0,0,0,0c0,0-0.1-0.1-0.1-0.1
	c0,0-0.1,0-0.1,0c-0.1,0-0.1,0-0.2,0C10.1,6.9,10,7,9.9,7c0,0,0,0,0,0c0-0.1,0-0.1-0.1-0.2c0-0.1,0-0.1-0.1-0.2c0-0.1,0-0.2,0-0.2
	c0.1,0,0-0.1,0-0.2s0-0.1-0.1-0.2c0-0.1-0.1-0.3-0.2-0.4C9.5,5.6,9.4,5.6,9.3,5.5c-0.1,0-0.1-0.1-0.2-0.1c0,0,0,0,0,0c0,0,0,0,0,0
	c0,0,0,0.1,0,0.2c0,0,0,0,0,0c0,0,0,0,0,0c0,0,0,0,0,0c0,0,0,0,0,0c0,0.1,0,0.1-0.1,0.2c0,0.1-0.1,0.1-0.1,0.1c0,0.1,0,0.1,0,0.2
	c0,0.1,0,0.1,0,0.2c0,0,0,0.1,0,0.2c0,0,0,0.1,0,0.1c0,0,0,0,0.1,0c0,0,0,0.1,0,0.1c0,0,0,0.1,0.1,0.1c0,0.1,0,0.1,0,0.2
	c0,0,0,0.1,0,0.1c-0.1,0-0.2,0-0.2,0.1C8.7,7.2,8.6,7.2,8.4,7.3C8.3,7.4,8.2,7.6,8,7.7c0,0,0,0,0,0v0c0,0,0,0.1-0.1,0.1
	c0,0-0.1,0.1-0.1,0.1C7.8,8,7.7,8,7.6,8C7.5,8,7.4,8,7.2,8C7.1,8,7,8,6.9,8c0,0-0.1,0-0.1-0.1c0,0-0.1,0-0.1-0.1c0,0,0,0-0.1,0
	c0,0-0.1,0-0.1-0.1c0,0,0,0-0.1,0c0,0,0,0,0,0c0,0,0,0,0,0c0,0-0.1,0,0,0c0,0,0,0,0,0c0,0,0,0,0,0.1c0,0,0,0,0,0c0,0,0,0.1,0,0.1
	c0,0,0.1,0,0.1,0.1C6.4,8,6.4,8,6.5,8c0,0,0,0,0,0c0,0,0,0,0,0c0,0,0,0,0,0s0,0,0,0c0,0-0.1,0-0.1,0c0,0-0.1,0-0.1,0
	c0,0,0,0.1,0,0.1c0,0,0,0,0.1,0c0,0,0.1,0,0.1,0c0.1,0,0.1,0,0.1,0c0.1,0,0.1,0,0.2,0c0,0,0,0,0.1,0c0.1,0,0.3,0.1,0.4,0.1
	c0.1,0,0.2,0.1,0.3,0.1c0.1,0,0.1,0,0.2,0c0,0,0,0,0,0c0,0,0,0,0.1,0c0.1,0,0.3-0.1,0.4-0.2c0,0,0,0,0,0c0,0,0,0,0,0c0,0,0,0,0,0
	c0.1,0,0.1-0.1,0.2-0.1c0,0.1,0,0.1,0,0.2c0,0.2,0,0.3-0.1,0.5c0,0,0,0,0,0.1c0,0,0,0-0.1,0C8.2,8.9,8.2,8.9,8.1,9c0,0,0,0,0,0
	C8,9,7.9,9,7.7,9C7.7,9,7.6,9,7.5,9c0,0-0.1,0-0.1,0C7.4,9,7.3,9,7.2,9C7,9,6.8,9.1,6.7,9.1c-0.1,0-0.2,0.1-0.3,0.1c0,0-0.1,0-0.1,0
	L6.1,9.4c0,0-0.1,0-0.1,0.1c0,0-0.1,0.1-0.1,0.1c0,0.1-0.1,0.1-0.1,0.2L5.6,10c0,0.1-0.1,0.1-0.1,0.2c0,0.1,0,0.3,0.1,0.3
	c0.1,0,0.1,0,0.2,0c0.1,0,0.1,0,0.2,0.1c0.1,0,0.2,0.1,0.3,0.1c0.1,0,0.2,0,0.3-0.1c0.1,0,0.1,0,0.2-0.1c0,0,0,0,0,0
	c0.1,0,0.2,0.1,0.2,0.2C6.9,10.8,7,10.9,7,11c0,0,0,0,0,0c0,0,0,0,0.1,0c0,0,0,0,0,0c0.1,0,0.1-0.2,0.1-0.3c0-0.1,0-0.3-0.1-0.4
	c0.1,0,0.2,0,0.2,0c0,0,0,0,0,0c0.1,0,0.2-0.1,0.2-0.1c0.1,0,0.2-0.1,0.2-0.1c-0.1,0.1-0.2,0.1-0.2,0.2c-0.1,0.1-0.1,0.1-0.2,0.2
	c0,0.1-0.1,0.1-0.1,0.2c0,0,0,0,0,0c0,0,0,0.1,0,0.1c0,0-0.1,0.1-0.1,0.1c-0.1,0.1-0.1,0.3-0.2,0.4c0,0.1-0.1,0.1-0.1,0.2
	c-0.1,0.1-0.1,0.2-0.1,0.3l0,0c-0.1,0.1-0.1,0.1-0.2,0.2c-0.1,0.1-0.2,0.2-0.3,0.4c-0.1,0.1-0.2,0.3-0.2,0.4C6.1,13,6,13.2,6,13.3
	c0,0.1-0.1,0.1-0.1,0.2c-0.1,0.1-0.1,0.3-0.2,0.4c-0.1,0.1-0.2,0.2-0.2,0.4c0,0,0,0,0,0h0.5c0-0.1,0.1-0.1,0.1-0.1
	c0.2-0.3,0.4-0.5,0.7-0.6c0,0,0,0,0.1,0c0,0,0.1,0,0.1-0.1l0,0c0,0,0-0.1,0.1-0.1C7,13.3,7,13.2,7,13.1c0.1-0.2,0.2-0.4,0.3-0.6
	c0,0,0,0,0,0c0.2-0.1,0.3-0.3,0.4-0.5c0,0,0.1-0.1,0.1-0.1c0.1,0,0.1-0.1,0.2-0.1c0.1,0,0.2,0,0.3,0c0,0,0,0,0,0c0,0,0,0,0,0
	c0.1-0.1,0.2-0.2,0.3-0.3c0.1-0.1,0.2-0.3,0.3-0.4C9,10.9,9,10.8,9.1,10.8c0,0,0.1-0.1,0.1-0.1c0,0,0,0,0,0c0,0,0,0,0,0l0-0.1
	c0-0.1,0-0.1,0.1-0.2c0-0.1,0.1-0.2,0.1-0.3c0,0,0,0,0,0c0.1,0,0.2-0.1,0.2-0.2c0,0,0,0,0-0.1c0,0,0,0,0,0v0
	c0.1-0.1,0.1-0.1,0.2-0.2C10,9.4,10.1,9.2,10.2,9c0.1-0.2,0.2-0.4,0.2-0.6c0-0.1,0.1-0.3,0.1-0.4c0,0,0,0,0,0.1c0,0,0,0.1,0,0.1
	c0,0,0,0,0,0c0,0,0,0,0,0c0,0,0,0,0,0l0,0.1c0,0,0,0.1,0,0.1c0,0,0,0.1-0.1,0.2c0,0,0,0.1,0,0.1c0,0-0.1,0-0.1,0.1
	c0,0,0,0.1-0.1,0.1c0,0,0,0.1-0.1,0.1c0,0,0,0,0,0C10.3,9,10.4,9,10.4,9c0.1,0,0.1-0.1,0.1-0.1c0,0,0,0,0.1,0c0,0,0,0,0,0
	c0,0,0,0,0,0C10.5,9,10.5,9,10.4,9.1c0,0-0.1,0.1,0,0.1c0,0,0.1,0,0.1,0c0,0,0,0,0,0c0.1,0,0.1-0.1,0.1-0.2c0,0,0-0.1,0.1-0.1
	c0,0,0,0,0,0c0,0,0,0,0,0.1c-0.1,0.1-0.1,0.1-0.2,0.2c0,0,0,0,0,0c0,0,0,0-0.1,0.1c0,0,0,0,0,0c0,0,0,0,0,0c0,0,0,0,0,0
	c0,0,0,0,0.1,0c0,0,0,0.1,0.1,0.1c0,0,0,0,0,0c0,0,0.1,0,0.1,0c0.1,0,0.1,0,0.2-0.1c0,0,0.1,0,0.1-0.1c0,0,0.1-0.1,0.1-0.1
	C11.2,9.1,11.1,8.9,11.1,8.8L11.1,8.8z M13.9,18.3c-0.1-0.1-0.1-0.3-0.2-0.4c0-0.1-0.1-0.3-0.1-0.5c0-0.1,0-0.2,0-0.4c0,0,0,0,0-0.1
	c0-0.2,0-0.3,0-0.5c-0.3,0.2-0.7,0.3-1.1,0.5c-2.2,0.7-4.7,0.5-6.3-0.4C0.2,13.6,2,7.6,2,7.6s1-4.9,6.6-6.3
	c4.6-0.9,8.8,2.4,10.3,5.3c0,0-3.1-8-12.1-6C5,1.1-0.5,3.7,0,10.8c0.1,4.6,5.6,10.3,12.9,8.1C13.3,18.7,13.6,18.6,13.9,18.3
	C14,18.4,13.9,18.4,13.9,18.3L13.9,18.3z M18.3,14.2C18.4,14.3,18.4,14.3,18.3,14.2c1.4-2.6,0.8-5.3,0.8-5.3s0.3,2.6-1,5.1
	C18.1,14.1,18.2,14.2,18.3,14.2z M14.3,0.9c-1.7-0.9-6.8-2-10.8,1.2c0,0,4.7-3.7,10.7-1c0.6,0.4,4.1,1.9,5.8,7.7
	C20,8.9,19.2,3.5,14.3,0.9L14.3,0.9z M17.7,11.7c0,0-0.1,0.9-0.8,2.1c0.1,0,0.1,0,0.2,0c0,0,0.1,0,0.1,0c0.1,0,0.2,0,0.3,0.1
	c0.1,0,0.3,0.1,0.4,0.1c1.1-2,1.1-4.1,0.7-6.1C18.8,10.6,17.7,11.7,17.7,11.7L17.7,11.7z M18.8,14.9c0,0-0.1-0.1-0.1-0.1
	c-0.1-0.1-0.2-0.2-0.5-0.4c-0.2-0.1-0.5-0.3-0.8-0.4c-0.1,0-0.2,0-0.3-0.1c0,0-0.1,0-0.1,0c-0.2,0-0.5,0-0.8,0
	c-0.2,0-0.4,0.1-0.6,0.2c-0.1,0-0.2,0.1-0.3,0.1c0,0,0,0,0,0c-0.1,0.1-0.2,0.1-0.3,0.2c-0.1,0-0.1,0.1-0.1,0.1l-0.1,0.1l0,0
	c0,0,0,0,0,0c0,0,0,0-0.1,0.1c0,0,0,0-0.1,0.1c0,0-0.1,0.1-0.1,0.1c0,0.1-0.1,0.1-0.1,0.2c0,0,0,0,0,0.1c0,0,0,0.1-0.1,0.1
	c0,0.1-0.1,0.1-0.1,0.2c0,0,0,0.1,0,0.1l0,0l0,0c-0.2,0.4-0.3,0.9-0.2,1.3c0,0,0,0,0,0.1c0,0.1,0,0.2,0,0.3c0,0.1,0.1,0.3,0.1,0.4
	c0,0.1,0.1,0.3,0.2,0.4c0,0.1,0.1,0.1,0.1,0.2c0,0,0,0,0,0c0,0,0.1,0.1,0.1,0.1c0.1,0.1,0.2,0.2,0.3,0.4c0.1,0.1,0.2,0.2,0.3,0.3
	c0.1,0.1,0.2,0.2,0.3,0.3c0,0,0.1,0.1,0.1,0.1c0,0,0,0,0.1,0c0.1,0,0.1,0.1,0.2,0.1c0.1,0.1,0.3,0.1,0.4,0.1c0.5,0.1,1,0.1,1.4,0
	c0,0,0.1,0,0.1,0c0,0,0.1,0,0.1,0l0,0l0,0c0,0,0.1,0,0.1,0c0.1,0,0.1-0.1,0.2-0.1c0.1-0.1,0.2-0.1,0.3-0.2c0.1,0,0.1-0.1,0.2-0.1
	c0,0,0.1,0,0.1-0.1l0.1-0.1l0,0l0,0c0,0,0,0,0.1-0.1c0,0,0.1-0.1,0.1-0.1c0,0,0,0,0,0c0,0,0,0,0.1-0.1c0.1-0.2,0.2-0.3,0.3-0.5
	c0.1-0.2,0.2-0.4,0.2-0.7c0.1-0.3,0.1-0.6,0.1-0.9c0,0,0,0,0-0.1c0-0.1,0-0.2,0-0.2c-0.1-0.4-0.2-0.7-0.3-0.9
	c-0.1-0.2-0.2-0.3-0.2-0.4c0,0,0-0.1-0.1-0.1c0,0,0,0,0,0C18.9,15,18.9,15,18.8,14.9C18.9,14.9,18.8,14.9,18.8,14.9
	C18.8,14.9,18.8,14.9,18.8,14.9L18.8,14.9z M18.9,17.1C18.9,17.1,18.9,17.1,18.9,17.1c0,0.2-0.1,0.3-0.1,0.4
	c-0.1,0.2-0.1,0.4-0.2,0.6c0,0,0,0,0,0c0,0,0,0,0,0c-0.3,0.1-0.6,0.2-0.8,0.4c0,0,0,0,0,0c0,0,0,0,0,0c-0.3-0.3-0.6-0.6-0.8-0.9
	c0,0,0,0,0,0c0,0,0,0,0,0c0.1-0.2,0.1-0.4,0.2-0.6c0.1-0.2,0.2-0.5,0.3-0.7c0,0,0,0,0-0.1c0,0,0,0,0,0c0.3-0.1,0.6-0.1,0.9-0.1v0
	c0,0,0,0,0,0C18.3,16.5,18.5,16.9,18.9,17.1L18.9,17.1z M17,14.1c0.1,0,0.2,0,0.2,0c0.1,0.1,0.1,0.1,0.2,0.2
	c0.1,0.1,0.2,0.2,0.3,0.4c0.1,0.2,0.4,0.5,0.4,0.5c0,0-0.1,0.8-0.1,0.9c-0.3,0-0.6,0-0.9,0.1c0,0,0,0,0,0c0,0,0,0,0,0
	c-0.3-0.4-1.1-0.8-1.1-0.8c0-0.1,0-0.2,0.1-0.3c0-0.2,0.1-0.3,0.1-0.4C16.5,14.5,16.8,14.3,17,14.1L17,14.1z M14.3,15.3
	c0.1-0.1,0.1-0.2,0.2-0.2c0,0,0.1-0.1,0.1-0.1c0,0,0,0,0.1-0.1s0,0,0.1-0.1l0,0l0,0l0.1-0.1c0,0,0.1-0.1,0.1-0.1
	c0.1-0.1,0.2-0.2,0.4-0.2c0.2,0.1,0.4,0.2,0.6,0.3c0,0,0,0,0.1,0c0,0,0,0,0,0c0,0,0,0,0,0c0,0.2,0,0.3-0.1,0.5c0,0.1,0,0.1,0,0.2
	c0,0,0,0,0,0c0,0,0,0,0,0c0,0,0,0-0.1,0c-0.4,0.2-0.8,0.4-1,0.8c0,0,0,0,0,0c0,0,0,0,0,0c0,0-0.1,0-0.1,0c-0.1,0-0.1,0-0.2,0
	c0,0,0,0,0,0v0c0-0.2,0-0.3-0.1-0.5C14.4,15.6,14.4,15.5,14.3,15.3L14.3,15.3z M14.1,18.2C14.1,18.1,14,18,14,17.8
	c0-0.1-0.1-0.3-0.1-0.4c0-0.1,0-0.3,0-0.4c0.1-0.1,0.2-0.3,0.3-0.4c0.1-0.1,0.3-0.3,0.3-0.4c0.1,0,0.2,0,0.2,0c0,0,0.2,0,0.2,0
	c0.1,0.5,0.2,1,0.5,1.4c0,0,0,0,0,0c0,0,0,0,0,0c-0.1,0.3-0.2,0.5-0.2,0.8c0,0,0,0,0,0c0,0,0,0-0.1,0c-0.3,0-0.5,0-0.8,0
	C14.2,18.4,14.2,18.3,14.1,18.2L14.1,18.2z M16.8,19.9c-0.1,0-0.3,0-0.4,0c-0.1,0-0.3,0-0.4-0.1c-0.1,0-0.3-0.1-0.4-0.1
	c0,0,0,0-0.1,0c0.1,0,0.3-0.1,0.4-0.2c0.1,0,0.8,0.1,1.1,0.1c0,0,0,0,0.1,0c0,0,0.1,0.2,0.2,0.2C17.1,19.9,17,19.9,16.8,19.9
	L16.8,19.9z M17,19.6c-0.2,0-0.3,0-0.5,0c-0.2,0-0.4,0-0.5-0.1c0,0,0,0-0.1,0v0c-0.2-0.3-0.4-0.7-0.7-0.9l-0.1,0c0,0,0,0,0,0
	c0.1-0.2,0.2-0.7,0.3-0.8c0.4,0.1,0.9,0,1.3,0c0,0,0.6,0.7,0.9,0.9c0,0,0,0,0,0c0,0,0,0,0,0c0,0.2-0.1,0.3-0.2,0.5
	C17.3,19.2,17.2,19.4,17,19.6L17,19.6C17,19.6,17,19.6,17,19.6L17,19.6z M19.4,17.7c0,0.2-0.1,0.4-0.2,0.6c-0.1,0.1-0.2,0.3-0.3,0.4
	c-0.1-0.2-0.2-0.4-0.4-0.5c0,0,0,0,0,0c0,0,0,0,0,0c0.1-0.2,0.1-0.3,0.2-0.5c0.1-0.1,0.1-0.3,0.2-0.5c0.1,0,0.4-0.2,0.5-0.3
	C19.5,17.1,19.5,17.4,19.4,17.7L19.4,17.7z M18.8,15C18.8,15,18.8,15.1,18.8,15c-0.1,0-0.3,0-0.5,0.1c0,0-0.3-0.4-0.4-0.5
	c-0.1-0.2-0.3-0.3-0.4-0.5c0.3,0.1,0.5,0.2,0.7,0.3c0.2,0.1,0.3,0.3,0.4,0.4C18.7,14.9,18.7,14.9,18.8,15C18.7,15,18.7,15,18.8,15
	C18.7,15,18.8,15,18.8,15L18.8,15z"/>
<path id="download-skywind" d="M6.4,15.8c0,0-2.8,1.9-5.5-2.2c-1.3-2-1.4-5.8,0.7-8.9C3.6,1.8,7.7,0,7.7,0s-3.2,2.1-4,5.3
	c-0.5,2.1,0.7,5,1.8,5.6C6.3,11.5,9.7,13.5,6.4,15.8z M16.7,10.2c0,0,3.1,1.5,0.9,5.8c-1,2.1-4.3,4.2-8,4c-3.5-0.2-7.2-2.8-7.2-2.8
	s3.4,1.7,6.7,0.7c2-0.6,3.9-3.1,3.9-4.4C13,12.5,13,8.5,16.7,10.2z M6.7,4.1c0,0-0.3-3.4,4.6-3.7c2.4-0.2,5.8,1.6,7.5,4.9
	c1.6,3.1,1.2,7.6,1.2,7.6s-0.3-3.8-2.7-6.1c-1.5-1.5-4.7-1.8-5.8-1.2C10.6,6.1,7.1,8.1,6.7,4.1z"/>
<path id="download-mg" d="M10,0c5.5,0,10,4.5,10,10s-4.5,10-10,10S0,15.5,0,10S4.5,0,10,0z M1.5,15.7c0,0,1.8-2.8,3.2-5.1
	c1-1.7,1.7-3.2,1.7-3.2s-0.2,5,0.8,7.4c0.8,1.8,2.2,1.6,2.2,1.6s0.9,0,1.8-0.9c1.7-2,3.5-6.1,3.5-6.1s0.6,1.3,1.2,2.3
	c0.5,0.9,1.1,1.5,1.4,1.6c0.5,0.4,0.4-0.4,0.4-0.4s-0.6-0.5-1.1-1.9c-1.1-3.3-0.6-3.7-0.9-4.5c-0.2-0.4-0.4-0.4-0.6-0.4
	c-0.8-0.3-1.2,0.7-1.2,0.7s-1.6,3.4-3.2,6.2c-1,1.6-1.5,1.6-1.5,1.6s-0.8-1.2-0.9-5C8,6.4,8.4,3.3,8.4,3C8.2,2,7.6,2,7.1,2.2
	C6.7,2.4,6.5,2.8,6.5,2.8S5.6,4.6,4.3,6.8C2.4,10.1,0.3,13,0.3,13L1.5,15.7z"/>
<path id="download-casino" d="M13.043,15.244c-0.074-0.078-0.138-0.167-0.188-0.264
    c-3.245,2.555-7.852,1.871-10.291-1.526C0.125,10.056,0.778,5.23,4.023,2.676c3.244-2.554,7.852-1.871,10.292,1.527
    c0.959,1.334,1.476,2.959,1.475,4.629c0,0.249-0.012,0.494-0.033,0.737h1.041c0.02-0.244,0.032-0.488,0.032-0.737
    C16.84,3.967,13.082,0.012,8.435,0S0.011,3.924,0,8.791c-0.012,4.868,3.747,8.821,8.394,8.833c1.87,0.006,3.687-0.642,5.167-1.839
    L13.043,15.244z M10.225,8.292c-0.18,0.053-0.321,0.201-0.372,0.39C9.47,8.596,9.079,8.553,8.687,8.552
    c0.005-0.406-0.054-0.811-0.174-1.199C8.803,7.303,9,7.017,8.952,6.712C8.905,6.407,8.63,6.2,8.34,6.25
    C8.049,6.3,7.852,6.587,7.899,6.892c0.037,0.237,0.214,0.422,0.44,0.461C8.22,7.744,8.162,8.151,8.166,8.559
    C7.774,8.555,7.385,8.616,7.014,8.74C6.965,8.436,6.69,8.23,6.4,8.281C6.109,8.332,5.913,8.62,5.962,8.924
    c0.049,0.304,0.323,0.51,0.614,0.458c0.225-0.039,0.4-0.223,0.438-0.458c0.37,0.126,0.759,0.188,1.15,0.183
    c-0.001,0.41,0.039,0.818,0.119,1.22C8,10.41,7.834,10.719,7.915,11.016s0.375,0.471,0.658,0.387s0.449-0.392,0.37-0.689
    c-0.051-0.188-0.191-0.333-0.37-0.386c0.083-0.399,0.123-0.807,0.122-1.215C9.085,9.113,9.476,9.07,9.857,8.985
    c0.081,0.298,0.377,0.472,0.661,0.388c0.284-0.084,0.45-0.395,0.369-0.692C10.805,8.382,10.509,8.208,10.225,8.292z M15.135,10.656
    v3.409c0,0.109-0.084,0.198-0.189,0.198h-1.169c-0.104,0-0.189,0.089-0.189,0.197c0,0.053,0.021,0.104,0.056,0.141l2.58,2.713
    c0.069,0.074,0.186,0.077,0.26,0.008c0.002-0.002,0.005-0.005,0.008-0.008l0,0l2.58-2.702c0.074-0.079,0.074-0.201,0-0.28
    c-0.034-0.037-0.082-0.059-0.133-0.059h-1.177c-0.104,0-0.188-0.088-0.188-0.198v-3.421c0-0.109-0.086-0.197-0.189-0.197h-2.058
    c-0.104,0-0.189,0.088-0.189,0.197h-0.001V10.656z M19.811,17.455h-0.836c-0.104,0-0.189,0.089-0.189,0.198v0.876
    c0,0.109-0.084,0.199-0.188,0.199h-4.479c-0.104,0-0.189-0.089-0.189-0.199v-0.876c0-0.109-0.085-0.198-0.189-0.198H12.9
    c-0.104,0-0.188,0.089-0.188,0.198v2.147C12.712,19.91,12.797,20,12.9,20h6.91C19.915,20,20,19.911,20,19.801v-2.147
    c0-0.108-0.083-0.196-0.188-0.198H19.811L19.811,17.455z M14.191,8.813c0,3.329-2.578,6.03-5.758,6.03s-5.757-2.701-5.757-6.03
    c0-3.328,2.574-6.026,5.751-6.03c3.18-0.003,5.76,2.693,5.764,6.023V8.813z M9.243,5.063c0.407,0.097,0.794,0.265,1.143,0.497
    l0.56-0.928c-0.45-0.297-0.947-0.513-1.471-0.638L9.243,5.063z M5.911,4.633l0.556,0.928C6.816,5.331,7.203,5.163,7.61,5.066
    L7.379,3.993C6.855,4.118,6.358,4.334,5.911,4.633z M5.317,10.865c-0.224-0.37-0.384-0.775-0.474-1.198L3.817,9.909
    c0.118,0.542,0.323,1.064,0.609,1.541L5.317,10.865z M5.336,6.765L4.446,6.18c-0.287,0.477-0.493,0.997-0.61,1.541l1.019,0.241
    C4.947,7.539,5.11,7.134,5.336,6.765z M7.609,12.566c-0.408-0.101-0.795-0.271-1.144-0.504l-0.557,0.936
    c0.448,0.297,0.946,0.512,1.469,0.637L7.609,12.566z M10.944,12.995l-0.559-0.933c-0.35,0.232-0.737,0.4-1.144,0.499l0.231,1.071
    C9.996,13.508,10.494,13.291,10.944,12.995z M11.289,8.813c0-1.647-1.277-2.983-2.85-2.983S5.591,7.166,5.591,8.813
    c0,1.641,1.267,2.974,2.833,2.982h0.011C10.01,11.797,11.287,10.461,11.289,8.813z M11.535,6.765
    c0.223,0.371,0.383,0.775,0.473,1.198l1.025-0.245c-0.117-0.543-0.324-1.063-0.611-1.539L11.535,6.765z M13.033,9.908l-1.025-0.24
    c-0.091,0.422-0.251,0.826-0.473,1.197l0.887,0.584C12.709,10.973,12.916,10.452,13.033,9.908z"/>
<path id="download-dafaconnect" d="M5.072,14.158c-0.051,0-1.494-0.1-1.285-1.065
    c0.296-2.472,1.328-4.771,2.936-6.544l2.043-0.755c-1.641,1.946-2.789,4.322-3.336,6.899c4.52,0.909,7.99-3.486,7.264-5.816
    C12.52,5.911,8.874,2.625,2.377,9.67c3.92-6.098,10.143-6.999,11.469-3.395C15.305,10.417,10.434,15.004,5.072,14.158z
     M13.17,16.579h0.717l0.342-0.318l-0.834-0.91c-1.772,1.722-4.2,2.401-6.513,1.82l0.316-0.655l-1.351,0.082l-1.385,0.054
    l0.734,1.284l0.734,1.283l0.416-0.856c1.946,0.567,4.016,0.364,5.838-0.573v-0.082c-0.004-0.6,0.436-1.092,0.984-1.101V16.579
    L13.17,16.579z M17.064,9.297C17.057,4.155,13.232-0.006,8.52,0C3.809,0.007-0.007,4.182,0,9.324
    c0.002,2.083,0.646,4.106,1.827,5.745l0.091-0.992l0.834,0.264C0.218,10.861,0.749,5.8,3.936,3.035
    c3.188-2.765,7.826-2.187,10.359,1.292c1.037,1.423,1.602,3.188,1.602,5.007v0.201h1.159c0.009-0.037,0.009-0.101,0.009-0.174V9.297
    L17.064,9.297z M16.639,17.298l2.502-2.729c0.068-0.083,0.065-0.205-0.009-0.283c-0.033-0.034-0.077-0.053-0.124-0.054h-1.143
    c-0.102,0-0.184-0.089-0.184-0.2v-3.368c0-0.111-0.082-0.2-0.184-0.2h-1.977c-0.102,0-0.184,0.089-0.184,0.2v3.44
    c0,0.111-0.082,0.2-0.184,0.2h-1.134c-0.102,0-0.184,0.091-0.183,0.201c0,0.052,0.018,0.099,0.049,0.136l2.502,2.73
    c0.068,0.066,0.176,0.065,0.243-0.002c0.003-0.002,0.005-0.005,0.007-0.008V17.298L16.639,17.298z M19.842,17.443h-0.834
    c-0.102,0-0.184,0.09-0.184,0.199v0.91c0,0.111-0.082,0.2-0.184,0.2h-4.295c-0.102,0-0.184-0.089-0.184-0.2v-0.91
    c0-0.109-0.081-0.199-0.184-0.199h-0.834c-0.102,0-0.184,0.09-0.184,0.199v2.156c0,0.111,0.083,0.201,0.184,0.201h6.672
    C19.918,20,20,19.91,20,19.799v-2.102c0.001-0.1-0.066-0.186-0.158-0.199V17.443z"/>
<path id="download-poker" d="M11.2,9.098v0.035c0.044,1.154,1.113,2.23,1.113,2.23
    c-0.447-0.398-0.957-0.705-1.502-0.905c-0.563-0.128-1.145-0.144-1.712-0.046c0,0,1.413-0.338,1.974-1.311V9.068
    c-0.808,1.295-3.566,0.839-2.657-1.677c0.452-1.247,2.851-1.645,3.834-2.878c0.288,1.607,2.186,3.279,2.018,4.608
    C13.907,11.797,11.295,10.663,11.2,9.098z M5.364,13.559c-0.249-0.472-0.316-1.034-0.188-1.562l0.515-2.118
    C4.545,9.03,2.891,8.539,2.508,7.464C1.499,4.597,4.799,4.316,5.313,6.108c-0.232-1.145,0.85-2.191,1.794-2.075l0.575-2.365
    C7.799,1.17,8.081,0.74,8.469,0.459C8.136,0.067,7.633-0.09,7.163,0.051L0.98,1.88C0.276,2.088-0.142,2.886,0.044,3.665
    l2.507,10.329c0.191,0.774,0.912,1.234,1.615,1.03l2.073-0.613c-0.368-0.176-0.674-0.477-0.874-0.861L5.364,13.559L5.364,13.559z
     M8.426,7.39c-0.909,2.517,1.86,2.972,2.667,1.678v0.033C10.532,10.074,9.12,10.41,9.12,10.41c0.568-0.098,1.148-0.081,1.711,0.047
    c0.535,0.205,1.033,0.512,1.473,0.906c0,0-1.07-1.078-1.114-2.23V9.097c0.105,1.562,2.707,2.698,3.077,0.022
    c0.168-1.329-1.729-3-2.017-4.608C11.276,5.746,8.874,6.144,8.426,7.39z M16.946,4.396l-1.234,5.165h-0.139
    c-0.545,0.001-0.986,0.49-0.984,1.094v2.729h-0.496c-0.541-0.005-0.982,0.476-0.988,1.073c-0.001,0.291,0.102,0.57,0.289,0.775
    l0.374,0.411c-0.29,0.166-0.626,0.205-0.94,0.112l-6.185-1.832c-0.703-0.209-1.121-1.007-0.935-1.785L8.21,1.817
    c0.188-0.778,0.91-1.241,1.615-1.035l6.186,1.829C16.713,2.82,17.133,3.618,16.946,4.396z M12.26,4.513
    C11.276,5.746,8.877,6.144,8.426,7.39c-0.909,2.517,1.86,2.972,2.667,1.678v0.033C10.532,10.074,9.12,10.41,9.12,10.41
    c0.568-0.098,1.148-0.081,1.711,0.047c0.535,0.205,1.033,0.512,1.473,0.906c0,0-1.07-1.078-1.114-2.23V9.097
    c0.105,1.562,2.707,2.698,3.077,0.022C14.444,7.792,12.548,6.119,12.26,4.513z M15.39,10.637v3.418c0,0.109-0.08,0.197-0.18,0.197
    h-1.117c-0.1,0-0.181,0.088-0.181,0.198c0,0.052,0.019,0.104,0.054,0.142l2.45,2.72c0.061,0.07,0.168,0.078,0.238,0.017
    c0.006-0.005,0.011-0.011,0.016-0.017l2.449-2.71c0.07-0.077,0.07-0.203,0-0.28c-0.031-0.036-0.078-0.058-0.127-0.059h-1.115
    c-0.1,0-0.18-0.088-0.18-0.198v-3.428c0-0.109-0.08-0.199-0.18-0.199h-1.948C15.47,10.438,15.39,10.526,15.39,10.637z M19.83,17.451
    h-0.793c-0.1,0-0.18,0.089-0.18,0.198v0.879c0,0.11-0.08,0.199-0.18,0.199h-4.263c-0.1,0-0.18-0.089-0.18-0.199v-0.879
    c0-0.109-0.08-0.198-0.179-0.198h-0.796c-0.099,0-0.18,0.089-0.18,0.198v2.152c0,0.11,0.081,0.198,0.18,0.198h6.563
    c0.097,0.001,0.179-0.087,0.179-0.197v-2.151c0-0.109-0.08-0.199-0.178-0.199L19.83,17.451L19.83,17.451L19.83,17.451z"/>
</svg>
