<svg viewBox="0 0 177.894 177.879">
    <path class="fill-yellow" d="M99.612 80.911v.318c.391 10.259 9.908 19.84 9.908 19.84-3.985-3.549-8.516-6.277-13.37-8.056a38.856 38.856 0 0 0-15.225-.414s12.565-2.994 17.561-11.645v-.297c-7.184 11.512-31.718 7.458-23.637-14.92 4.017-11.088 25.361-14.625 34.102-25.595 2.564 14.291 19.441 29.167 17.945 40.974-3.209 23.801-26.44 13.721-27.284-.205zm-51.908 39.683c-2.209-4.198-2.81-9.201-1.667-13.889l4.58-18.849c-10.19-7.54-24.91-11.906-28.306-21.466-8.977-25.499 20.369-28.003 24.942-12.067-2.062-10.178 7.56-19.487 15.957-18.457l5.116-21.029c1.043-4.424 3.543-8.256 6.997-10.753C72.358.599 67.888-.802 63.709.451L8.723 16.72C2.46 18.574-1.261 25.668.392 32.59l22.297 91.869c1.695 6.891 8.108 10.98 14.363 9.168l18.436-5.457c-3.271-1.567-5.997-4.248-7.776-7.659v.083h-.008zm27.232-54.865c-8.08 22.386 16.544 26.432 23.728 14.922v.295c-4.987 8.651-17.553 11.645-17.553 11.645a38.856 38.856 0 0 1 15.217.416c4.763 1.816 9.197 4.547 13.104 8.054 0 0-9.517-9.582-9.912-19.84v-.318c.935 13.889 24.075 24.007 27.375.199 1.492-11.807-15.381-26.683-17.945-40.973-8.657 10.977-30.033 14.512-34.014 25.6zm75.777-26.631L139.75 85.031h-1.239c-4.846.006-8.769 4.357-8.761 9.725v24.283h-4.414c-4.809-.045-8.736 4.223-8.781 9.538-.013 2.593.902 5.083 2.572 6.907l3.321 3.653c-2.581 1.463-5.561 1.82-8.362.997l-55.012-16.295c-6.249-1.858-9.97-8.952-8.316-15.875l22.257-91.799C74.692 9.241 81.111 5.127 87.38 6.96l55.012 16.268c6.252 1.854 9.98 8.946 8.321 15.87zm-41.675 1.039c-8.744 10.97-30.083 14.504-34.102 25.592-8.08 22.386 16.544 26.432 23.728 14.922v.295c-4.987 8.651-17.553 11.645-17.553 11.645a38.856 38.856 0 0 1 15.217.416c4.763 1.816 9.197 4.547 13.104 8.054 0 0-9.517-9.582-9.912-19.84v-.318c.935 13.889 24.075 24.007 27.375.199 1.58-11.799-15.289-26.684-17.857-40.965zM136.882 94.6v30.399c0 .973-.723 1.762-1.604 1.762h-9.941c-.881 0-1.6.785-1.6 1.762 0 .465.162.922.47 1.255l21.79 24.188a1.5 1.5 0 0 0 2.261 0l21.79-24.092c.623-.69.623-1.808 0-2.498a1.52 1.52 0 0 0-1.131-.52h-9.924c-.882 0-1.604-.785-1.604-1.766V94.6c0-.972-.711-1.764-1.592-1.764h-17.322c-.886-.008-1.593.786-1.593 1.764zm39.482 60.608h-7.058c-.881 0-1.592.794-1.592 1.766v7.817c0 .977-.719 1.767-1.596 1.767h-37.915c-.881 0-1.592-.79-1.592-1.767v-7.817c0-.972-.719-1.766-1.591-1.766h-7.074c-.881 0-1.6.794-1.6 1.766v19.143c0 .98.719 1.762 1.6 1.762h58.358c.864.009 1.588-.772 1.588-1.754v-19.142c0-.964-.707-1.762-1.58-1.766h.051v-.009z"></path>
</svg>