<svg id="footer-icons" viewBox="0 0 32 20">
<path id="footer-desktop" d="M4.662,16.659h22.007c0.865,0.043,1.602-0.623,1.646-1.488
    c0.001-0.026,0.002-0.054,0.002-0.08V1.648C28.338,0.76,27.636,0.022,26.748,0v0H4.662C3.766,0.033,3.047,0.752,3.015,1.648V14.98
    c-0.022,0.888,0.68,1.625,1.567,1.647h0.079L4.662,16.659L4.662,16.659z M5.21,2.228h20.942v12.235H5.21V2.228z M31.328,18.07v1.616
    c-0.008,0.143-0.101,0.267-0.235,0.313H0.27C0.118,19.998-0.002,19.873,0,19.722c0-0.012,0.001-0.023,0.003-0.035v-1.647
    c0.007-0.143,0.101-0.267,0.235-0.313h13.647v0.55c0.012,0.168,0.146,0.302,0.313,0.313h2.824c0.168-0.012,0.302-0.146,0.313-0.313
    v-0.55h13.726C31.225,17.757,31.339,17.904,31.328,18.07L31.328,18.07z"/>
<path id="footer-language" d="M10,0C4.463,0,0,4.463,0,10s4.463,10,10,10s10-4.463,10-10S15.537,0,10,0z
     M7.215,1.879C6.577,2.45,6.007,3.154,5.604,3.893c-0.101,0.168-0.201,0.369-0.269,0.57L5.269,4.597L5.134,4.564
    c-0.47-0.101-0.973-0.235-1.443-0.369C4.665,3.154,5.873,2.349,7.215,1.879z M1.409,9.564C1.51,7.886,2.081,6.275,3.087,4.899
    c0.537,0.201,1.074,0.369,1.61,0.503l0.202,0.033L4.832,5.638C4.43,6.846,4.195,8.121,4.161,9.396v0.168H1.409z M1.409,10.436
    l2.752-0.033v0.167c0.034,1.275,0.269,2.551,0.671,3.759l0.067,0.201l-0.202,0.067c-0.537,0.134-1.074,0.302-1.61,0.503
    C2.081,13.758,1.51,12.114,1.409,10.436z M3.691,15.805c0.47-0.167,0.939-0.268,1.443-0.369l0.134-0.033l0.067,0.135
    c0.101,0.201,0.168,0.369,0.269,0.57c0.403,0.771,0.973,1.443,1.611,2.014C5.873,17.65,4.665,16.846,3.691,15.805z M9.564,18.322
    l-0.235-0.067c-1.342-0.302-2.349-1.477-2.953-2.617L6.275,15.47l-0.134-0.235l0.268-0.033c0.973-0.135,1.98-0.201,2.953-0.234
    h0.202V18.322z M9.396,14.094c-1.141,0.033-2.282,0.102-3.423,0.303L5.805,14.43l-0.067-0.135C5.302,13.121,5.067,11.912,5,10.671
    V10.47h4.53v3.657H9.396V14.094z M9.564,9.564h-4.53V9.362c0.067-1.242,0.302-2.483,0.738-3.624l0.067-0.134l0.168,0.034
    C7.147,5.805,8.289,5.906,9.43,5.939h0.167L9.564,9.564z M9.564,5.034H9.362C8.356,5,7.382,4.933,6.409,4.799L6.141,4.765
    L6.275,4.53l0.101-0.168C7.013,3.222,8.02,2.047,9.329,1.745l0.235-0.067V5.034z M16.309,4.195c-0.47,0.134-0.939,0.268-1.443,0.369
    l-0.134,0.033l-0.067-0.134c-0.1-0.201-0.168-0.369-0.268-0.57c-0.403-0.772-0.974-1.443-1.611-2.013
    C14.127,2.349,15.336,3.121,16.309,4.195z M10.436,1.678l0.236,0.067c1.342,0.302,2.348,1.477,2.952,2.617l0.101,0.202l0.135,0.235
    l-0.269,0.033c-0.974,0.134-1.979,0.202-2.953,0.235h-0.202V1.678z M10.436,5.906h0.202c1.141-0.034,2.282-0.101,3.423-0.302
    l0.168-0.034l0.066,0.134C14.697,6.879,14.934,8.087,15,9.329V9.53h-4.564V5.906z M10.436,10.436h4.531v0.202
    c-0.067,1.241-0.303,2.45-0.705,3.624l-0.066,0.168l-0.168-0.033c-1.142-0.168-2.282-0.27-3.424-0.303h-0.201v-3.658H10.436z
     M10.672,18.289l-0.236,0.066V15h0.202c1.007,0.033,1.979,0.101,2.953,0.234l0.269,0.034l-0.135,0.235l-0.101,0.201
    C12.986,16.813,11.98,17.986,10.672,18.289z M12.785,18.121c0.672-0.57,1.208-1.242,1.611-2.014c0.1-0.168,0.201-0.369,0.268-0.57
    l0.067-0.135l0.134,0.033c0.471,0.102,0.974,0.235,1.443,0.369C15.336,16.879,14.127,17.65,12.785,18.121z M16.912,15.101
    c-0.536-0.201-1.073-0.335-1.644-0.47l-0.202-0.033l0.068-0.201c0.402-1.209,0.637-2.484,0.67-3.759V10.47h2.752
    C18.49,12.114,17.92,13.758,16.912,15.101z M15.805,9.564V9.396c-0.033-1.275-0.268-2.55-0.67-3.758l-0.068-0.202l0.202-0.033
    c0.536-0.134,1.107-0.269,1.644-0.47c1.008,1.342,1.578,2.986,1.679,4.664h-2.786V9.564z"/>
<path id="footer-livechat" d="M15.622,0H2.919C1.305,0,0,1.304,0,2.919v9.471c0,1.615,1.305,2.889,2.919,2.889h2.733
    L4.348,20l7.018-4.721h4.256c1.614,0,2.887-1.305,2.918-2.919V2.919C18.509,1.304,17.205,0,15.622,0z M12.205,11.739H3.013v-1.181
    h9.192V11.739z M15.497,9.255H3.013v-1.18h12.484V9.255z M15.497,6.77H3.013V5.59h12.484V6.77z M15.497,4.286H3.013V3.137h12.484
    V4.286z"/>
</svg>