<svg viewBox="0 0 118.69 75.772">
    <path d="M17.66 63.114h83.375a5.944 5.944 0 0 0 6.234-5.637c.004-.103.009-.204.009-.305V6.243a6.096 6.096 0 0 0-5.942-6.241L101.334 0H17.66a6.48 6.48 0 0 0-6.24 6.243v50.512a6.092 6.092 0 0 0 5.939 6.24h.3v.119zM19.74 8.44h79.337v46.354H19.74V8.44zm98.948 60.021v6.122a1.34 1.34 0 0 1-.893 1.188H1.021A1.038 1.038 0 0 1 .01 74.583v-6.24c.029-.541.381-1.01.891-1.188h51.703v2.081a1.278 1.278 0 0 0 1.188 1.188H64.49a1.28 1.28 0 0 0 1.188-1.188v-2.081h51.998a1.248 1.248 0 0 1 1.012 1.306z"/>
</svg>
