<svg id="in-language" viewBox="0 0 20 20">
<path id="in-language" d="M19.8,13.2C19.7,13,19.5,13,19.3,13h-0.9c0.8-2.8,0.1-5.8-1.9-8h1.9c0.4,0,0.7-0.3,0.7-0.6V1.6
    c0-0.2-0.1-0.3-0.2-0.5C18.8,1.1,18.6,1,18.5,1h-4.7c-0.4,0-0.7,0.3-0.7,0.6v1.1c-0.4-0.1-0.8-0.3-1.3-0.3l0,0
    c-0.9-0.2-1.8-0.2-2.7,0l0,0C8.2,2.5,7.3,2.8,6.5,3.2l0,0C5.9,3.6,5.3,3.9,4.8,4.4C3.3,5.7,2.3,7.5,2,9.5H0.7C0.3,9.5,0,9.8,0,10.1
    v2.7c0,0.4,0.3,0.6,0.7,0.6h1.8c0.7,2,2.1,3.6,4,4.6c0.2,0.1,0.4,0.2,0.6,0.3l0.2,0.1c0.1,0,0.2,0.1,0.3,0.1c0.5,0.2,1,0.3,1.6,0.4
    C9.6,19,10,19,10.4,19c0.5,0,0.9,0,1.4-0.1c0.8-0.1,1.5-0.4,2.2-0.7c0.2-0.1,0.5-0.2,0.7-0.4c0.4-0.3,0.8-0.5,1.2-0.9h3.5
    c0.4,0,0.7-0.3,0.7-0.6v-2.7C20,13.5,19.9,13.3,19.8,13.2z M18.2,13h-3.5c-0.2,0-0.3,0.1-0.5,0.2c-0.1,0.1-0.2,0.3-0.2,0.5v1.5
    c0,0.1,0,0.3-0.1,0.4l-0.6,1.3c-0.2-0.1-0.3-0.1-0.5-0.2c0.5-1.7,0.7-3.4,0.7-5.2h4.9C18.4,12,18.3,12.5,18.2,13z M12.6,16.6
    c-0.6-0.2-1.3-0.2-2-0.2c-0.8,0-1.5,0.1-2.2,0.3c-0.5-1.7-0.7-3.4-0.7-5.2h5.7C13.3,13.2,13,14.9,12.6,16.6z M18.5,10.6
    c0,0.2,0,0.4,0,0.6h-4.9c0-0.2,0-0.4,0-0.6c0-1.8-0.2-3.6-0.6-5.3l0.5-0.1l0-0.1l0,0.1L14.2,5l0,0c0.1,0,0.2,0,0.3,0h1.8
    C17.7,6.5,18.5,8.5,18.5,10.6z M13.3,3.6c0.1-0.2,0.1-0.3,0.1-0.5V1.6c0-0.2,0.2-0.4,0.4-0.4h4.7c0.1,0,0.2,0,0.3,0.1
    c0.1,0.1,0.1,0.2,0.1,0.3v2.7c0,0.1,0,0.2-0.1,0.3c-0.1,0.1-0.2,0.1-0.3,0.1h-4c-0.1,0-0.2,0-0.3,0l-0.7,0.2l-0.8,0.2l0,0v0l0.2-0.4
    L13.3,3.6z M13.1,3v0.1c0,0.1,0,0.3-0.1,0.4l-0.3,0.7c-0.2-0.5-0.4-1-0.6-1.5C12.4,2.8,12.8,2.9,13.1,3z M9.2,2.6
    c0.4-0.1,0.8-0.1,1.2-0.1c0.4,0,0.9,0,1.3,0.1c0.3,0.5,0.6,1.1,0.8,1.7c-0.6,0.1-1.2,0.2-1.9,0.2c-0.7,0-1.4-0.1-2.1-0.3
    C8.7,3.7,8.9,3.2,9.2,2.6z M8.9,2.7c-0.3,0.5-0.5,1-0.7,1.5C7.9,4.1,7.6,4,7.3,3.8C7.1,3.7,6.9,3.6,6.7,3.4C7.4,3.1,8.1,2.8,8.9,2.7
    z M5,4.6c0.5-0.4,1-0.8,1.5-1.1c0.2,0.2,0.4,0.4,0.7,0.5c0.3,0.2,0.6,0.3,0.9,0.4C7.9,5.3,7.7,6.2,7.6,7.1c0,0.1,0,0.1,0.1,0.2
    c0.1,0,0.1,0,0.2-0.1C8,6.3,8.1,5.4,8.4,4.6c0.7,0.2,1.5,0.3,2.2,0.3c0.6,0,1.3-0.1,1.9-0.2L12.4,5l0,0c0,0,0,0.1,0,0.1
    c0,0.1,0,0.1,0.1,0.2c0,0,0.1,0,0.1,0.1c0,0,0.1,0,0.1,0h0c0,0,0.1,0,0.1,0l0,0h0.1c0.4,1.7,0.6,3.5,0.5,5.2c0,0.2,0,0.4,0,0.6H7.6
    c0-0.2,0-0.4,0-0.6c0-0.4,0-0.8,0-1.2c0-0.1-0.1-0.1-0.1-0.1c-0.1,0-0.1,0.1-0.1,0.1c0,0,0,0,0,0c0,0.4,0,0.8,0,1.2
    c0,0.2,0,0.4,0,0.6H6v-1.1c0-0.2-0.1-0.3-0.2-0.5C5.7,9.5,5.5,9.5,5.4,9.5h-3C2.6,7.6,3.5,5.9,5,4.6z M0.7,13.2
    c-0.1,0-0.2,0-0.3-0.1c-0.1-0.1-0.1-0.2-0.1-0.3v-2.7c0-0.2,0.2-0.4,0.4-0.4c0,0,0,0,0,0h4.7c0.1,0,0.2,0,0.3,0.1
    c0.1,0.1,0.1,0.2,0.1,0.3v1.5c0,0.2,0,0.3,0.1,0.5l0.7,1.5l0,0l-1.5-0.4c-0.1,0-0.2,0-0.3,0L0.7,13.2z M6.4,17.7
    c-1.7-0.9-3-2.5-3.7-4.3h2c0.1,0,0.2,0,0.3,0l1.5,0.4c0,0,0.1,0,0.1,0c0,0,0.1,0,0.1,0c0.1,0,0.1-0.1,0.1-0.1c0,0,0-0.1,0-0.2
    c0,0,0-0.1,0-0.1L6.1,12C6,11.9,6,11.7,6,11.6v-0.1h1.3c0,1.8,0.3,3.5,0.8,5.3c-0.3,0.1-0.7,0.3-1,0.4C6.9,17.3,6.6,17.5,6.4,17.7z
     M7.2,18.1C7,18,6.9,17.9,6.7,17.8c0.2-0.2,0.4-0.3,0.6-0.5c0.3-0.2,0.6-0.3,0.9-0.4c0.2,0.6,0.4,1.1,0.7,1.6
    C8.3,18.5,7.7,18.3,7.2,18.1L7.2,18.1z M11.7,18.6c-0.4,0.1-0.9,0.1-1.3,0.1c-0.4,0-0.7,0-1.1-0.1c-0.3-0.5-0.6-1.1-0.8-1.7
    c0.7-0.2,1.4-0.3,2.2-0.3c0.6,0,1.3,0.1,1.9,0.2C12.3,17.5,12,18.1,11.7,18.6L11.7,18.6z M14.5,17.6c-0.6,0.3-1.2,0.6-1.9,0.8
    c-0.1,0-0.2,0.1-0.4,0.1l-0.2,0.1c0.3-0.5,0.5-1.1,0.7-1.6c0.2,0,0.3,0.1,0.5,0.2c0,0,0,0.1,0,0.1c0,0.1,0.1,0.2,0.2,0.3
    c0,0,0.1,0,0.1,0h0c0,0,0.1,0,0.1,0l0,0l0.8-0.2L15,17c0.1,0,0.2,0,0.3,0h0.1C15.2,17.2,14.8,17.4,14.5,17.6L14.5,17.6z M19.7,16.3
    c0,0.1,0,0.2-0.1,0.3c-0.1,0.1-0.2,0.1-0.3,0.1h-4c-0.1,0-0.2,0-0.3,0l-0.7,0.2l-0.8,0.2l0,0v0l0-0.1l0,0l0.6-1.4
    c0.1-0.2,0.1-0.3,0.1-0.5v-1.5c0-0.2,0.2-0.4,0.4-0.4h4.7c0.1,0,0.2,0,0.3,0.1c0.1,0.1,0.1,0.2,0.1,0.3L19.7,16.3z"/>
</svg>
