<svg id="contact-icons" viewBox="0 0 20 20">
<path id="contact-live-chat" d="M5.2,8.8h-3c-0.2,0-0.3-0.1-0.3-0.3c0-0.2,0.1-0.3,0.3-0.3h3c0.2,0,0.3,0.1,0.3,0.3
	C5.5,8.6,5.3,8.8,5.2,8.8z M5.2,11.5h-3c-0.2,0-0.3-0.1-0.3-0.3c0-0.2,0.1-0.3,0.3-0.3h3c0.2,0,0.3,0.1,0.3,0.3
	C5.5,11.3,5.3,11.5,5.2,11.5z M11.3,14.1H2.2c-0.2,0-0.3-0.1-0.3-0.3c0-0.2,0.1-0.3,0.3-0.3c0,0,0,0,0,0h9.1c0.2,0,0.3,0.1,0.3,0.3
	C11.6,14,11.5,14.1,11.3,14.1C11.3,14.1,11.3,14.1,11.3,14.1L11.3,14.1z M17.8,3.4H8.7C8.5,3.4,8.4,3.2,8.4,3c0-0.2,0.1-0.3,0.3-0.3
	h9.1c0.2,0,0.3,0.1,0.3,0.3C18.1,3.2,17.9,3.4,17.8,3.4z M17.8,6.1H8.7c-0.2,0-0.3-0.1-0.3-0.3c0-0.2,0.1-0.3,0.3-0.3h9.1
	c0.2,0,0.3,0.1,0.3,0.3C18.1,5.9,17.9,6.1,17.8,6.1z M13.2,8.7H8.7c-0.2,0-0.3-0.1-0.3-0.3c0-0.2,0.1-0.3,0.3-0.3h4.5
	c0.2,0,0.3,0.1,0.3,0.3C13.5,8.6,13.4,8.7,13.2,8.7L13.2,8.7z M18.2,14.6c-0.1,0-0.3-0.1-0.4-0.2l-2.9-2.8c-0.1-0.1-0.3-0.2-0.5-0.2
	H8.7c-1.2,0-2.2-1.1-2.2-2.5V2.5c0-1.4,1-2.5,2.2-2.5h9.1C19,0,20,1.1,20,2.5V9c0,1.2-0.8,2.2-1.8,2.4l0.6,2.3
	c0.1,0.4-0.1,0.8-0.4,0.9C18.4,14.6,18.3,14.6,18.2,14.6L18.2,14.6z M8.7,0.7c-0.9,0-1.6,0.8-1.6,1.8V9c0,1,0.7,1.8,1.6,1.8h5.8
	c0.3,0,0.6,0.1,0.8,0.3l2.9,2.8c0,0,0,0,0,0c0,0,0,0,0,0l-0.7-2.4c0-0.2,0-0.3,0.1-0.5c0.1-0.1,0.2-0.2,0.4-0.3
	c0.8-0.1,1.4-0.9,1.4-1.8V2.5c0-1-0.7-1.8-1.6-1.8L8.7,0.7z M1.8,20c-0.3,0-0.6-0.3-0.6-0.7c0-0.1,0-0.1,0-0.2l0.6-2.3
	c-1-0.2-1.8-1.2-1.8-2.4V7.9c0-1.4,1-2.5,2.2-2.5h3.4c0.2,0,0.3,0.1,0.3,0.3c0,0.2-0.1,0.3-0.3,0.3H2.2c-0.9,0-1.6,0.8-1.6,1.8v6.5
	c0,1,0.7,1.8,1.6,1.8c0.2,0,0.3,0.1,0.3,0.3c0,0,0,0.1,0,0.1l-0.7,2.7c0,0,0,0,0,0c0,0,0,0,0,0l2.8-2.7c0.3-0.3,0.7-0.5,1.1-0.5h5.6
	c0.9,0,1.6-0.8,1.6-1.8v-1.9c0-0.2,0.1-0.3,0.3-0.3c0.2,0,0.3,0.1,0.3,0.3c0,0,0,0,0,0v1.9c0,1.4-1,2.5-2.2,2.5H5.7
	c-0.3,0-0.6,0.1-0.8,0.3l-2.8,2.7C2.1,19.9,1.9,20,1.8,20L1.8,20z"/>
<path id="contact-phone" d="M19.9,16.9c0.2-0.6-0.2-1.2-0.8-1.4L15.3,14c-0.2-0.1-0.4-0.1-0.6-0.1c-0.5,0-0.9,0.1-1.2,0.4l-1.2,1
	c-0.2,0.2-0.5,0.2-0.8,0.2c-0.1,0-0.2,0-0.3-0.1c-1.3-0.6-2.5-1.4-3.6-2.3c-0.9-0.7-1.6-1.5-2.2-2.4c-0.1-0.3,0-0.7,0.3-0.9l1.1-0.9
	c0.5-0.4,0.6-1,0.5-1.6L5.9,4.1c-0.2-0.6-0.8-1-1.5-1C3,3.1,1.8,3.7,1,4.7c-1.6,2-1.5,5.7,1.4,8.4c2.1,1.9,4.3,3.6,6.7,5.3
	c1.4,1,3.2,1.6,5.1,1.6c0.3,0,0.6,0,0.9,0C17.3,19.8,19.2,18.6,19.9,16.9z M15,19.4c-0.3,0-0.5,0-0.8,0c-1.7,0-3.4-0.5-4.7-1.5
	c-2.3-1.6-4.5-3.4-6.6-5.2C0.3,10.4,0.1,6.8,1.6,5c0.6-0.8,1.7-1.3,2.9-1.3C4.8,3.7,5.2,4,5.3,4.3l1.2,3.2c0.1,0.3,0,0.7-0.3,1
	L5.1,9.4c-0.5,0.4-0.6,1-0.4,1.6c0.6,0.9,1.4,1.8,2.3,2.5c1.1,1,2.3,1.8,3.8,2.4c0.2,0.1,0.4,0.1,0.6,0.1c0.5,0,0.9-0.1,1.3-0.4
	l1.2-1c0.3-0.2,0.7-0.3,1.1-0.2l3.8,1.4c0.3,0.1,0.5,0.4,0.4,0.7C18.7,18.2,17,19.3,15,19.4L15,19.4z M9,7.2C9,7.3,9.1,7.4,9.3,7.4
	c0.1,0,0.3-0.1,0.3-0.2C10.5,5,9.2,2.6,6.7,1.8C6.5,1.8,6.3,1.9,6.2,2c-0.1,0.1,0,0.3,0.2,0.4c0,0,0,0,0,0C8.6,3.1,9.8,5.1,9,7
	C8.9,7,8.9,7.1,9,7.2z M11,8.3c0.2,0.1,0.4,0,0.4-0.2C12.9,4.9,10.9,1.2,7,0C6.8,0,6.6,0,6.5,0.2c-0.1,0.1,0,0.3,0.2,0.4
	C10.3,1.7,12.1,5,10.8,8C10.7,8.1,10.8,8.3,11,8.3C11,8.3,11,8.3,11,8.3z"/>
<path id="contact-line" d="M9.5,20c-0.5,0-0.8-0.4-0.8-0.9c0,0,0-0.1,0-0.1l0.2-1.9c0-0.1,0-0.1-0.1-0.2c0-0.1-0.1-0.1-0.2-0.1
	c-2.3-0.2-4.4-1.2-6.2-2.8C1,12.7,0,10.6,0,8.5c0-2.4,1.1-4.6,3-6C5,0.8,7.5,0,10,0c5.4,0,9.7,3.5,10,8.1c0,0.3,0,0.6,0,0.8
	c0,0.2,0,0.4-0.1,0.7c-0.1,0.8-0.4,1.6-0.8,2.3c-0.2,0.4-1.1,1.6-1.3,2c-1.7,2.2-4.4,4.3-8,6.1C9.8,20,9.6,20,9.5,20z M10,0.6
	c-5.2,0-9.4,3.5-9.4,7.8c0,3.9,3.5,7.3,8.2,7.8c0.4,0,0.8,0.5,0.7,0.9c0,0,0,0,0,0l-0.2,1.9c0,0.1,0,0.2,0.1,0.2
	c0.1,0.1,0.2,0.1,0.2,0c3.5-1.8,6.1-3.7,7.8-5.9c0.3-0.3,1.1-1.6,1.3-1.9c0.4-0.7,0.6-1.4,0.7-2.1v0c0-0.2,0.1-0.4,0.1-0.6
	c0-0.3,0-0.5,0-0.8C19.2,6,18.2,4,16.5,2.8C14.6,1.4,12.3,0.6,10,0.6z M4.7,10.1V6.7c0-0.3-0.2-0.5-0.5-0.5l0,0
	c-0.3,0-0.5,0.2-0.5,0.5v4c0,0.3,0.2,0.5,0.5,0.5h2c0.3,0,0.5-0.2,0.5-0.5l0,0c0-0.3-0.2-0.5-0.5-0.5L4.7,10.1z M7.7,11.2H7.5
	c-0.2,0-0.4-0.2-0.4-0.4V6.6c0-0.2,0.2-0.4,0.4-0.4h0.2c0.2,0,0.4,0.2,0.4,0.4v4.2C8.1,11,7.9,11.2,7.7,11.2
	C7.7,11.2,7.7,11.2,7.7,11.2L7.7,11.2z M11.7,6.7v2.4c0,0-2-2.7-2-2.8C9.6,6.2,9.5,6.1,9.3,6.2c-0.3,0-0.5,0.3-0.5,0.5v3.9
	c0,0.3,0.2,0.5,0.5,0.5l0,0c0.3,0,0.5-0.2,0.5-0.5V8.2c0,0,2,2.8,2,2.8c0.1,0.1,0.2,0.1,0.3,0.1c0.3,0,0.5-0.3,0.5-0.5V6.7
	c0-0.3-0.2-0.5-0.5-0.5l0,0C12,6.2,11.7,6.4,11.7,6.7C11.7,6.7,11.7,6.7,11.7,6.7L11.7,6.7z M16.5,6.7L16.5,6.7
	c0-0.3-0.2-0.5-0.5-0.5h-2c-0.3,0-0.5,0.2-0.5,0.5v4c0,0.3,0.2,0.5,0.5,0.5h2c0.3,0,0.5-0.2,0.5-0.5l0,0c0-0.3-0.2-0.5-0.5-0.5h-1.5
	V9.2H16c0.3,0,0.5-0.2,0.5-0.5l0,0c0-0.3-0.2-0.5-0.5-0.5h-1.5V7.2H16C16.2,7.2,16.4,7,16.5,6.7L16.5,6.7L16.5,6.7z"/>
<path id="contact-line" d="M9.5,20c-0.5,0-0.8-0.4-0.8-0.9c0,0,0-0.1,0-0.1l0.2-1.9c0-0.1,0-0.1-0.1-0.2c0-0.1-0.1-0.1-0.2-0.1
	c-2.3-0.2-4.4-1.2-6.2-2.8C1,12.7,0,10.6,0,8.5c0-2.4,1.1-4.6,3-6C5,0.8,7.5,0,10,0c5.4,0,9.7,3.5,10,8.1c0,0.3,0,0.6,0,0.8
	c0,0.2,0,0.4-0.1,0.7c-0.1,0.8-0.4,1.6-0.8,2.3c-0.2,0.4-1.1,1.6-1.3,2c-1.7,2.2-4.4,4.3-8,6.1C9.8,20,9.6,20,9.5,20z M10,0.6
	c-5.2,0-9.4,3.5-9.4,7.8c0,3.9,3.5,7.3,8.2,7.8c0.4,0,0.8,0.5,0.7,0.9c0,0,0,0,0,0l-0.2,1.9c0,0.1,0,0.2,0.1,0.2
	c0.1,0.1,0.2,0.1,0.2,0c3.5-1.8,6.1-3.7,7.8-5.9c0.3-0.3,1.1-1.6,1.3-1.9c0.4-0.7,0.6-1.4,0.7-2.1v0c0-0.2,0.1-0.4,0.1-0.6
	c0-0.3,0-0.5,0-0.8C19.2,6,18.2,4,16.5,2.8C14.6,1.4,12.3,0.6,10,0.6z M4.7,10.1V6.7c0-0.3-0.2-0.5-0.5-0.5l0,0
	c-0.3,0-0.5,0.2-0.5,0.5v4c0,0.3,0.2,0.5,0.5,0.5h2c0.3,0,0.5-0.2,0.5-0.5l0,0c0-0.3-0.2-0.5-0.5-0.5L4.7,10.1z M7.7,11.2H7.5
	c-0.2,0-0.4-0.2-0.4-0.4V6.6c0-0.2,0.2-0.4,0.4-0.4h0.2c0.2,0,0.4,0.2,0.4,0.4v4.2C8.1,11,7.9,11.2,7.7,11.2
	C7.7,11.2,7.7,11.2,7.7,11.2L7.7,11.2z M11.7,6.7v2.4c0,0-2-2.7-2-2.8C9.6,6.2,9.5,6.1,9.3,6.2c-0.3,0-0.5,0.3-0.5,0.5v3.9
	c0,0.3,0.2,0.5,0.5,0.5l0,0c0.3,0,0.5-0.2,0.5-0.5V8.2c0,0,2,2.8,2,2.8c0.1,0.1,0.2,0.1,0.3,0.1c0.3,0,0.5-0.3,0.5-0.5V6.7
	c0-0.3-0.2-0.5-0.5-0.5l0,0C12,6.2,11.7,6.4,11.7,6.7C11.7,6.7,11.7,6.7,11.7,6.7L11.7,6.7z M16.5,6.7L16.5,6.7
	c0-0.3-0.2-0.5-0.5-0.5h-2c-0.3,0-0.5,0.2-0.5,0.5v4c0,0.3,0.2,0.5,0.5,0.5h2c0.3,0,0.5-0.2,0.5-0.5l0,0c0-0.3-0.2-0.5-0.5-0.5h-1.5
	V9.2H16c0.3,0,0.5-0.2,0.5-0.5l0,0c0-0.3-0.2-0.5-0.5-0.5h-1.5V7.2H16C16.2,7.2,16.4,7,16.5,6.7L16.5,6.7L16.5,6.7z"/>
<path id="contact-mail" d="M20,4.4c0-0.5-0.2-0.9-0.4-1.3c0,0,0,0,0,0c0,0,0,0,0,0
	c-0.3-0.4-0.8-0.6-1.2-0.6H1.7c-0.5,0-0.9,0.2-1.2,0.6c0,0,0,0,0,0c0,0,0,0,0,0C0.2,3.5,0,3.9,0,4.4v11.2c0,0.5,0.2,0.9,0.5,1.3
	c0,0,0,0,0,0c0,0,0,0,0,0c0.3,0.4,0.8,0.6,1.2,0.6h16.6c0.5,0,0.9-0.2,1.2-0.6l0,0c0,0,0,0,0,0c0.3-0.3,0.5-0.8,0.5-1.3L20,4.4
	L20,4.4z M13.5,9.4l5.8-5.5c0.1,0.1,0.1,0.3,0.1,0.5v11.2c0,0.1,0,0.3-0.1,0.4L13.5,9.4z M18.3,3.3c0.1,0,0.3,0,0.4,0.1L10,11.7
	L1.3,3.4c0.1-0.1,0.3-0.1,0.4-0.1H18.3z M0.8,16c0-0.1-0.1-0.3-0.1-0.4V4.4c0-0.2,0-0.3,0.1-0.5l5.8,5.5L0.8,16z M1.7,16.7
	c-0.2,0-0.3,0-0.4-0.1l5.8-6.7l2.7,2.6c0.1,0.1,0.3,0.1,0.4,0l2.7-2.6l5.8,6.7c-0.1,0.1-0.3,0.1-0.4,0.1L1.7,16.7z"/>
<path id="contact-whatsapp" d="M10,0C4.5,0,0,4.5,0,10c0,1.9,0.5,3.7,1.5,5.3c-0.4,1.4-1.1,4-1.1,4c-0.1,0.2,0.1,0.4,0.3,0.5
	c0.1,0,0.1,0,0.2,0l4-1.2c4.7,2.8,10.9,1.3,13.7-3.4s1.3-10.9-3.4-13.7C13.6,0.5,11.8,0,10,0z M10,19.2c-1.7,0-3.4-0.5-4.9-1.4
	c-0.1,0-0.1-0.1-0.2-0.1c0,0-0.1,0-0.1,0l-3.5,1.1c0.3-0.9,0.7-2.6,1-3.5c0-0.1,0-0.2,0-0.3C-0.5,10.7,0.7,5,5,2.3S15,0.7,17.7,5
	c2.8,4.3,1.6,10-2.7,12.8C13.5,18.7,11.8,19.2,10,19.2L10,19.2z M16.5,12.4c-0.7-0.4-1.3-0.8-1.8-1.1c-0.3-0.2-0.6-0.4-0.8-0.5
	c-0.3-0.2-0.7-0.2-1,0.1c0,0,0,0,0,0.1c-0.4,0.6-0.8,1.1-1.4,1.6c-0.9-0.4-1.7-0.9-2.4-1.5c-1.1-0.9-1.8-1.8-1.9-2.4
	C8,7.9,8.3,7.4,8.3,6.9C7.9,5.9,7.4,4.9,6.8,4C6.6,3.7,6.1,3.7,5.3,3.9C5.2,3.9,5.2,3.9,5.1,4C5,4.1,2.8,6.3,3.9,9
	c1.1,3,4.1,6.4,7.8,7c0.4,0.1,0.8,0.1,1.2,0.1c2.2,0,3.5-1.1,3.9-3.3C16.7,12.6,16.7,12.4,16.5,12.4z M11.8,15.2
	c-3.9-0.6-6.4-4.5-7.2-6.5c-0.8-2,0.6-3.7,1-4.1c0.2,0,0.5-0.1,0.7,0c0.5,0.8,0.9,1.6,1.2,2.4c0,0.2-0.1,0.5-0.8,1.3
	C6.6,8.3,6.5,8.4,6.5,8.5c0,2,4.2,4.8,5,4.8c0.7,0,1.5-1.1,2-1.8c0.1,0,0.1,0,0.1,0c0.1,0.1,0.4,0.2,0.7,0.4c0.4,0.3,0.9,0.6,1.6,1
	C15.6,14.3,14.8,15.7,11.8,15.2z"/>
<path id="contact-skype" d="M19.3,11.9c0.1-0.6,0.2-1.3,0.2-1.9c0-5.3-4.3-9.5-9.5-9.5c-0.6,0-1.3,0.1-1.9,0.2C7.3,0.2,6.4,0,5.5,0
	C2.5,0,0,2.4,0,5.4c0,0,0,0,0,0.1c0,0.9,0.2,1.8,0.7,2.6C0.5,8.7,0.5,9.4,0.5,10c0,5.3,4.3,9.5,9.5,9.5c0.6,0,1.3-0.1,1.9-0.2
	c0.8,0.4,1.7,0.7,2.6,0.7c3,0,5.5-2.4,5.5-5.4c0,0,0,0,0-0.1C20,13.6,19.8,12.7,19.3,11.9z M10.3,15.7c-3.1,0-4.6-1.6-4.6-2.8
	c0-0.6,0.4-1,1-1c0,0,0.1,0,0.1,0c1.3,0,1,2,3.5,2c1.3,0,2-0.7,2-1.4c0-0.4-0.2-0.9-1-1.1l-2.8-0.7c-2.2-0.6-2.7-1.8-2.7-3
	c0-2.4,2.2-3.3,4.3-3.3c2,0,4.2,1,4.2,2.5c0,0.6-0.4,1-1,1c0,0-0.1,0-0.1,0c-1.1,0-1-1.6-3.2-1.6c-1.1,0-1.8,0.5-1.8,1.3
	s0.9,1,1.7,1.2l2.1,0.5c2.3,0.5,2.8,1.9,2.8,3.1C14.7,14.2,13.3,15.7,10.3,15.7z"/>
<path id="contact-wechat" transform="translate(-6707.438 -1694.628)" d="M6721.3,1701.7c-1.8,0-3.5,0.7-4.8,1.9
	c-1.3,1.2-2,3-1.8,4.8c-0.7-0.1-1.4-0.2-2.1-0.2c-0.2,0-0.5,0-0.7,0.1c-0.6,0.4-1.3,0.8-2,1.2c0.1-0.6,0.2-1.1,0.4-1.7
	c0.1-0.3,0-0.7-0.3-0.8c-2.2-1.6-3.2-3.9-2.5-6.4c0.6-2.1,2.3-3.7,4.4-4.3c2.9-1,6.2,0,8.1,2.4
	C6720.8,1699.6,6721.2,1700.6,6721.3,1701.7z M6712.8,1700.9c0-0.5-0.4-0.8-0.8-0.9c-0.5,0-0.8,0.3-0.9,0.8c0,0,0,0,0,0
	c0,0.5,0.3,0.8,0.8,0.9c0,0,0,0,0,0C6712.4,1701.7,6712.8,1701.4,6712.8,1700.9L6712.8,1700.9z M6717.2,1700.1
	c-0.5,0-0.8,0.4-0.8,0.8c0,0.5,0.4,0.8,0.9,0.8c0,0,0,0,0,0c0.5,0,0.8-0.4,0.8-0.8S6717.7,1700.1,6717.2,1700.1
	C6717.3,1700.1,6717.3,1700.1,6717.2,1700.1L6717.2,1700.1z M6725.5,1713.3c-0.5-0.3-1.1-0.6-1.7-0.7c-0.6,0.1-1.2,0.2-1.8,0.3
	c-1.8,0.2-3.5-0.4-4.8-1.6c-2.6-2.4-2.2-6,0.8-7.9c2.6-1.7,6.5-1.1,8.4,1.2c1.6,2,1.4,4.9-0.5,6.6c-0.6,0.5-0.8,0.9-0.4,1.6
	C6725.4,1713,6725.5,1713.1,6725.5,1713.3z M6718.8,1706.8c0.4,0,0.7-0.3,0.7-0.7c0-0.4-0.3-0.7-0.7-0.7c-0.4,0-0.7,0.3-0.7,0.7
	C6718.1,1706.5,6718.4,1706.8,6718.8,1706.8z M6723.1,1705.4c-0.4,0-0.7,0.3-0.7,0.7c0,0.4,0.3,0.7,0.7,0.7s0.7-0.3,0.7-0.7
	S6723.5,1705.4,6723.1,1705.4C6723.1,1705.4,6723.1,1705.4,6723.1,1705.4z"/>
</svg>
