<svg id="product-icons" viewBox="0 0 20 20">
<path id="product-video-bingo" d="M9.8,20c-0.2,0-0.3,0-0.5-0.1c-1.7-0.3-2.8-1.3-3.3-2.9c-0.7-2.3,0.9-4.6,3.3-5
    c2.3-0.4,4.5,1.1,4.9,3.4c0.3,2.1-1.2,4.1-3.4,4.5c-0.2,0-0.3,0-0.5,0.1H9.8z M10,13.2c-1.6,0-3,1.3-3,2.8c0,1.5,1.3,2.8,2.9,2.8
    c1.7,0,3-1.2,3-2.8C13,14.5,11.6,13.2,10,13.2z M20,15.3c0,0.2,0,0.4-0.1,0.6c-0.3,1.6-1.7,2.9-3.4,3.2c-0.9,0.1-1.8,0-2.6-0.4
    c0,0-0.1,0-0.1,0c0.2-0.3,0.4-0.7,0.6-1c0.8,0.4,1.7,0.5,2.5,0.1c0.7-0.3,1.2-0.7,1.5-1.3c0.7-1.2,0.4-2.6-0.7-3.5
    c-0.6-0.5-1.3-0.7-2.1-0.7c-0.8,0-1.5,0.4-2,0.9l-0.9-0.8c0.2-0.1,0.3-0.3,0.5-0.4c1.7-1.2,4.2-1,5.6,0.5c0.7,0.7,1,1.5,1.1,2.4
    c0,0,0,0.1,0,0.1L20,15.3L20,15.3z M0,14.9c0-0.2,0-0.3,0.1-0.5c0.3-1.6,1.7-3,3.4-3.2c1.4-0.2,2.7,0.2,3.7,1.2c0,0,0,0,0,0.1
    c-0.3,0.3-0.6,0.5-0.9,0.8C5.3,12,3.4,12,2.3,13c-1.1,0.9-1.4,2.5-0.6,3.7c0.8,1.2,2.5,1.7,3.9,1c0.2,0.3,0.4,0.7,0.6,1c0,0,0,0,0,0
    c-2.5,1.3-5.6-0.2-6.1-2.8c0-0.2,0-0.3-0.1-0.5V14.9z M6.6,11.3L5.9,11c0-0.2,0.1-0.4,0.1-0.7c0.1-0.6,0.2-1.1,0.3-1.7
    C6.5,7.8,6.6,7,6.8,6.2c0.1-0.7,0.3-1.4,0.4-2c0.2-0.9,0.3-1.8,0.5-2.7c0.1-0.3,0.1-0.6,0.2-0.9c0.1-0.4,0.6-0.7,1-0.6
    c0.9,0.2,1.9,0.3,2.8,0.5c1,0.2,2.1,0.3,3.1,0.5c0.9,0.1,1.8,0.3,2.7,0.4c0.4,0.1,0.9,0.1,1.3,0.2c0.4,0.1,0.7,0.4,0.7,0.8
    c0,0.3-0.1,0.5-0.1,0.8c-0.1,0.6-0.2,1.1-0.3,1.7c-0.2,0.8-0.3,1.6-0.5,2.5c-0.1,0.7-0.3,1.4-0.4,2c-0.1,0.6-0.2,1.1-0.3,1.7
    c0,0,0,0,0,0l-0.7-0.3c0-0.2,0.1-0.3,0.1-0.5c0.2-0.8,0.3-1.6,0.5-2.5c0.2-1,0.4-2,0.6-3.1c0.1-0.8,0.3-1.5,0.4-2.3
    c0-0.1,0-0.2-0.2-0.2c-0.8-0.1-1.6-0.3-2.4-0.4C15,1.8,14,1.6,12.9,1.4C11.7,1.2,10.6,1,9.4,0.8C9.2,0.8,9,0.7,8.7,0.7
    c-0.1,0-0.2,0-0.2,0.2c-0.1,0.5-0.2,1-0.3,1.5C8.1,2.9,8,3.5,7.9,4.1C7.8,4.7,7.7,5.4,7.5,6C7.4,7,7.2,8,7,9.1
    C6.8,9.8,6.7,10.5,6.6,11.3C6.6,11.2,6.6,11.3,6.6,11.3z M7.4,0.7c0,0.2-0.1,0.5-0.1,0.7c0,0,0,0-0.1,0C6.7,1.5,6.2,1.6,5.8,1.7
    C4.5,1.9,3.2,2.1,2,2.3c-0.1,0-0.3,0-0.4,0.1c-0.2,0-0.2,0.1-0.2,0.3c0.1,0.8,0.3,1.5,0.4,2.3c0.2,1,0.4,2,0.5,2.9
    c0.2,1,0.4,2,0.5,2.9c0,0.1,0,0.1-0.1,0.1c-0.2,0.1-0.4,0.1-0.6,0.2c0-0.2-0.1-0.3-0.1-0.5C1.8,9.3,1.5,7.9,1.3,6.5
    C1.1,5.2,0.8,4,0.6,2.7c-0.1-0.4,0.2-0.9,0.7-1c1.2-0.2,2.4-0.4,3.6-0.6C5.7,1,6.5,0.8,7.4,0.7C7.3,0.7,7.3,0.7,7.4,0.7z M10.1,8.3
    c0.3-0.3,0.7-0.6,1.1-0.8c0.4-0.2,0.9-0.4,1.4-0.4c0.5-0.1,0.9,0,1.4,0.2c0.4,0.2,0.6,0.7,0.5,1.1c-0.1,0.6-0.5,1-1,1.3
    c-0.6,0.3-1.2,0.5-1.9,0.4c-0.3,0-0.7-0.1-1-0.2c0,0-0.1,0-0.1,0c-0.2-0.1-0.3-0.2-0.2-0.4c0.3-0.8,0.7-1.4,1.4-1.9
    c0,0,0.1,0,0.2-0.1c0.2,0,0.5-0.1,0.7-0.1c-0.4,0.3-0.7,0.6-1,0.9c-0.3,0.3-0.5,0.7-0.7,1.1c0.1,0,0.2,0.1,0.4,0.1
    C12.2,9.8,13,9.6,13.6,9c0.1-0.1,0.2-0.3,0.3-0.4C14.1,8.3,14,8,13.7,7.8c-0.2-0.2-0.5-0.3-0.8-0.3c-0.6-0.1-1.2,0.1-1.8,0.4
    C10.8,8,10.4,8.2,10.1,8.3z M14.9,16c0.3,0.1,0.6,0.2,0.8,0.1c0.2,0,0.4-0.1,0.5-0.3c0.1-0.2,0-0.4-0.2-0.5
    c-0.2-0.1-0.3-0.1-0.5-0.1c-0.2,0-0.4,0-0.5,0c0,0,0,0-0.1,0c0.1-0.5,0.1-1,0.2-1.6h1.7v0.6h-1.2c0,0.2,0,0.3-0.1,0.4
    c0.1,0,0.3,0,0.4,0c0.3,0,0.6,0.1,0.8,0.4c0.3,0.3,0.3,1-0.3,1.4c-0.3,0.2-0.7,0.3-1.1,0.2c-0.2,0-0.4-0.1-0.6-0.1
    c-0.1,0-0.1,0-0.1-0.1C14.8,16.3,14.8,16.1,14.9,16z M5.3,16.5H5v-0.7H3.7c0-0.2,0-0.3,0-0.4c0,0,0,0,0-0.1c0.4-0.6,0.7-1.1,1.1-1.7
    c0,0,0.1-0.1,0.1-0.1c0.3,0,0.5,0,0.8,0c0,0,0,0,0,0c0,0.1,0,0.3,0,0.4c0,0.3,0,0.6-0.2,0.9c-0.2,0.5-0.3,1-0.2,1.5
    C5.3,16.4,5.3,16.5,5.3,16.5z M5.1,14.1c-0.2,0.4-0.5,0.8-0.7,1.2h0.7V14.1z M13,3.2c0.1-0.5,0.2-1,0.2-1.4l0.5,0.1
    c-0.1,0.7-0.3,1.4-0.4,2.1c-0.2,0-0.3-0.1-0.5-0.1c0,0-0.1,0-0.1-0.1c-0.2-0.5-0.4-1.1-0.5-1.6c0,0,0,0,0,0c-0.1,0.5-0.2,1-0.3,1.5
    l-0.5-0.1c0.1-0.7,0.3-1.4,0.4-2.1c0.2,0,0.4,0.1,0.5,0.1c0,0,0.1,0,0.1,0.1C12.7,2.2,12.9,2.7,13,3.2C13,3.2,13,3.2,13,3.2z M6.7,4
    C6.6,4,6.6,4,6.5,4C6.4,4.1,6.3,4,6.3,4C6,3.6,5.6,3.1,5.3,2.7c0,0,0,0,0,0c0.1,0.5,0.2,1,0.3,1.5L5.1,4.3C4.9,3.6,4.8,2.9,4.7,2.2
    c0.2,0,0.4-0.1,0.6-0.1c0,0,0.1,0,0.1,0c0.3,0.4,0.7,0.8,1,1.2c0,0,0,0,0,0C6.2,2.9,6.1,2.4,6,2l0.5-0.1c0,0.3,0.1,0.5,0.1,0.7
    c0.1,0.3,0.1,0.6,0.1,0.8c0,0.1,0,0.3,0,0.4C6.8,3.9,6.8,3.9,6.7,4z M2.2,4.7C2,4.1,1.9,3.4,1.8,2.7c0.2,0,0.4-0.1,0.6-0.1
    c0.2,0,0.4-0.1,0.6,0C3.3,2.6,3.4,2.8,3.4,3c0,0.1-0.1,0.2-0.2,0.3c0,0,0,0-0.1,0.1c0,0,0.1,0,0.1,0c0.2,0.1,0.4,0.2,0.4,0.4
    c0.1,0.2,0,0.4-0.2,0.6C3.4,4.5,3.2,4.6,3.1,4.6C2.8,4.7,2.5,4.7,2.2,4.7z M2.6,4.3c0.2,0,0.3,0,0.4-0.1C3.1,4.1,3.2,4,3.1,3.9
    c0-0.1-0.1-0.2-0.2-0.2c-0.1,0-0.3,0-0.4,0C2.5,3.9,2.6,4.1,2.6,4.3z M2.4,3.4c0.2,0,0.3,0,0.4-0.1C2.9,3.2,3,3.1,2.9,3
    c0-0.1-0.1-0.2-0.2-0.2c-0.1,0-0.3,0-0.4,0C2.4,3.1,2.4,3.2,2.4,3.4z M10,2.2c0.1,0,0.1,0.1,0.1,0.1c0.3,0.3,0.2,0.8-0.2,0.9
    c-0.2,0.1-0.4,0.1-0.6,0c-0.2,0-0.5-0.1-0.7-0.1c0,0,0,0,0,0c0-0.2,0.1-0.5,0.1-0.7C8.8,2,8.9,1.6,9,1.2c0-0.1,0-0.1,0.1-0.1
    c0.3,0,0.6,0,0.9,0.2c0.1,0,0.2,0.1,0.3,0.2c0.3,0.2,0.2,0.6-0.2,0.8C10.1,2.2,10.1,2.2,10,2.2z M9.1,2.9c0.1,0,0.3,0,0.4,0
    c0.1,0,0.2-0.1,0.3-0.2c0-0.1,0-0.2-0.1-0.3C9.6,2.4,9.4,2.3,9.3,2.3L9.1,2.9z M9.3,2c0,0,0.1,0,0.1,0c0.1,0,0.2,0,0.3,0
    c0.1,0,0.2-0.1,0.2-0.2c0-0.1,0-0.2-0.1-0.2C9.7,1.5,9.6,1.5,9.4,1.5C9.4,1.6,9.4,1.8,9.3,2L9.3,2z M18.2,3.5c0,0.3-0.1,0.6-0.3,0.9
    c-0.3,0.3-0.7,0.4-1.2,0.2c-0.4-0.1-0.6-0.4-0.7-0.8c0-0.4,0.1-0.7,0.3-1c0.3-0.3,0.7-0.4,1.2-0.3C18,2.6,18.2,3,18.2,3.5
    C18.2,3.4,18.2,3.4,18.2,3.5z M17.7,3.4c0,0,0-0.1,0-0.2c-0.1-0.2-0.2-0.3-0.4-0.4c-0.2,0-0.4,0-0.5,0.2c-0.2,0.3-0.3,0.6-0.2,0.9
    c0.1,0.2,0.2,0.3,0.4,0.3c0.2,0,0.4,0,0.5-0.2C17.6,3.8,17.7,3.6,17.7,3.4z M2,13.9c0.3-0.1,0.5-0.2,0.8-0.4c0,0,0,0,0,0
    c0.2,0,0.4,0,0.6,0v3H2.8v-2.4l-0.6,0.3C2.1,14.2,2.1,14.1,2,13.9z M15.9,2.3c-0.1,0.1-0.1,0.2-0.2,0.3c-0.2-0.1-0.3-0.1-0.5-0.2
    c-0.5-0.1-0.8,0.2-0.9,0.6c0,0.5,0.3,0.7,0.8,0.7c0,0,0.1,0,0.1,0c0-0.1,0.1-0.3,0.1-0.4l-0.3-0.1C15,3.3,15,3.1,15,3c0,0,0,0,0,0
    c0.3,0,0.5,0.1,0.8,0.1c-0.1,0.3-0.1,0.6-0.2,0.9c0,0,0,0.1,0,0.1c0,0.1,0,0.1-0.2,0.1c-0.3,0-0.6,0-0.9-0.1C14,4,13.8,3.6,13.8,3.1
    c0.1-0.4,0.3-0.7,0.7-0.9c0.3-0.1,0.6-0.1,0.9,0C15.6,2.2,15.8,2.2,15.9,2.3z M13.9,4.3c-0.1,0.5-0.2,1-0.3,1.5l-1.5-0.3
    c0.1-0.5,0.2-1,0.3-1.5L13.9,4.3z M2.2,5.1l1.5-0.3c0.1,0.5,0.2,1,0.3,1.5L2.4,6.5C2.4,6,2.3,5.5,2.2,5.1z M11.7,5.5l-1.5-0.3
    l0.3-1.5L11.9,4C11.8,4.5,11.8,5,11.7,5.5z M9,8.9L7.5,8.6c0.1-0.5,0.2-1,0.3-1.5l1.5,0.3C9.2,7.9,9.1,8.4,9,8.9z M9.6,5.6
    C9.5,6,9.5,6.5,9.4,7L7.8,6.8c0.1-0.5,0.2-1,0.3-1.5L9.6,5.6z M8.4,3.4L10,3.7c-0.1,0.5-0.2,1-0.3,1.5L8.2,4.9
    C8.3,4.4,8.3,3.9,8.4,3.4z M2.8,8.4c-0.1-0.5-0.2-1-0.3-1.5l1.5-0.3c0.1,0.5,0.2,1,0.3,1.5L2.8,8.4z M5.7,4.5c0.1,0.5,0.2,1,0.3,1.5
    L4.4,6.2c-0.1-0.5-0.2-1-0.3-1.5L5.7,4.5z M15.7,8.1c0.1-0.5,0.2-1,0.3-1.5l1.5,0.3c-0.1,0.5-0.2,1-0.3,1.5L15.7,8.1z M8.9,9.3
    c-0.1,0.5-0.2,1-0.3,1.5l-1.5-0.3C7.2,10,7.3,9.5,7.4,9L8.9,9.3z M14.1,5.9l0.3-1.5l1.5,0.3c-0.1,0.5-0.2,1-0.3,1.5L14.1,5.9z
     M15.6,8.5l1.5,0.3c-0.1,0.5-0.2,1-0.3,1.5l-1.5-0.3C15.4,9.4,15.5,9,15.6,8.5z M17.6,6.5L16,6.2c0.1-0.5,0.2-1,0.3-1.5L17.8,5
    C17.7,5.5,17.6,6,17.6,6.5L17.6,6.5z M2.9,8.8l1.5-0.3C4.5,9,4.6,9.5,4.7,10l-1.5,0.3C3,9.7,3,9.3,2.9,8.8z M4.5,6.6L6,6.3
    c0,0.1,0,0.2,0.1,0.3c0,0.1,0,0.1,0,0.2c0.1,0.3,0,0.5,0,0.8c0,0.2,0,0.2-0.2,0.2C5.5,7.9,5.1,8,4.8,8C4.7,7.6,4.6,7.1,4.5,6.6z
     M9.8,7.1c0.1-0.5,0.2-1,0.3-1.5l1.5,0.3c0,0.2-0.1,0.4-0.1,0.6c0,0,0,0-0.1,0.1c-0.4,0.1-0.7,0.4-1,0.6c0,0,0,0-0.1,0
    C10.2,7.1,10,7.1,9.8,7.1z M15.2,8c-0.2,0-0.4-0.1-0.5-0.1c0,0-0.1,0-0.1-0.1c-0.2-0.4-0.4-0.7-0.7-1c0,0,0-0.1,0-0.1
    c0-0.2,0.1-0.3,0.1-0.5l1.5,0.3C15.4,7,15.3,7.5,15.2,8L15.2,8z M9.4,9.3c0.2,0,0.4,0.1,0.6,0.1c0,0,0,0,0,0.1
    c0.1,0.4,0.4,0.7,0.7,1c0,0,0,0,0,0.1c0,0.2-0.1,0.3-0.1,0.5l-1.5-0.3C9.2,10.3,9.3,9.8,9.4,9.3z M8.6,11.1c0,0.2-0.1,0.4-0.1,0.5
    c0,0.1-0.1,0.2-0.2,0.2c-0.2,0.1-0.4,0.2-0.6,0.3c0,0-0.1-0.1-0.1-0.1c-0.2-0.2-0.4-0.3-0.6-0.5c0,0-0.1,0-0.1-0.1
    c0-0.2,0.1-0.4,0.1-0.6L8.6,11.1z M5.1,9.9C5,9.4,4.9,8.9,4.8,8.4L6,8.3c0,0.2-0.1,0.3-0.1,0.4C5.8,9,5.8,9.4,5.7,9.7
    c0,0.1,0,0.1-0.1,0.1C5.4,9.8,5.3,9.9,5.1,9.9z M11,1.4l0.5,0.1l-0.4,2.1l-0.5-0.1C10.7,2.8,10.8,2.1,11,1.4z M3.8,2.3l0.5-0.1
    c0.1,0.7,0.3,1.4,0.4,2.1L4.1,4.4C4,3.7,3.9,3,3.8,2.3z M14.8,10.3c0,0.2-0.1,0.4-0.1,0.5c0,0,0,0-0.1,0c-0.5,0.1-1,0.3-1.5,0.6
    c0,0-0.1,0-0.2,0c0-0.2,0.1-0.3,0.1-0.5c0,0,0,0,0.1,0c0.4-0.1,0.8-0.4,1.1-0.7c0,0,0.1-0.1,0.1,0C14.5,10.2,14.7,10.2,14.8,10.3z
     M13.6,6.2c0,0.1,0,0.3-0.1,0.4c-0.2-0.1-0.5-0.2-0.8-0.2c-0.3,0-0.5,0-0.8,0L12,6L13.6,6.2z M9.9,9L9.4,8.9l0.3-1.5l0.4,0.1
    C9.9,8,9.8,8.5,9.9,9z M6.1,4.4l0.6-0.1c-0.1,0.5-0.2,1-0.3,1.6l0,0C6.3,5.4,6.2,4.9,6.1,4.4z M9,11.2l1.5,0.3l0,0.2
    c-0.5-0.1-1.1,0-1.6,0.1L9,11.2z M15.2,10.7c0-0.1,0.1-0.3,0.1-0.4l1.5,0.3c0,0.1,0,0.1,0,0.2C16.2,10.7,15.7,10.7,15.2,10.7z
     M14.8,8.3l0.4,0.1c-0.1,0.5-0.2,1-0.3,1.5l-0.3-0.1C14.8,9.3,14.9,8.8,14.8,8.3L14.8,8.3z M12.7,11.1c0,0.1,0,0.2-0.1,0.3l-1.5-0.3
    c0-0.1,0-0.2,0.1-0.3C11.6,11,12.1,11.1,12.7,11.1z M11,11.7l0-0.2l1.5,0.3c0,0.2,0,0.3-0.2,0.4C11.9,11.9,11.4,11.8,11,11.7
    L11,11.7z M4.8,10.4c0,0.1,0,0.2,0.1,0.4c-0.5-0.1-1.1,0-1.6,0.1c0-0.1,0-0.1,0-0.2L4.8,10.4z M5.5,10.9C5.5,10.9,5.5,10.9,5.5,10.9
    c-0.2,0-0.2,0-0.2-0.2c0-0.1,0-0.2-0.1-0.4l0.4-0.1C5.6,10.5,5.5,10.7,5.5,10.9L5.5,10.9z M9.4,16C9.4,15.9,9.4,15.9,9.4,16
    c-0.6-0.3-0.6-1-0.1-1.3c0.4-0.2,0.9-0.3,1.3-0.1c0.3,0.1,0.4,0.3,0.4,0.6c0,0.3-0.1,0.5-0.4,0.7c0,0,0,0-0.1,0
    c0.1,0.1,0.2,0.1,0.3,0.2c0.4,0.3,0.4,0.9-0.1,1.2c-0.3,0.2-0.7,0.3-1.1,0.2c-0.2,0-0.5-0.1-0.6-0.2c-0.5-0.3-0.5-1,0-1.3
    C9.3,16,9.3,16,9.4,16L9.4,16z M10,17.1c0.2,0,0.4-0.1,0.4-0.3c0.1-0.3-0.2-0.6-0.5-0.6c0,0,0,0,0,0c-0.2,0-0.4,0.3-0.4,0.5
    C9.6,16.9,9.8,17.1,10,17.1L10,17.1z M10,14.9c-0.2,0-0.4,0.1-0.4,0.4c0,0.2,0.3,0.4,0.4,0.4c0,0,0,0,0,0c0.2-0.1,0.3-0.2,0.3-0.4
    C10.4,15,10.2,14.9,10,14.9L10,14.9z"/>
<path id="product-chess" class="st0" d="M18.2,2.5c0.3,0.4,0.4,0.8,0.4,1.3l0,12.4c0,1.5-1.5,2.7-3.3,2.7l-10.7,0
    c-1.4,0-2.8-0.2-3.2-0.4C2,19.3,3.7,20,4.9,20l11.8,0c1.8,0,3.3-1.2,3.3-2.7l0-12.5C20,3.9,19.3,3,18.2,2.5z M6.8,5.9
    c0.7,0,0.9,0.1,1.1,0.4c0.3,0.3,0.3,0.8,0,1.1C7.5,7.7,7.4,7.9,7.5,8.2c0,0.2,0.1,0.3,0.1,0.4l0.8,0.2c0.1-0.4,0.1-1,0-1.9
    c0-0.1,0-0.1,0.1-0.2C8.6,6.5,9,6.8,9.3,7C9.5,7,9.7,6.9,9.8,6.9c0,0,0.1,0,0.2,0c0.2,0,0.4,0.1,0.5,0.2c-0.1-0.2-0.2-0.4-0.3-0.6
    C9.8,5.8,8.9,4.1,8.4,3.9C8.1,3.8,8.1,3.8,7.9,4c0,0.1-0.1,0.2-0.2,0.3c0,0.1-0.1,0.1-0.2,0.2C7.2,5,6.8,5.5,6.4,5.9
    C6.5,5.9,6.6,5.9,6.8,5.9L6.8,5.9z M9.3,11.6c0.2,0.2,0.3,0.5,0.5,0.7c0.1-0.2,0.2-0.5,0.2-0.7C9.7,11.6,9.5,11.6,9.3,11.6z
     M14,17.8c1.8,0,3.3-1.2,3.3-2.7l0-12.5C17.2,1.2,15.8,0,14,0L3.3,0C1.5,0,0,1.2,0,2.7l0,0l0,12.4c0,1.5,1.5,2.7,3.3,2.7L14,17.8z
     M2.3,8.3c-0.8,0.4-1,0.5-1.1,0.3C1.1,8.5,1.1,8.4,1.8,7.9l0,0c0.8-0.6,1.9-1.3,2.5-1.7C4.6,5.9,4.8,5.8,5,5.6
    C4.8,5.4,4.6,5.2,4.4,5C4.3,4.8,4.1,4.6,4,4.4C3.6,3.8,3.5,3.7,3.7,3.6c0.1-0.1,0.3-0.1,0.6,0.1l0.1,0c0.5,0.2,1,0.7,1.4,1.1
    C6,4.6,6.1,4.3,6.2,3.9c0.1-0.3,0.2-0.6,0.2-0.7c-0.1,0-0.2,0-0.4,0c-0.1,0-0.2,0-0.2,0c-1,0-1.8-0.3-1.9-0.6l0-0.1l0-0.1
    c0-0.1,0.1-0.1,0.3-0.1c0.8,0,1.6-0.2,2.4-0.4l0,0c0.7,0,0.9,0.2,1.1,0.6C8,3,8,3,8.5,2.8c0.6-0.2,1,0.2,1.3,0.6
    c0.3-0.2,0.6-0.6,0.7-1C10.6,2.2,10.7,2,10.9,2c0.2,0,0.4,0.2,0.6,0.7l0.1,0.2c0.2,0.4,0.4,1-0.5,1.3c-0.2,0.1-0.5,0.2-0.8,0.2
    c0.2,0.5,0.4,0.9,0.6,1.3c0.4-0.2,0.8-0.5,1.2-0.8c0.1-0.1,0.2-0.1,0.2-0.2c0.2-0.2,0.3-0.3,0.4-0.2c0.2,0,0.2,0.1,0.3,0.3
    c0,0.1,0.1,0.1,0.1,0.2l0.1,0.1c0.2,0.3,0.5,0.6,0.3,0.9c-0.1,0.2-0.3,0.3-0.6,0.3c-0.5,0.1-1.1,0.1-1.6,0.2
    c0.1,0.2,0.2,0.4,0.3,0.5c0.6,0.8,1.4,1.6,2.9,1.5C15,8.3,15.4,8.2,15.8,8c0.3-0.1,0.5-0.2,0.6-0.1c0.1,0,0.1,0.1,0.1,0.1
    c0.1,0.3-0.7,0.8-1.4,1.2l0,0c-2.2,0.9-3,0.2-3.6-0.5c-0.2-0.2-0.3-0.4-0.4-0.7c0,0.2-0.1,0.3-0.2,0.4c-0.2,0.3-0.2,0.5-0.2,0.7
    c0,0.1,0,0.2,0,0.2c0,0.2,0.1,0.3,0.4,0.3c0.1,0,0.2,0,0.2,0c0.3-0.1,0.7-0.2,1,0.3c0.3,0.3,0.2,0.5,0.1,0.6
    c-0.2,0.2-0.4,0.2-0.8,0.2c-0.2,0-0.4,0-0.6-0.1c-0.1,0-0.2,0-0.2-0.1l0.1,0.1c0.1,0.1,0.2,0.2,0.3,0.3c0.6,0.5,0.3,0.9-0.1,1.3
    c-0.3,0.3-0.4,0.8-0.5,0.9c0.1,0.2,0.7,0.9,0.9,1.3l0.1,0.1c0.3,0.5,0.7,1.1,0.3,1.7l0,0c-0.1,0.2-0.2,0.3-0.4,0.3l0,0
    c-0.3,0-0.5-0.3-1.5-2c-0.4,0.5-1.2,1.4-2,1.3l0,0c-0.4,0-0.7-0.2-0.9-0.7c0,0,0,0,0-0.1v-0.8l0.3,0.6c0.3-0.1,1.4-0.6,1.9-1.7
    c-0.5-1-0.9-1.8-1-2.2L8,11l0,0l0-0.1c0-0.1,0-0.2,0.1-0.2c0.1-0.1,0.4-0.1,0.8-0.1c0.3,0.1,0.7,0,1-0.1c0.1,0,0.2-0.1,0.3-0.1
    c0,0,0.1,0,0.1,0c-0.4-0.3-0.7-0.7-0.6-1.8c0-0.1,0-0.3,0-0.4c0-0.2,0-0.5,0-0.5c-0.1,0-0.2,0-0.3,0.1c-0.2,1.4-0.5,2.1-1,2.2
    C8.2,10.1,8,10,7.7,9.8l0,0V9.7c0-0.1,0.1-0.1,0.1-0.1c0.1,0,0.4-0.2,0.6-0.8l-0.9,0c0,0-0.1,0-0.1,0C7,8.6,6.6,8.5,6.1,8.4
    C6.1,8.6,6,8.8,5.9,9c0.8,0,1-0.1,1.3,0.3c0,0.1,0.1,0.1,0.1,0.2c0.3,0.3,0.6,0.8,0.3,1.4c-0.2,0.4-0.2,0.7-0.3,1.2
    c-0.1,0.4-0.2,0.8-0.3,1.3c-0.2,0.9-0.6,1.9-1.1,1.9h0c-0.3,0-0.5-0.4-0.6-0.8c-0.3-1.1-0.7-1.8-0.9-2.1c0,0,0,0,0-0.1v0
    c0-0.1,0.1-0.2,0.2-0.2c0.3-0.1,0.6,0.2,0.6,0.4c0.3,0.4,0.4,0.4,0.4,0.4c0,0,0.2,0,0.4-0.8c0.2-0.6,0.3-1.3,0.4-2
    C6.4,10,6.2,9.8,5.9,9.9C5.7,9.9,5.6,10,5.4,10.1c-0.4,0.2-0.9,0.5-1.3,0.3c-0.2-0.1-0.3-0.2-0.3-0.4c0-0.5,0.5-1,0.9-1.3
    C5.1,8.4,5,8.3,4.8,7.9C4.7,7.8,4.4,7.6,4.6,7.4c0.1-0.1,0.4-0.1,0.9,0c0.4,0.1,0.8,0.2,1,0.1c0.2-0.1,0.2-0.4,0.2-0.8
    C6.4,6.6,6.2,6.5,5.9,6.3C5.2,6.9,4.2,7.4,2.9,8C2.7,8.1,2.5,8.2,2.3,8.3z"/>
<path id="product-arcade" d="M19.753,12.318l-9.343,6.188c-0.258,0.144-0.584,0.144-0.832,0l-9.354-6.188
    c-0.101-0.057-0.169-0.124-0.225-0.2v0.754c0,0.201,0.112,0.392,0.303,0.506l9.242,6.494c0.27,0.171,0.64,0.171,0.91,0l9.242-6.494
    C19.888,13.254,20,13.072,20,12.872v-0.754C19.921,12.194,19.854,12.27,19.753,12.318z M6.603,11.268l2.976,1.671
    c0.248,0.144,0.573,0.144,0.82,0l2.976-1.671c0.236-0.134,0.225-0.42-0.011-0.544l-1.449-0.735v0.974c0,0.22-0.135,0.43-0.359,0.544
    c-0.348,0.172-0.898,0.392-1.549,0.392c-0.629,0-1.202-0.22-1.55-0.392c-0.225-0.115-0.371-0.325-0.371-0.544V9.979l-1.482,0.754
    C6.378,10.847,6.367,11.134,6.603,11.268z M0.371,10.905l7.67-3.514c-1.516-0.63-2.56-1.958-2.56-3.495
    c0-2.167,2.088-3.925,4.648-3.896c2.471,0.029,4.481,1.748,4.515,3.848c0.022,1.576-1.067,2.941-2.639,3.571l7.614,3.485
    c0.483,0.238,0.494,0.506,0.034,0.764l-9.253,5.806c-0.247,0.143-0.572,0.143-0.82,0l-9.242-5.806
    C-0.124,11.411-0.112,11.143,0.371,10.905z M17.024,11.382c0,0.249,0.382,0.439,0.865,0.439c0.472,0,0.865-0.2,0.865-0.439
    c0-0.239-0.382-0.439-0.865-0.439S17.024,11.134,17.024,11.382z M16.047,11.945c-0.539,0-0.977,0.22-0.977,0.497
    c0,0.277,0.438,0.497,0.977,0.497c0.539,0,0.977-0.219,0.977-0.497C17.024,12.165,16.586,11.945,16.047,11.945L16.047,11.945z
     M11.544,1.767c0.854,0.439,1.415,1.222,1.415,2.12c0,0.659-0.292,1.261-0.775,1.709c-0.056,0.067-0.09,0.143-0.09,0.229
    c0,0.22,0.202,0.392,0.46,0.392c0.146,0,0.27-0.057,0.359-0.153c0.606-0.583,0.966-1.346,0.966-2.187
    c0-1.175-0.741-2.206-1.853-2.779c-0.09-0.048-0.191-0.076-0.303-0.066c-0.213,0.019-0.382,0.162-0.404,0.344
    C11.286,1.547,11.387,1.7,11.544,1.767z M4.705,11.525l4.773,2.673c0.314,0.172,0.719,0.172,1.033,0l4.773-2.673
    c0.348-0.191,0.337-0.63-0.023-0.812l-3.335-1.69V7.448c-0.27,0.105-0.562,0.181-0.865,0.239v2.625c0,0.22-0.18,0.401-0.438,0.43
    c-0.303,0.029-0.561-0.172-0.561-0.42v-2.54c-0.708,0-1.37-0.134-1.965-0.373v1.595l-3.369,1.709
    C4.368,10.895,4.357,11.325,4.705,11.525L4.705,11.525z"/>
<path id="product-casino" d="M10,0C4.51,0,0,4.51,0,10s4.51,10,10,10s10-4.51,10-10C20,4.51,15.49,0,10,0z
     M10,19.019c-4.874,0-8.824-3.951-8.824-8.824c0-4.874,3.95-8.824,8.824-8.824c4.873,0,8.824,3.951,8.824,8.824c0,0,0,0,0,0.001
    c0.021,4.852-3.896,8.802-8.748,8.823C10.05,19.019,10.025,19.019,10,19.019L10,19.019z M10,3.333c-3.722,0-6.862,3.138-6.862,6.863
    c0,3.725,3.137,6.863,6.862,6.863c3.725,0,6.863-3.138,6.863-6.863C16.862,6.274,13.921,3.333,10,3.333z M14.901,7.055
    c0.197,0.589,0.589,1.177,0.589,1.765l-1.177,0.396c-0.196-0.588-0.196-0.98-0.589-1.372L14.901,7.055z M11.371,4.702
    c0.588,0,1.177,0.392,1.765,0.589l-0.785,1.176c-0.392-0.392-0.784-0.588-1.372-0.588L11.371,4.702z M8.821,4.702l0.197,1.177
    C8.504,5.901,8.016,6.111,7.646,6.467L7.062,5.294c0.389-0.197,1.173-0.589,1.761-0.589L8.821,4.702z M5.291,13.133
    c-0.393-0.588-0.589-1.177-0.785-1.765l1.177-0.196c0.191,0.392,0.392,0.981,0.588,1.373L5.291,13.133z M5.683,9.211L4.51,8.823
    c0.196-0.588,0.392-1.175,0.784-1.761l0.98,0.589C6.079,8.235,5.882,8.627,5.686,9.215L5.683,9.211z M8.819,15.682
    c-0.588-0.191-1.373-0.392-1.765-0.784l0.589-0.98c0.392,0.196,0.98,0.393,1.372,0.588L8.819,15.682z M11.369,15.682l-0.393-1.177
    c0.393-0.195,0.98-0.392,1.372-0.588l0.785,0.98c-0.584,0.396-1.173,0.592-1.761,0.788L11.369,15.682z M9.996,13.525
    c-1.825,0.016-3.318-1.452-3.333-3.278c0-0.018,0-0.037,0-0.055c0-1.765,1.569-3.333,3.333-3.333
    c1.825-0.016,3.317,1.451,3.333,3.276c0,0.019,0,0.039,0,0.058C13.525,11.957,11.957,13.525,9.996,13.525L9.996,13.525z
     M14.897,13.133l-1.176-0.588c0.392-0.392,0.392-0.981,0.588-1.373l1.177,0.196c0.004,0.592-0.388,1.181-0.585,1.769L14.897,13.133z
     M12.349,9.603c-0.191,0-0.588,0.197-0.588,0.392c-0.392,0-0.98-0.195-1.373-0.195c0-0.393,0-0.981-0.195-1.373
    c0.392,0,0.588-0.392,0.588-0.784S10.392,7.062,10,7.062S9.412,7.65,9.412,7.846c0,0.196,0.196,0.392,0.588,0.589
    c-0.196,0.391-0.392,0.98-0.392,1.372c-0.392,0-0.98,0-1.373,0.196c0-0.392-0.392-0.588-0.587-0.392
    c-0.392,0-0.589,0.392-0.589,0.588c0.003,0.394,0.392,0.584,0.784,0.584c0.197,0,0.393-0.196,0.589-0.588
    c0.391,0.195,0.784,0.195,1.176,0.195c0,0.393,0,0.981,0.196,1.374c-0.392,0.19-0.588,0.587-0.392,0.979
    c0.197,0.393,0.392,0.588,0.784,0.393c0.393,0,0.588-0.393,0.393-0.785c-0.015-0.21-0.182-0.377-0.393-0.392
    c0.196-0.392,0.196-0.98,0.196-1.372c0.392,0,0.981,0,1.374-0.197c0,0.393,0.392,0.589,0.784,0.393c0.392,0,0.588-0.393,0.392-0.785
    c0-0.195-0.392-0.391-0.589-0.391L12.349,9.603z"/>
<path id="product-casino-gold" d="M9.909,10.496c0.364,0,0.913-0.198,1.095-0.594
    c0.183-0.396,0.183-0.792,0.183-1.188c0-0.199,0-0.396,0.183-0.594c0.365-0.396,0.913-0.595,1.278-0.396
    c0.365,0,0.548,0.198,0.548,0.594c0,0.396,0,0.793-0.182,0.99C12.831,9.704,12.1,9.704,11.917,9.11
    c-0.182-0.594,0.366-0.595,0.548-0.396s0.183,0.396,0.183,0.594c0,0.198,0.548-0.396,0-0.792c-0.365-0.395-0.731-0.395-0.913,0
    c-0.183,0.199-0.183,0.595-0.183,0.792c0.183,0.594,1.096,0.99,1.644,0.396h0.182c0.549,0,0.731-0.594,0.914-0.99
    c0-0.396,0.183-0.594,0.365-0.792s0.548-0.198,0.731-0.198c0.365,0,0.548,0.198,0.73,0.396c0.183,0.395-0.182,1.188-0.913,0.99
    c-0.548-0.199-0.548-0.99,0-0.793c0.196,0.014,0.353,0.184,0.365,0.396c0.101-0.104,0.104-0.278,0.008-0.388
    c-0.002-0.003-0.005-0.006-0.008-0.009c0.183-0.396-0.182-0.594-0.548-0.396c-0.098-0.002-0.18,0.083-0.182,0.189
    c0,0.003,0,0.006,0,0.009c-0.183,0.197-0.183,0.395-0.183,0.792c0,0.396,0.365,0.594,0.548,0.594
    c1.096,0.199,1.644-0.792,1.278-1.584c0-0.198-0.182-0.198-0.182-0.396c0.182,0,0.182-0.197,0.366-0.197
    c0.182-0.198,0.364-0.793-0.731-1.98c-0.548-0.396-0.548-0.99-0.183-1.584c0.73-0.792,1.827-0.396,1.827,0.395
    s-0.549,0.99-0.913,0.792c-0.365-0.197-0.366-0.594-0.184-0.594h0.548c0.183,0,0-0.199,0-0.199c-0.182-0.198-0.548-0.198-0.73-0.198
    c-0.365,0.198-0.548,0.99,0.182,1.387c0.914,0.396,1.647-0.199,1.647-1.189c0-0.395-0.183-0.594-0.365-0.792
    c-0.182-0.396-0.366-0.792-0.731-1.188l0.183-0.198l-1.281-0.792c-0.548-0.198-0.914-0.198-1.461,0
    C12.831,1.584,10.457,1.783,9.909,0C9.36,1.98,6.986,1.584,5.525,1.188c-0.548-0.198-0.913-0.198-1.461,0L2.786,1.783
    C2.783,1.89,2.861,1.978,2.96,1.98c0.002,0,0.005,0,0.008,0C2.603,2.38,2.42,2.773,2.238,3.168C2.055,3.367,1.872,3.763,1.872,3.96
    c0,0.99,0.914,1.783,1.644,1.188C4.064,4.753,4.064,3.96,3.699,3.763c-0.183,0-0.548,0-0.731,0.197c0,0-0.182,0.198,0,0.198h0.548
    c0.183,0.199,0.183,0.595-0.183,0.595C2.968,5.148,2.42,4.951,2.42,4.158s1.096-1.188,1.826-0.395c0.366,0.395,0.366,1.188,0,1.584
    c-1.278,0.99-1.097,1.585-0.913,1.98c0,0.197,0.183,0.197,0.366,0.197c-0.183,0-0.183,0.199-0.183,0.396
    C3.149,8.714,3.699,9.704,4.612,9.505c0.365,0,0.548-0.395,0.548-0.594s0-0.594-0.183-0.792c-0.183-0.396-0.547-0.396-0.731,0
    C4.249,8.227,4.17,8.315,4.072,8.317c-0.002,0-0.005,0-0.008,0v0.396C4.077,8.501,4.233,8.332,4.43,8.317
    c0.547-0.197,0.547,0.793,0,0.793C3.881,9.312,3.516,8.515,3.699,7.921C3.881,7.724,4.064,7.525,4.43,7.525
    c0.182,0,0.547,0,0.73,0.199c0.182,0.199,0.365,0.594,0.365,0.792c0.182,0.595,0.366,0.99,0.913,0.99h0.183
    c0.548,0.792,1.644,0.396,1.826-0.193c0.183-0.396,0-0.792-0.365-0.99c-0.183-0.198-0.548,0-0.731,0c-0.365,0.396,0,0.99,0,0.792
    s-0.003-0.4,0.188-0.599c0.19-0.198,0.548,0,0.548,0.396C7.904,9.704,7.174,9.505,6.809,9.308C6.625,9.11,6.625,8.714,6.625,8.317
    c0-0.396,0.366-0.594,0.549-0.594c0.548-0.199,0.913,0,1.278,0.396c0.183,0.197,0.183,0.395,0.183,0.594
    c-0.183,0.371-0.183,0.817,0,1.188C8.996,10.1,9.542,10.496,9.909,10.496L9.909,10.496z M9.909,9.505
    c-0.183,0-0.549-0.198-0.549-0.594c0-0.198,0.183-0.594,0.549-0.594c0.182,0,0.548,0.198,0.548,0.594
    C10.457,9.11,10.273,9.505,9.909,9.505z M9.909,1.584c0.182,0,0.548,0.199,0.548,0.594c0,0.198-0.184,0.595-0.548,0.595
    c-0.183,0-0.549-0.199-0.549-0.595C9.543,1.783,9.726,1.584,9.909,1.584z M9.909,3.367c0.364,0,0.548,0.396,0.548,0.594
    c0,0.219-0.164,0.396-0.366,0.396c-0.201,0-0.365-0.177-0.365-0.396C9.543,3.564,9.726,3.367,9.909,3.367z M9.909,5.747
    c0.392,0.029,0.703,0.367,0.73,0.792c0,0.396-0.182,0.99-0.73,0.99C9.517,7.5,9.205,7.162,9.178,6.737
    C9.178,6.143,9.543,5.747,9.909,5.747z M4.612,11.485c0,0,1.644-0.594,2.374,0.595c0.548,1.188-1.095,1.188-1.095,1.188
    c0.913,0.396,1.826-0.396,1.826-0.396C6.986,10.1,4.612,11.485,4.612,11.485z M15.388,11.485c0,0,0,1.386-1.096,1.783
    c0,0,1.278-1.188,0-1.584c-1.096-0.594-2.009,1.188-2.009,1.188S13.014,10.1,15.388,11.485L15.388,11.485z M18.857,4.552
    c-0.913,0.594-1.643,1.585-1.826,2.773c-0.182,0.594,0,1.188,0.366,1.782c0,0-1.279,1.386-2.375,1.188
    c-1.826-0.396-1.826,1.386-3.47,0.198c0,0-0.365,0.595-1.461,0.595c-1.095,0-1.644-0.595-1.644-0.595
    c-1.461,0.991-1.461-0.79-3.47-0.394c-1.096,0.198-2.374-0.99-2.374-0.99c0.365-0.595,0.546-1.189,0.365-1.783
    C2.786,6.14,2.055,5.148,1.145,4.552C0.228,5.545-0.137,6.932,0.046,8.12c0.365,2.574,1.826,0.99,1.826,0.99
    s-1.096,1.584-0.547,3.168c0.548,1.584,1.095,1.386,0.913,2.173c-0.366,0.99,0.182,1.981,0.182,1.981
    c0-0.595,0.548-0.792,1.096-0.792c0.914,0,1.644-1.387,1.644-1.387c0,1.188-0.914,1.188-0.914,2.38c0,0.99,0.548,1.783,1.461,1.98
    C5.891,19.406,6.986,20,6.986,20l0.183-0.99c0.73,0.198,2.374,0.396,2.922,0.396s2.374-0.199,2.923-0.396L13.196,20
    c0,0,0.913-0.594,1.279-1.386c0.913-0.197,1.461-0.988,1.461-1.979c0-1.188-0.914-1.188-0.914-2.38c0,0,0.731,1.387,1.645,1.387
    c0.547,0,1.095,0.197,1.095,0.99c0,0,0.365-0.99,0.183-1.98c-0.365-0.99,0.365-0.594,0.913-2.179
    c0.548-1.585-0.727-3.161-0.727-3.161s1.461,1.584,1.827-0.99C20.134,6.932,19.771,5.545,18.857,4.552L18.857,4.552z M1.872,8.315
    L1.325,7.523c0.182,1.189-0.549,2.773-0.914,0.792c-0.364-1.98,0.734-2.968,0.734-2.968c1.458,1.386,0.727,2.97,0.727,2.97V8.315z
     M8.63,11.682c0.366-0.198,0.73,0.396,0.73,0.396s0.183-0.396,0.549-0.396c0.365,0,0.548,0.396,0.548,0.396s0.365-0.595,0.73-0.396
    c0.364,0.199,0,1.188-1.278,1.188s-1.644-0.988-1.279-1.186V11.682z M9.909,13.464c-0.731,0-1.279,0.595-1.097,0.198
    c0.366-0.396,0.914-0.594,1.097-0.594c0.364,0,0.913,0.198,1.095,0.396c0.366,0.4-0.365,0.002-1.095,0.002V13.464z M4.977,13.267
    c-0.547-0.396-0.913-0.99-0.913-1.783c0,0-1.096,0.198-0.913-1.386c0,0,0.365,1.188,1.095,0.792c0.73-0.396,3.292-0.988,3.836,1.982
    c0,0.199-1.644,1.387-3.105,0.396V13.267z M12.831,18.217c-0.548,0-0.914-0.198-1.279-0.594c-0.365,0.594-0.913,0.792-1.461,0.792
    s-1.279-0.199-1.644-0.792c-0.345,0.359-0.799,0.571-1.278,0.594c-1.278-0.198-2.557-2.971,1.278-3.168c0,0,0.183-1.189,1.644-1.189
    s1.646,1.191,1.646,1.191c3.651,0.197,2.195,2.971,1.094,3.168V18.217z M15.753,11.485c0,0.792-0.365,1.386-0.913,1.783
    c-1.462,0.99-2.923-0.198-2.923-0.198c0.548-2.971,3.105-2.38,3.836-1.98s1.096-0.792,1.096-0.792
    C16.849,11.683,15.753,11.485,15.753,11.485L15.753,11.485z M19.588,8.317c-0.365,2.172-1.095,0.396-0.913-0.793L18.13,8.317
    c0,0-0.547-1.584,0.73-3.169c0,0.199,1.097,0.991,0.731,3.169L19.588,8.317z M11.191,15.445c0,0,0-0.99-1.277-0.99
    c-1.278,0-1.279,0.99-1.279,0.99c-2.923,0-2.557,2.38-1.461,2.38c0.365,0,0.73-0.198,1.095-0.395c-0.182-0.199-0.182-0.396,0-0.793
    c-0.098,0.002-0.18-0.083-0.182-0.189c0-0.003,0-0.006,0-0.008c0,0,0.178-0.403,0.36-0.403c0.099-0.003,0.181,0.081,0.184,0.188
    c0,0.006,0,0.013,0,0.019v0.199c-0.183,0.396-0.183,0.792,0.182,0.99c0.366,0.395,0.731,0.395,1.279,0.395
    c0.366,0,0.913-0.197,1.279-0.395c0-0.199,0.182-0.595,0-0.99c0-0.11,0.081-0.199,0.182-0.2s0.184,0.088,0.184,0.198
    c0,0.109-0.081,0.199-0.182,0.2c0,0-0.001,0-0.002,0v0.792c0.365,0.395,0.731,0.395,1.096,0.395
    c1.284-0.005,1.461-2.382-1.461-2.382L11.191,15.445z"/>
<path id="product-dafasports" d="M11.862,9.966c0,1.943-0.957,2.916-2.87,2.916H8.068V7.113h1.125
    C10.973,7.113,11.862,8.064,11.862,9.966z M20,9.999c0,5.523-4.476,10-9.999,10.001S0,15.524,0,10.001S4.476,0,9.999,0
    C10,0,10,0,10,0C15.52,0.006,19.993,4.479,20,9.999L20,9.999z M12.139,12.932c0.729-0.694,1.093-1.697,1.093-3.008
    c0-1.236-0.35-2.195-1.05-2.876c-0.7-0.682-1.685-1.022-2.956-1.022H6.769v7.947h2.223C10.362,13.973,11.411,13.626,12.139,12.932z
     M18.521,10.584l0.049,0.109c0.115-0.122,0.223-0.249,0.324-0.382c0.036-0.047,0.073-0.095,0.11-0.149
    c0.14-0.196,0.26-0.406,0.357-0.627c-0.078-1.615-0.575-3.182-1.443-4.546l-0.656-0.304c-0.214-0.054-0.432-0.089-0.651-0.105
    c0.02,0.076,0.049,0.191,0.078,0.348c0.075,0.392,0.119,0.789,0.131,1.188v0.219c-0.003,0.539-0.051,1.077-0.143,1.609
    c0.419,0.356,0.782,0.774,1.073,1.24C18.04,9.632,18.297,10.1,18.521,10.584L18.521,10.584z M12.65,1.007
    c-1.727-0.507-3.563-0.507-5.29,0C7.245,1.115,7.142,1.233,7.05,1.361c-0.042,0.057-0.078,0.113-0.112,0.17
    C6.913,1.571,6.89,1.61,6.869,1.648C6.801,1.772,6.742,1.902,6.692,2.035h0.052C7.336,2.068,7.92,2.189,8.478,2.394
    c0.961,0.335,1.414,0.561,1.534,0.626c0.096-0.055,0.527-0.281,1.517-0.626c0.464-0.167,0.946-0.28,1.437-0.337
    c0.154-0.016,0.274-0.023,0.35-0.024c-0.089-0.24-0.21-0.466-0.359-0.674C12.865,1.232,12.763,1.115,12.65,1.007z M2.078,4.995
    C1.212,6.36,0.715,7.927,0.638,9.542c0.098,0.219,0.218,0.428,0.359,0.622c0.133,0.188,0.28,0.366,0.44,0.533
    c0.233-0.524,0.506-1.03,0.816-1.513c0.292-0.466,0.654-0.885,1.073-1.24c-0.091-0.532-0.139-1.07-0.142-1.609V6.116
    C3.198,5.597,3.269,5.083,3.396,4.58c-0.22,0.017-0.438,0.052-0.652,0.107H2.729C2.502,4.768,2.285,4.871,2.078,4.995z
     M2.712,15.886c1.018,1.259,2.343,2.234,3.847,2.832c0.238,0.006,0.477-0.017,0.71-0.067c0.044-0.01,0.084-0.02,0.123-0.031
    c0.107-0.025,0.213-0.057,0.317-0.095c0.08-0.031,0.14-0.059,0.182-0.079l-0.033-0.029c-0.238-0.198-0.811-0.694-1.153-1.158
    c-0.294-0.418-0.558-0.857-0.788-1.314c-0.548-0.104-1.084-0.262-1.601-0.471c-0.789-0.32-1.24-0.545-1.564-0.774
    c-0.038,0.175-0.063,0.353-0.076,0.532c0,0.051-0.004,0.095-0.004,0.137v0.089C2.674,15.602,2.688,15.745,2.712,15.886L2.712,15.886
    z M17.296,15.878c0.023-0.14,0.036-0.281,0.039-0.422v-0.02v-0.067c-0.004-0.225-0.031-0.449-0.081-0.668
    c-0.058,0.042-0.123,0.083-0.19,0.125c-0.439,0.252-0.898,0.469-1.372,0.649c-0.518,0.208-1.054,0.366-1.602,0.471
    c-0.23,0.455-0.495,0.893-0.79,1.31c-0.343,0.466-0.919,0.963-1.154,1.16l-0.031,0.027c0.04,0.02,0.095,0.047,0.173,0.076
    c0.106,0.041,0.213,0.075,0.323,0.103c0.039,0.01,0.081,0.021,0.126,0.031c0.229,0.049,0.464,0.073,0.699,0.069
    C14.946,18.122,16.276,17.143,17.296,15.878L17.296,15.878z"/>
<path id="product-exchange" d="M9.654,14.563l-6.705,0.288l0.346-6.657l1.634,1.628l1.814-1.82l0.423,0.421
    l-2.237,2.243L3.824,9.565l-0.245,4.658l4.686-0.204l-1.54-1.544l5.668-5.63l-1.648-1.652l-0.414-0.416l6.706-0.287l-0.346,6.657
    l-1.624-1.628l-1.857,1.864l-0.428-0.421l2.285-2.292l1.098,1.108l0.245-4.659l-4.685,0.197l1.541,1.542l-5.673,5.631l1.647,1.66
    L9.654,14.563z M18.249,4.145l-0.034,1.724c2.203,4.602,0.269,10.123-4.319,12.332c-2.55,1.228-5.521,1.213-8.059-0.04l-1.655,0.068
    c4.609,3.162,10.9,1.978,14.052-2.645c2.35-3.446,2.354-7.984,0.01-11.435L18.249,4.145z M3.577,3.57
    c2.796-2.79,7.052-3.485,10.587-1.731l1.654-0.068C11.209-1.39,4.918-0.206,1.766,4.416c-2.35,3.446-2.354,7.984-0.01,11.435
    l0.035-1.724c-1.704-3.54-0.989-7.773,1.783-10.553L3.577,3.57z"/>
<path id="product-fish-hunter" d="M19.621,9.639h-0.838c-0.181-4.578-3.845-8.252-8.423-8.445V0.38
    c0.01-0.199-0.143-0.369-0.342-0.38c-0.199-0.01-0.369,0.144-0.379,0.343c-0.001,0.013-0.001,0.024,0,0.037v0.81
    C5.06,1.383,1.396,5.059,1.217,9.639H0.379C0.18,9.629,0.011,9.782,0,9.981s0.143,0.369,0.342,0.379
    c0.013,0.001,0.025,0.001,0.037,0h0.838c0.206,4.559,3.862,8.203,8.421,8.396v0.866C9.628,19.821,9.781,19.99,9.98,20
    c0.199,0.01,0.369-0.143,0.379-0.342c0.001-0.013,0.001-0.025,0-0.037v-0.866c4.562-0.191,8.219-3.839,8.423-8.399h0.838
    c0.199,0.01,0.369-0.144,0.379-0.342c0.01-0.199-0.143-0.369-0.342-0.38c-0.013-0.001-0.025-0.001-0.037,0V9.639z M10.31,16.057
    c-0.207,0.01-0.415,0.01-0.62,0c-3.111-0.148-5.599-2.64-5.742-5.751c0-0.103-0.007-0.205-0.007-0.306c0-0.102,0-0.21,0.008-0.314
    C4.1,6.581,6.584,4.098,9.69,3.95c0.103,0,0.208-0.008,0.31-0.008s0.207,0,0.311,0.008c3.105,0.148,5.589,2.631,5.741,5.736
    c0.005,0.104,0.008,0.211,0.008,0.314s0,0.203-0.008,0.306c-0.146,3.109-2.632,5.598-5.741,5.746V16.057z M9.639,1.911v0.705H9.621
    C5.836,2.809,2.811,5.833,2.614,9.618v0.021H1.938C2.115,5.458,5.457,2.104,9.639,1.911z M1.938,10.356h0.675
    c0,0.005,0,0.01,0,0.016c0.191,3.789,3.218,6.82,7.007,7.014h0.018v0.648C5.476,17.842,2.142,14.518,1.938,10.356L1.938,10.356z
     M10.36,18.034v-0.648h0.016c3.79-0.193,6.817-3.223,7.008-7.013v-0.017h0.676C17.858,14.518,14.523,17.842,10.36,18.034
    L10.36,18.034z M17.385,9.639c0-0.006,0-0.011,0-0.016c-0.196-3.785-3.222-6.811-7.007-7.003h-0.016V1.916
    c4.179,0.192,7.521,3.544,7.701,7.724H17.385z M14.501,12.258c0.013-0.382-0.007-0.764-0.061-1.143
    c-0.063-0.436-0.255-0.932,0.381-0.881c0.229,0.018,0.603,0.139,0.757,0.332c0.007-0.068,0.012-0.139,0.017-0.207
    c-0.038-0.174-0.085-0.346-0.141-0.514c-0.236-0.857-0.799-2.037-1.602-2.489c-0.329-0.185-0.762-0.095-1.111-0.007
    c-0.221,0.057-0.349-0.102-0.519-0.242c-0.402-0.326-0.855-0.583-1.341-0.762c-0.866-0.324-1.794-0.445-2.714-0.354
    C7.108,6.111,6.109,6.542,5.297,7.231c0.506,0.548,3.56,6.033,5.166,0.946c-0.095,0.794-0.649,2.565-2.049,2.266
    c0.66,0.352,1.25,0.806,1.889,1.612c0.072-0.184,0.402-0.459,0.613-0.578c-0.798,0.756-0.749,1.558-0.446,2.762
    c0.667-0.354,0.864-0.33,1.228-0.857c-0.013,0.213-0.257,0.463-0.273,0.523c0.312,0.388,0.558,0.824,0.728,1.292
    c0.848-0.353,1.597-0.909,2.18-1.619c0.098-0.435,0.155-0.878,0.17-1.323V12.258z M7.357,7.221c0.168-0.607,1.023-0.389,1.15,0.031
    C8.876,8.459,7.017,8.444,7.36,7.216L7.357,7.221z"/>
<path id="product-games" d="M5.283,8.026h0.375C5.577,8.403,5.399,8.755,5.142,9.053
    c-0.588,0.659-0.886,1.507-0.833,2.368H3.475c0.011-0.293,0.049-0.584,0.116-0.87c0.147-0.592,0.492-1.124,0.984-1.515l0.358-0.379
    c-0.167,0.063-0.346,0.09-0.525,0.08c-0.3,0-0.649-0.11-0.833-0.11C3.066,8.626,3,9.036,3,9.534H2.583V7.955h0.433V8.35
    C3.185,8.068,3.509,7.903,3.85,7.923c0.214,0.01,0.424,0.056,0.622,0.134c0.163,0.069,0.334,0.115,0.511,0.138
    C5.108,8.196,5.223,8.131,5.283,8.026z M9.634,8.026H10C9.923,8.402,9.752,8.754,9.5,9.053c-0.59,0.658-0.888,1.506-0.833,2.368
    H7.832c0.008-0.292,0.044-0.583,0.108-0.87c0.147-0.592,0.492-1.124,0.984-1.516l0.358-0.379C9.118,8.732,8.938,8.773,8.756,8.775
    c-0.3,0-0.649-0.11-0.833-0.11c-0.508,0-0.575,0.418-0.575,0.908H6.933V7.995h0.433V8.39c0.159-0.277,0.467-0.447,0.8-0.442
    c0.214,0.01,0.424,0.056,0.622,0.135c0.162,0.067,0.333,0.112,0.509,0.134C9.439,8.227,9.574,8.151,9.634,8.026z M13.984,8.026
    h0.375c-0.081,0.379-0.258,0.732-0.517,1.031c-0.588,0.659-0.886,1.507-0.833,2.369h-0.836c-0.016-0.301-0.002-0.602,0.042-0.9
    c0.147-0.591,0.492-1.122,0.983-1.513l0.358-0.375c-0.164,0.075-0.343,0.116-0.525,0.118c-0.3,0-0.65-0.11-0.833-0.11
    c-0.442,0.016-0.534,0.435-0.534,0.883h-0.408V7.947h0.434v0.396c0.173-0.262,0.482-0.413,0.808-0.395
    c0.214,0.011,0.424,0.056,0.622,0.135c0.162,0.067,0.333,0.112,0.508,0.134C13.778,8.235,13.923,8.158,13.984,8.026z M20,8.255
    v2.921c0,0.252-0.216,0.458-0.483,0.458h-1.503c-0.266,0.017-0.496-0.173-0.515-0.425V8.255c0-0.252,0.215-0.458,0.481-0.458
    c0,0,0.001,0,0.001,0h0.1v1.483c0.012,0.34,0.313,0.606,0.672,0.595c0.341-0.011,0.616-0.271,0.627-0.595V7.798h0.1
    c0.266-0.019,0.496,0.171,0.515,0.422c0,0,0,0.001,0,0.002c0,0.011,0.001,0.021,0.001,0.033H20z M18.275,6.147
    c0.295,0.107,0.622,0.107,0.917,0v3.158c0,0.24-0.205,0.434-0.458,0.434c-0.253,0-0.458-0.194-0.458-0.434V6.147z M17.654,5.026
    C17.654,4.459,18.139,4,18.737,4s1.083,0.459,1.083,1.026c0,0.566-0.485,1.026-1.083,1.026c-0.598,0.003-1.086-0.454-1.089-1.02
    c0-0.002,0-0.004,0-0.006H17.654z M14.935,5.46H2.008C0.899,5.46,0,6.313,0,7.363v4.734C0,13.148,0.899,14,2.008,14l0,0h12.922
    c1.108-0.001,2.006-0.853,2.006-1.903V7.363c0.006-1.051-0.887-1.908-1.997-1.914c-0.001,0-0.002,0-0.003,0h-0.009L14.935,5.46z
     M16.368,12.076c0,0.75-0.642,1.357-1.434,1.357H2.008c-0.792,0-1.434-0.607-1.434-1.357l0,0V7.332
    c0.014-0.741,0.651-1.334,1.434-1.334h12.922c0.792,0,1.434,0.608,1.434,1.358L16.368,12.076z M14.931,6.55H2.008
    c-0.46,0-0.833,0.353-0.833,0.788c0,0,0,0.001,0,0.001v4.737c0,0.436,0.372,0.789,0.832,0.79c0,0,0.001,0,0.001,0h12.922
    c0.46,0,0.833-0.353,0.833-0.789v-0.001V7.339c-0.004-0.433-0.376-0.781-0.833-0.781V6.55z M6.157,11.361
    c0,0.471-0.402,0.853-0.899,0.853c0,0,0,0-0.001,0H2.975c-0.497,0-0.9-0.382-0.9-0.853V8.105c0-0.471,0.403-0.853,0.9-0.853h0h2.283
    c0.497,0,0.899,0.381,0.9,0.851c0,0.001,0,0.001,0,0.002V11.361z M10.508,11.361c0,0.471-0.403,0.853-0.9,0.853H7.333
    c-0.497,0-0.9-0.382-0.9-0.853V8.105c0-0.471,0.403-0.853,0.899-0.853c0,0,0,0,0.001,0h2.283c0.496,0,0.899,0.381,0.899,0.851
    c0,0.001,0,0.001,0,0.002L10.508,11.361z M14.858,11.361c0,0.471-0.403,0.853-0.899,0.853h-2.292
    c-0.498,0.001-0.901-0.38-0.902-0.852v-0.001V8.105c0-0.471,0.402-0.853,0.899-0.853l0,0h2.283c0.497-0.009,0.907,0.365,0.916,0.835
    c0,0,0,0.001,0,0.001c0,0.006,0,0.011,0,0.017L14.858,11.361z"/>
<path id="product-virtuals" d="M18.601,5.244c0.528-0.487,0.551-1.302,0.052-1.817
    c-0.5-0.517-1.332-0.539-1.86-0.051c-0.528,0.487-0.551,1.302-0.052,1.817c0.39,0.403,1,0.517,1.514,0.281
    c1.998,3.336,1.708,7.654-0.843,10.692l0.322,0.258C20.4,13.247,20.747,8.779,18.601,5.244L18.601,5.244z M6.129,2.558
    C6.852,2.561,7.44,1.991,7.443,1.285c0-0.003,0-0.005,0-0.007V1.246c2.712-0.55,6.287,0.227,8.247,1.479l0.227-0.338
    c-2.03-1.293-5.726-2.096-8.547-1.536C7.126,0.185,6.378-0.162,5.697,0.074C5.017,0.312,4.662,1.043,4.904,1.708
    C5.088,2.215,5.578,2.555,6.129,2.558L6.129,2.558z M15.778,16.668c-0.723-0.001-1.309,0.571-1.31,1.277c0,0.001,0,0.002,0,0.003
    c-0.001,0.175,0.036,0.349,0.111,0.509c-4.649,2.471-10.468,0.79-12.996-3.754c-0.951-1.71-1.333-3.667-1.094-5.6
    c0.296-2.469,1.591-4.72,3.597-6.248l-0.258-0.32c-4.345,3.331-5.104,9.475-1.695,13.721c0,0,0.001,0.001,0.002,0.002
    c3.02,3.761,8.379,4.837,12.67,2.542c0.484,0.525,1.313,0.568,1.85,0.095c0.276-0.243,0.433-0.589,0.433-0.951
    C17.083,17.239,16.499,16.67,15.778,16.668L15.778,16.668z M2.153,8.774c0.882-4.462,5.554-7.267,10.02-6.014
    c4.141,1.163,6.577,5.216,5.604,9.336c-0.711,3.007-3.289,5.378-6.407,5.893c-0.286,0.049-0.581,0.081-0.877,0.116H9.496
    l-0.119-0.027c-0.374-0.054-0.742-0.085-1.112-0.162c-3.104-0.631-5.63-3.209-6.148-6.27c-0.051-0.288-0.083-0.582-0.125-0.875V9.79
    L2.02,9.655C2.07,9.369,2.1,9.067,2.153,8.774z M13.182,16.902l-0.324-0.063c-0.611-0.145-1.239-0.212-1.867-0.202
    c-0.817,0.022-1.634-0.022-2.45,0.013c-0.558,0.027-1.112,0.14-1.67,0.217v0.063c0.979,0.443,2.047,0.673,3.127,0.671
    C11.099,17.599,12.186,17.36,13.182,16.902z M16.203,12.858c-0.069,0.213-0.098,0.436-0.084,0.658
    c0.024,0.28,0.028,0.573,0.042,0.856c0.948-1.305,1.398-2.894,1.273-4.489c-0.18,0.271-0.37,0.541-0.539,0.82
    c-0.083,0.127-0.147,0.266-0.191,0.41C16.53,11.691,16.373,12.277,16.203,12.858z M11.982,3.253
    c0.124,0.175,0.267,0.337,0.396,0.509c0.179,0.231,0.395,0.434,0.638,0.6c0.557,0.388,1.12,0.775,1.66,1.186
    c0.447,0.342,0.991,0.446,1.499,0.652C15.196,4.747,13.703,3.698,11.982,3.253L11.982,3.253z M8.786,6.313
    c-0.249,0-0.627-0.01-1.13-0.032C7.153,6.26,6.78,6.246,6.531,6.246c-0.084,0-0.125,0.076-0.125,0.226
    c0,0.32-0.009,0.798-0.032,1.434S6.341,9.024,6.341,9.339c0,0.194,0.373,1.021,1.117,2.479c0.475,0.914,0.948,1.824,1.417,2.729
    c0.037,0.084,0.109,0.147,0.198,0.175c0.079,0.019,0.396,0.023,0.955,0.023c0.442,0,0.763-0.009,0.977-0.023
    c0.054,0.001,0.107-0.009,0.157-0.026c0.036-0.045,0.064-0.095,0.083-0.148c0.604-1.15,1.07-2.016,1.388-2.584
    c0.812-1.585,1.218-2.501,1.218-2.754c0-0.315,0-0.784,0.014-1.411c0.009-0.626,0.014-1.095,0.014-1.398
    c0-0.094-0.06-0.145-0.185-0.145c-0.226,0-0.567,0.009-1.029,0.031s-0.802,0.032-1.028,0.032h-0.198
    c-0.037,0.013-0.055,0.071-0.055,0.18c0,0.293,0.004,0.734,0.013,1.325s0.014,1.032,0.014,1.325c0,0.177-0.19,0.653-0.581,1.438
    c-0.286,0.582-0.545,1.068-0.771,1.465C9.224,10.52,8.806,9.629,8.805,9.379c0-0.324,0.023-0.816,0.069-1.47s0.07-1.146,0.07-1.47
    C8.938,6.358,8.887,6.313,8.786,6.313z M3.824,6.187C3.926,6.164,4.022,6.133,4.12,6.102c0.446-0.139,0.866-0.351,1.24-0.627
    c0.506-0.378,1.034-0.752,1.577-1.094C7.397,4.093,7.684,3.655,8.021,3.25C6.305,3.703,4.815,4.746,3.824,6.187L3.824,6.187z
     M3.861,14.405c0.014-0.293,0.037-0.586,0.041-0.875c0.002-0.146-0.015-0.291-0.05-0.433c-0.157-0.613-0.318-1.222-0.477-1.83
    c-0.019-0.109-0.053-0.216-0.103-0.315c-0.226-0.36-0.465-0.708-0.714-1.086C2.333,11.088,3.126,13.837,3.861,14.405L3.861,14.405z"
    />
<path id="product-generic" d="M2.759,10.221C7.59,2.745,15.205,1.638,16.883,6.058
    c1.792,5.076-4.206,10.698-10.799,9.686c-0.057-0.027-1.833-0.122-1.581-1.309C4.98,9.558,8.116,6.398,8.116,6.398l2.514-0.932
    c0,0-2.837,2.982-4.072,8.449c5.565,1.092,9.836-4.268,8.945-7.126C15.294,5.599,10.76,1.584,2.759,10.221 M18.896,6.883
    C17.367,3.895,13.237,0.41,8.619,1.368C2.965,2.74,1.972,7.839,1.972,7.839s-1.792,6.236,4.272,9.424
    c1.632,0.925,4.175,1.173,6.324,0.412c4.922-2.108,5.144-5.618,5.144-5.618s1.088-1.106,0.843-3.854
    c0.685,3.297,0.191,6.992-4.043,9.805c5.299-2.708,4.588-8.715,4.588-8.715s1.609,7.304-6.15,10.189
    c-7.316,2.318-12.807-3.631-12.917-8.349C-0.476,3.824,5.026,1.098,6.749,0.7C15.793-1.42,18.915,6.835,18.896,6.883 M3.527,2.196
    c3.952-3.324,9.115-2.121,10.769-1.236c4.919,2.615,5.735,8.284,5.703,8.262c-1.688-6.032-5.124-7.604-5.75-8.023
    c-3.494-1.68-7.544-1.304-10.721,0.994"/>
<path id="product-keno" d="M10,0C4.477,0,0,4.477,0,10s4.477,10,10,10s10-4.477,10-10c0,0,0,0,0-0.001
    C20,4.477,15.522,0,10,0z M8.321,15.922c-3.947,0-7.146-3.2-7.146-7.147c0-3.947,3.2-7.147,7.147-7.147
    c3.947,0,7.147,3.2,7.147,7.147c0,0.001,0,0.002,0,0.004C15.467,12.725,12.268,15.922,8.321,15.922L8.321,15.922z M8.405,8.246
    l2.616,4.309H9.039L7.201,9.311l-0.645,0.794v2.45H4.875V5.05h1.681v3.318H6.59c0.167-0.286,0.345-0.556,0.512-0.824L8.805,5.05
    h2.082L8.405,8.246z"/>
<path id="product-live-chat" d="M16.851,0H3.149C1.407,0,0,1.304,0,2.919v9.472c0,1.615,1.407,2.889,3.149,2.889
    h2.947L4.69,20l7.571-4.72h4.589c1.742,0,3.116-1.305,3.149-2.919V2.919C19.967,1.304,18.56,0,16.851,0z M13.166,11.739H3.25v-1.18
    h9.916V11.739z M16.717,9.255H3.25v-1.18h13.467V9.255z M16.717,6.77H3.25V5.59h13.467V6.77z M16.717,4.286H3.25V3.137h13.467V4.286
    z"/>
<path id="product-live-dealer" d="M5.467,14.641c-0.23-0.171-0.395-0.389-0.475-0.629l1.054-0.047
    c0.064,0.191,0.195,0.363,0.378,0.498L5.467,14.641z M7.195,12.697l-0.751-0.285c-0.364,0.133-0.697,0.313-0.984,0.533l0.955,0.175
    C6.643,12.946,6.907,12.803,7.195,12.697L7.195,12.697z M9.16,15.298c-0.423-0.035-0.84-0.102-1.248-0.197l-0.565,0.343
    c0.514,0.123,1.042,0.207,1.576,0.252L9.16,15.298z M9.607,15.326L9.486,15.73c0.185,0.008,0.374,0.012,0.567,0.012
    c0.379,0,0.758-0.016,1.135-0.049l-0.235-0.396c-0.299,0.026-0.601,0.039-0.902,0.039C9.904,15.336,9.753,15.333,9.607,15.326z
     M4.96,13.789h0.575l0.475,0.037l0.011-0.039c0.004-0.184,0.083-0.361,0.223-0.508l-1.001-0.135
    C5.064,13.33,4.965,13.557,4.96,13.789L4.96,13.789z M6.869,12.263l0.661,0.316c0.382-0.114,0.778-0.2,1.182-0.253l-0.353-0.381
    c-0.509,0.066-1.008,0.174-1.49,0.32V12.263z M19.304,13.969c0,2.092-4.172,3.793-9.302,3.793s-9.302-1.699-9.302-3.79L0,16.354
    C0,18.497,4.485,20,10.002,20S20,18.497,20,16.354L19.304,13.969z M1.333,13.506c0-1.615,3.021-2.965,7.01-3.264l0.157,0.4
    l0.16,0.405c-2.971,0.237-5.206,1.25-5.206,2.458c0,1.385,2.937,2.512,6.545,2.512s6.551-1.127,6.551-2.512
    c0-1.221-2.285-2.24-5.3-2.466l0.156-0.397l0.161-0.404c0.594,0.041,1.185,0.107,1.77,0.201c-0.235-0.217-0.446-0.45-0.63-0.695
    C12.479,9.43,12.337,9.08,12.292,8.72c0,0-1.271,0.021-1.558-1.085c-0.286-1.105,1.248-1.329,1.248-1.329l0.883,1.228
    c0,0,0.312-0.246,0.781-0.553c0.246-0.168,0.517-0.313,0.806-0.43c0.459,0.163,0.896,0.361,1.306,0.594
    c0.222,0.129,0.431,0.272,0.623,0.43l-0.034,3.666c0.243,0.1,0.478,0.209,0.706,0.33c0.086-1.32,0.316-2.76,0.422-3.566
    c0.18-1.412,0.545-2.742-0.547-3.053c-0.599-0.168-1.118,0.16-1.465,0.492c0.176,0.058,0.103,0.523,0.103,0.523
    s0.076,0.477-0.11,0.527c-0.137,0.033-0.748-0.27-1.06-0.43c-0.001,0.01-0.003,0.02-0.007,0.03h-0.351
    c-0.004-0.013-0.008-0.026-0.01-0.04c-0.347,0.171-0.958,0.463-1.059,0.439c-0.185-0.045-0.109-0.527-0.109-0.527
    s-0.012-0.079-0.015-0.177c-0.06,0.011-0.12,0.017-0.181,0.021c-1.091,0.061-2.079-0.471-2.522-1.373
    c-0.443-0.9-0.081-1.345-0.081-1.345s0.13,0.49,0.728,0.429c0.597-0.061,0.544-0.797,0.727-1.574
    c0.183-0.778,1.091-1.986,3.144-1.946c2.054,0.04,2.705,2.129,3.094,3.091c0.389,0.962,0.572,1.248,1.014,1.248
    s0.598-0.369,0.598-0.369s0.156,0.532-0.234,1.208c-0.39,0.675-0.884,0.777-0.884,0.777s-0.573,3.554-0.748,5.88
    c0.748,0.49,1.176,1.061,1.176,1.669c0,1.833-3.891,3.325-8.673,3.325S1.333,15.339,1.333,13.506z M15.258,2.172
    c0,0,0.466-0.84,0.128-1.33c0.02,0.678-0.353,1.325-1.013,1.76c-1.118,0.736-1.897,0.92-1.897,0.92s-0.039,0.389,0.389,0.859
    c0.21,0.246,0.522,0.428,0.884,0.512c-0.01,0.252-0.136,0.494-0.354,0.68c0.215,0.095,0.458,0.213,0.622,0.299
    c0.007-0.021,0.013-0.036,0.013-0.036h0.352c0.005,0.012,0.01,0.023,0.013,0.036c0.17-0.088,0.422-0.215,0.643-0.309l0.064-0.711
    c0,0,0.727-0.144,0.988-1.023C16.35,2.949,15.258,2.172,15.258,2.172L15.258,2.172z M15.933,8.374
    c-0.063,0.097-0.154,0.179-0.267,0.241c-0.049,0.029-0.101,0.055-0.155,0.078c-0.185,0.073-0.386,0.117-0.592,0.131
    c-0.807,0.062-1.405-0.45-1.405-0.45s0.416,0.737,1.249,0.737c0.231,0,0.457-0.061,0.64-0.172c0.034-0.02,0.065-0.041,0.096-0.062
    c0.058-0.042,0.111-0.087,0.161-0.136c0.022-0.022,0.044-0.045,0.065-0.068c0.084-0.094,0.153-0.195,0.207-0.302V8.374z M7.544,15
    c-0.323-0.093-0.627-0.221-0.904-0.381l-0.895,0.216c0.347,0.204,0.73,0.368,1.137,0.487L7.544,15z M11.394,15.249l0.352,0.382
    c0.509-0.066,1.009-0.172,1.492-0.316l-0.662-0.318C12.194,15.111,11.798,15.197,11.394,15.249z M15.151,13.789v-0.006l-1.061,0.006
    c-0.004,0.186-0.083,0.364-0.224,0.512l1.001,0.133C15.047,14.248,15.147,14.022,15.151,13.789z M14.648,14.637l-0.952-0.177
    c-0.23,0.177-0.497,0.32-0.788,0.427l0.749,0.286c0.365-0.134,0.699-0.315,0.988-0.536H14.648z M9.367,12.722v0.491
    c0,0.115,0.261,0.21,0.583,0.21s0.587-0.095,0.587-0.21v-0.491h0.355l-0.555-0.92l0.555-1.399h-0.555V10.13
    c0.255-0.112,0.414-0.324,0.417-0.554c0-0.35-0.277-0.65-0.804-0.65c-0.526,0-0.801,0.301-0.801,0.65
    c0.003,0.229,0.162,0.44,0.416,0.554v0.272H9.011l0.554,1.403l-0.554,0.92L9.367,12.722z M10.943,12.279
    c0.423,0.035,0.842,0.102,1.25,0.197l0.563-0.346c-0.515-0.121-1.042-0.203-1.576-0.248L10.943,12.279z M13.687,13.113
    c0.183,0.135,0.313,0.307,0.377,0.496l1.054-0.047c-0.083-0.24-0.248-0.457-0.479-0.627L13.687,13.113z M12.563,12.576
    c0.323,0.093,0.627,0.221,0.904,0.382l0.896-0.218c-0.349-0.204-0.734-0.368-1.142-0.486L12.563,12.576z"/>
<path id="product-lottery" d="M16.515,10.118c2.302-1.626,2.982-5.017,1.519-7.574s-4.517-3.313-6.819-1.687
    c-1.426,1.007-2.29,2.753-2.29,4.629c0,0.17,0.007,0.34,0.022,0.51c-3.354-1.479-7.152,0.342-8.484,4.067
    c-1.332,3.725,0.308,7.944,3.662,9.423c3.142,1.386,6.716-0.119,8.242-3.469c0.771,2.263,3.046,3.403,5.084,2.547
    c2.037-0.855,3.064-3.384,2.294-5.646C19.223,11.389,17.978,10.308,16.515,10.118L16.515,10.118z M5.94,17.61
    c-2.75,0.001-4.98-2.474-4.982-5.529C0.957,9.026,3.186,6.549,5.936,6.548c1.47-0.001,2.865,0.72,3.812,1.969
    c0.105,0.176,0.22,0.346,0.342,0.507c1.518,2.547,0.89,5.978-1.403,7.664c-0.815,0.599-1.77,0.918-2.747,0.918V17.61z M11.159,5.404
    c0-2.15,1.569-3.893,3.505-3.893c1.936,0,3.505,1.743,3.505,3.893s-1.569,3.893-3.505,3.893c-1.936,0-3.504-1.741-3.505-3.891
    C11.159,5.406,11.159,5.405,11.159,5.404z M13.685,10.975c-0.253,0.212-0.482,0.457-0.683,0.729
    c-0.036-0.286-0.088-0.569-0.155-0.848c0.276,0.065,0.557,0.103,0.838,0.113V10.975z M15.736,17.378c-1.546,0-2.799-1.391-2.8-3.108
    c0-1.717,1.252-3.109,2.798-3.11s2.799,1.391,2.8,3.108c0,0,0,0,0,0.001C18.534,15.985,17.282,17.377,15.736,17.378
    C15.736,17.378,15.736,17.378,15.736,17.378z M15.589,13.679c-0.124-0.002-0.247,0.01-0.368,0.037l-0.086,0.019l0.066-0.778h1.273
    v-0.708H14.54l-0.131,2.022l0.3,0.179c0.083-0.026,0.168-0.046,0.254-0.062c0.095-0.018,0.19-0.028,0.286-0.029
    c0.477,0,0.715,0.2,0.715,0.599c0,0.419-0.23,0.628-0.691,0.628c-0.164-0.001-0.327-0.025-0.485-0.071
    c-0.156-0.042-0.307-0.105-0.449-0.187v0.724c0.3,0.156,0.63,0.228,0.961,0.212c0.458,0,0.809-0.119,1.054-0.358
    c0.245-0.239,0.368-0.58,0.368-1.021c0.016-0.33-0.095-0.651-0.305-0.884c-0.208-0.213-0.482-0.319-0.828-0.319V13.679z
     M6.406,11.748c0.429-0.238,0.74-0.508,0.934-0.812c0.192-0.302,0.292-0.665,0.287-1.034c0.014-0.529-0.211-1.03-0.6-1.335
    C6.627,8.238,6.1,8.073,5.446,8.072c-0.654,0-1.181,0.167-1.58,0.502C3.478,8.874,3.25,9.368,3.258,9.892
    c-0.002,0.361,0.086,0.715,0.257,1.023c0.216,0.358,0.503,0.658,0.839,0.876c-0.457,0.255-0.789,0.551-0.996,0.887
    c-0.208,0.339-0.317,0.741-0.311,1.151c0,0.646,0.213,1.146,0.64,1.499c0.427,0.352,1.014,0.529,1.76,0.53
    c0.715,0,1.292-0.189,1.731-0.568c0.427-0.351,0.673-0.911,0.658-1.5c0-0.394-0.117-0.776-0.334-1.086
    C7.283,12.371,6.917,12.053,6.406,11.748L6.406,11.748z M4.844,9.454c0.169-0.148,0.38-0.223,0.595-0.212
    c0.215-0.008,0.426,0.066,0.597,0.212C6.191,9.59,6.278,9.801,6.269,10.02c0.002,0.209-0.062,0.413-0.181,0.575
    c-0.18,0.211-0.398,0.377-0.64,0.487c-0.314-0.172-0.532-0.341-0.651-0.505c-0.117-0.156-0.181-0.354-0.18-0.557
    C4.609,9.802,4.693,9.593,4.844,9.454z M6.233,14.421c-0.176,0.171-0.444,0.256-0.802,0.256c-0.324,0-0.579-0.083-0.763-0.248
    c-0.188-0.169-0.292-0.427-0.281-0.695c0-0.519,0.332-0.947,0.995-1.286c0.314,0.166,0.604,0.383,0.859,0.646
    c0.163,0.169,0.258,0.403,0.264,0.651C6.51,14.005,6.411,14.253,6.233,14.421L6.233,14.421z M16.458,7.475
    c0.272-0.442,0.408-1.123,0.407-2.042c0-0.889-0.14-1.564-0.42-2.026c-0.28-0.462-0.693-0.693-1.24-0.692
    c-0.563,0-0.979,0.221-1.249,0.662c-0.271,0.44-0.406,1.126-0.406,2.057c0,0.891,0.139,1.565,0.416,2.021
    c0.277,0.457,0.69,0.685,1.24,0.685C15.769,8.138,16.187,7.917,16.458,7.475L16.458,7.475z M14.695,6.822
    c-0.095-0.28-0.152-0.742-0.152-1.389s0.057-1.11,0.152-1.394c0.096-0.283,0.271-0.424,0.506-0.424S15.6,3.758,15.705,4.04
    s0.158,0.748,0.158,1.394c0,0.645-0.053,1.101-0.157,1.384S15.434,7.241,15.2,7.241S14.796,7.1,14.695,6.822z"/>
<path id="product-owsports" d="M10,0C4.477,0,0,4.478,0,10s4.477,10,10,10s10-4.478,10-10V9.999
    C19.994,4.479,15.52,0.006,10,0z M12.481,18.656L10,16.855l-2.481,1.802c-2.047-0.59-3.82-1.884-5.006-3.653l0.895-2.756l-2.4-1.743
    c-0.009-0.167-0.015-0.336-0.015-0.506C0.992,8.034,1.638,6.122,2.83,4.56h3.095l0.979-3.02c1.884-0.69,3.945-0.73,5.855-0.114
    l1.14,3.503h3.54c1.024,1.493,1.571,3.262,1.568,5.072c0,0.079,0,0.156-0.005,0.234l-2.775,2.017l1.01,3.104
    C16.057,16.948,14.385,18.108,12.481,18.656L12.481,18.656z M11.738,7.927h1.163l-1.099,4.463h-1.425L9.95,10.445
    c-0.021-0.081-0.053-0.243-0.096-0.485S9.778,9.517,9.758,9.353C9.743,9.485,9.715,9.649,9.679,9.845
    c-0.036,0.196-0.072,0.378-0.108,0.543c-0.036,0.164-0.184,0.832-0.444,2.004H7.701L6.596,7.927h1.162l0.486,2.238
    c0.11,0.494,0.185,0.888,0.225,1.18c0.027-0.207,0.075-0.489,0.143-0.845c0.067-0.355,0.131-0.651,0.19-0.884l0.394-1.689h1.117
    l0.382,1.689c0.063,0.271,0.13,0.583,0.198,0.936c0.069,0.354,0.113,0.619,0.134,0.793c0.026-0.225,0.099-0.615,0.217-1.174
    L11.738,7.927z M9.748,3.681c-3.578,0-6.479,2.9-6.479,6.479s2.901,6.479,6.479,6.479c3.579,0,6.479-2.9,6.479-6.479l0,0
    c0-3.578-2.899-6.479-6.476-6.479C9.75,3.681,9.749,3.681,9.748,3.681L9.748,3.681z M9.748,15.464c-2.93,0-5.305-2.375-5.305-5.305
    c0-2.932,2.375-5.307,5.305-5.307s5.305,2.375,5.305,5.307c0.001,2.929-2.374,5.305-5.303,5.305
    C9.75,15.464,9.749,15.464,9.748,15.464z"/>
<path id="product-poker" d="M6.41,17.162c-0.398-0.641-0.398-1.494-0.198-2.135l0.597-2.559
    c-1.394-1.071-3.385-1.711-3.784-2.992C1.831,5.848,5.813,5.423,6.41,7.769C6.012,6.275,7.406,4.994,8.397,4.994l0.601-2.989
    c0.11-0.509,0.527-1.187,0.995-1.493C9.596,0.084,8.999-0.13,8.6,0.084L1.233,2.438C0.437,2.646-0.16,3.713,0.039,4.567
    l2.986,13.021c0.2,1.067,0.996,1.495,1.992,1.281l2.385-0.854C7.007,18.017,6.609,17.589,6.41,17.162z M18.953,3.286l-7.367-2.354
    c-0.796-0.212-1.727,0.124-1.991,1.281L6.809,15.245c-0.199,1.067,0.198,1.922,0.995,2.348l7.167,2.354
    c0.797,0.214,1.592-0.213,1.991-1.281l2.987-13.021C20.148,4.567,19.752,3.499,18.953,3.286L18.953,3.286z M16.758,11.397
    c-0.398,3.417-3.385,1.922-3.584,0c0,1.495,1.394,2.776,1.394,2.776c-0.597-0.427-1.195-0.641-1.792-1.067
    c-0.648-0.214-1.342-0.214-1.991,0c0,0,1.593-0.428,2.386-1.709c-0.995,1.709-4.181,1.068-3.185-2.134
    c0.597-1.495,3.384-2.136,4.58-3.629c0.206,2.134,2.396,4.27,2.197,5.763H16.758z"/>
<path id="product-promotions" d="M10.52,5.808c0.034,0.126,0.135,0.188,0.269,0.157c0.067,0,0.101-0.031,0.134-0.094
    c0.504-1.256,1.613-2.261,2.42-1.696c0.941,0.66-0.302,1.633-0.975,2.104c-0.202,0.156-0.067,0.345,0.235,0.282
    c0.672-0.126,1.748-0.502,2.353-1.225c0.571-0.722,0.605-1.538,0.101-2.135c-0.672-0.879-1.748-0.723-2.286-0.597
    C11.696,2.951,10.352,4.521,10.52,5.808z M14.62,6.248c-0.067,0.125,0.202,0.376,0.437,0.251c0.773-0.377,1.646-0.597,2.521-0.659
    c-0.134-0.377-0.403-0.691-0.739-0.911C15.964,5.212,15.225,5.651,14.62,6.248L14.62,6.248z M10.116,6.593
    c0.303,0.063,0.37-0.345,0.135-0.439c-1.445-0.471-2.42-1.35-2.252-2.951c0.202-1.728,2.05-1.853,3.327-0.283
    c0.437-0.282,0.908-0.533,1.378-0.69C11.562-0.158,8.57-0.378,7.26,0.407C6.016,1.13,5.848,2.479,5.982,3.265
    C6.318,5.243,8.033,6.091,10.116,6.593L10.116,6.593z M7.192,6.373c0.437,0.063,0.37-0.439,0.101-0.533
    c-2.084-0.754-3.26-2.575-3.496-2.921C3.125,3.233,2.723,3.893,2.756,4.583C3.529,5.494,5.445,6.185,7.192,6.373z M19.393,7.001
    H0.639C0.269,7.001,0,7.284,0,7.598v4.333c0,0.346,0.269,0.628,0.639,0.628h1.042v6.845C1.681,19.749,1.983,20,2.319,20h15.359
    c0.37,0,0.639-0.282,0.639-0.597v-6.845h1.042c0.37,0,0.639-0.282,0.639-0.597V7.629C20.031,7.315,19.729,7.032,19.393,7.001
    L19.393,7.001z M1.311,11.334V8.257H7.73v3.077H1.311z M17.04,18.808h-4.403v-5.621H7.73v5.652H2.991v-6.28H17.04V18.808
    L17.04,18.808z M18.72,11.334h-6.083V8.257h6.083V11.334z"/>
<path id="product-wallet" d="M13.354,8.914c-0.882,0.18-1.453,1.039-1.278,1.921l0.129,0.644c0.178,0.885,1.038,1.458,1.924,1.282
    l5.464-1.1c0.275-0.056,0.453-0.324,0.398-0.6l-0.572-2.845c-0.058-0.275-0.324-0.453-0.601-0.4l-5.464,1.102V8.914z M13.811,9.9
    c0.002,0,0.004,0,0.006-0.001c0.491-0.099,0.969,0.221,1.066,0.712s-0.221,0.969-0.712,1.067c-0.49,0.097-0.968-0.221-1.066-0.711
    C13.005,10.479,13.32,10,13.811,9.9z M19.899,15.09c0.08,0.41-0.186,0.81-0.596,0.895L4.457,18.966
    c-0.954,0.188-1.88-0.428-2.075-1.38l-0.446-2.21L0.305,7.282L0.033,5.934c-0.177-0.877,0.389-1.731,1.266-1.909L15.08,1.25
    c0.378-0.08,0.749,0.162,0.829,0.539C15.91,1.79,15.91,1.792,15.91,1.793l0.191,0.952L2.243,5.535
    C1.429,5.699,1.688,6.988,2.504,6.832l14.379-2.905l-0.002,0.01c0.41-0.08,0.809,0.186,0.893,0.596l0.522,2.604l-5.263,1.048
    c-1.229,0.256-2.021,1.457-1.772,2.688l0.179,0.896c0.251,1.23,1.449,2.026,2.681,1.782l5.253-1.059L19.899,15.09z"/>
</svg>
