<svg data-name="dafasports" viewBox="0 0 209.59 209.59">
    <path d="M124.3 104.45q0 30.55-30.07 30.55h-9.69V74.54h11.79q27.98 0 27.97 29.91zm85.29.34A104.8 104.8 0 1 1 104.79 0a104.92 104.92 0 0 1 104.8 104.79zm-82.38 30.74q11.45-10.91 11.45-31.53 0-19.43-11-30.14T96.68 63.15H70.93v83.29h23.3q21.53 0 32.98-10.91zm66.88-24.61l.51 1.14a48.64 48.64 0 0 0 3.4-4c.38-.49.76-1 1.15-1.56a37.22 37.22 0 0 0 3.75-6.57 97.51 97.51 0 0 0-15.12-47.65l-6.88-3.18a39.91 39.91 0 0 0-6.83-1.1c.21.79.51 2 .82 3.65a77.25 77.25 0 0 1 1.37 12.44v2.3a103.36 103.36 0 0 1-1.49 16.86 56.16 56.16 0 0 1 11.25 13 119.26 119.26 0 0 1 8.07 14.67zM132.56 10.56a98.29 98.29 0 0 0-55.44 0 24.57 24.57 0 0 0-3.24 3.7c-.44.6-.82 1.19-1.18 1.78q-.39.63-.72 1.23a30.66 30.66 0 0 0-1.86 4.06h.54a62.6 62.6 0 0 1 18.18 3.76c10.07 3.51 14.82 5.88 16.08 6.56 1-.58 5.52-2.95 15.89-6.56a67.79 67.79 0 0 1 15.06-3.53c1.61-.17 2.87-.24 3.66-.25a30.12 30.12 0 0 0-3.76-7.07 25.9 25.9 0 0 0-3.21-3.68zM21.77 52.35A97.61 97.61 0 0 0 6.68 100a36.76 36.76 0 0 0 3.76 6.52 48 48 0 0 0 4.61 5.58 117.68 117.68 0 0 1 8.55-15.85 55.91 55.91 0 0 1 11.25-13 103.36 103.36 0 0 1-1.49-16.86v-2.3A73.33 73.33 0 0 1 35.58 48a39.91 39.91 0 0 0-6.83 1.12h-.16a38.1 38.1 0 0 0-6.82 3.23zm6.64 114.14a98.74 98.74 0 0 0 40.32 29.68 31.73 31.73 0 0 0 7.44-.71c.46-.1.88-.21 1.29-.32a27.73 27.73 0 0 0 3.32-1c.84-.32 1.47-.61 1.91-.83l-.35-.3c-2.49-2.07-8.49-7.27-12.08-12.13A109.24 109.24 0 0 1 62 167.1a90.08 90.08 0 0 1-16.78-4.93c-8.27-3.36-13-5.71-16.39-8.11a39.62 39.62 0 0 0-.79 5.57c0 .54-.05 1-.05 1.44V162a31.22 31.22 0 0 0 .42 4.49zm152.84-.09a31.38 31.38 0 0 0 .41-4.42v-.21-.7a35.09 35.09 0 0 0-.84-7c-.61.44-1.29.87-2 1.31a101.05 101.05 0 0 1-14.38 6.8 90.08 90.08 0 0 1-16.78 4.93 109.24 109.24 0 0 1-8.28 13.73c-3.6 4.88-9.63 10.09-12.1 12.15l-.33.28c.42.21 1 .49 1.82.8a31.27 31.27 0 0 0 3.38 1.08c.41.11.85.22 1.32.32a32.83 32.83 0 0 0 7.33.73 98.75 98.75 0 0 0 40.45-29.8z"></path>
</svg>