<svg data-name="exchange" viewBox="0 0 209.59 208.93">
    <path d="M101.17 152.11l-70.22 3 3.62-69.51 17.11 17 19-19 4.43 4.4-23.43 23.42-11.57-11.5-2.56 48.64 49.07-2.13-16.12-16.12 59.36-58.79-17.26-17.25-4.33-4.34 70.22-3-3.62 69.51-17-17-19.45 19.46-4.48-4.4 23.93-23.93 11.5 11.57 2.56-48.64-49.06 2.06L139 71.66l-59.41 58.79 17.25 17.33zm90-108.78l-.35 18A96.5 96.5 0 0 1 61.2 189.67l-17.33.71a105.87 105.87 0 0 0 147.26-147zm-153.65-6a96.51 96.51 0 0 1 110.87-18.07l17.32-.71a105.87 105.87 0 0 0-147.26 147l.36-18A96.49 96.49 0 0 1 37.48 37.37z"></path>
</svg>