<svg data-name="lottery" viewBox="0 0 209.59 188.73">
    <path d="M173.08 95.48a51.78 51.78 0 1 0-79.56-43.7 47.82 47.82 0 0 0 .23 4.81 68.49 68.49 0 1 0 35.84 94.57 41.34 41.34 0 1 0 43.49-55.68zM62.23 166.19a52.2 52.2 0 1 1 39.91-85.82 52 52 0 0 0 3.59 4.79 52.19 52.19 0 0 1-43.5 81zM116.93 51a36.74 36.74 0 1 1 36.74 36.74A36.73 36.73 0 0 1 116.93 51zm26.48 52.57a42 42 0 0 0-7.16 6.88 67.61 67.61 0 0 0-1.63-8 50.9 50.9 0 0 0 8.79 1.07zm21.5 60.43a29.34 29.34 0 1 1 29.33-29.34A29.33 29.33 0 0 1 164.91 164zm-1.54-34.91a18.16 18.16 0 0 0-3.86.35l-.9.18.69-7.34h13.35v-6.69h-20.28L151 134.68l3.14 1.69a23.57 23.57 0 0 1 2.67-.58 18.41 18.41 0 0 1 3-.27q7.49 0 7.49 5.65 0 5.93-7.24 5.93a20.9 20.9 0 0 1-5.09-.67 21.22 21.22 0 0 1-4.71-1.76v6.83a21.62 21.62 0 0 0 10.08 2q7.2 0 11.05-3.38t3.86-9.64a10.94 10.94 0 0 0-3.2-8.34c-2.18-2.01-5.05-3.01-8.68-3.01zm-96.26-18.22q6.75-3.37 9.79-7.66a16.45 16.45 0 0 0 3-9.76 14.88 14.88 0 0 0-6.29-12.6q-6.27-4.66-16.56-4.67t-16.56 4.74a14.81 14.81 0 0 0-6.37 12.43 18.19 18.19 0 0 0 2.69 9.65 27 27 0 0 0 8.8 8.27q-7.19 3.61-10.44 8.37a18.7 18.7 0 0 0-3.26 10.86q0 9.15 6.71 14.14t18.45 5q11.25 0 18.15-5.36a17 17 0 0 0 6.9-14.16 16.68 16.68 0 0 0-3.51-10.25q-3.46-4.68-11.5-9zM50.74 89.22a9.33 9.33 0 0 1 6.23-2 9.72 9.72 0 0 1 6.26 2 6.45 6.45 0 0 1 2.45 5.34 8.4 8.4 0 0 1-1.9 5.43 19.26 19.26 0 0 1-6.71 4.6c-3.29-1.63-5.58-3.22-6.83-4.77a8.16 8.16 0 0 1-1.88-5.26 6.62 6.62 0 0 1 2.38-5.34zM65.3 136.1c-1.85 1.61-4.66 2.42-8.41 2.42q-5.1 0-8-2.34a7.94 7.94 0 0 1-2.94-6.56q0-7.34 10.43-12.14a35.87 35.87 0 0 1 9 6.1 8.73 8.73 0 0 1 2.77 6.14 8.14 8.14 0 0 1-2.85 6.38zm107.18-65.56q4.28-6.26 4.27-19.28 0-12.58-4.4-19.12t-13-6.53q-8.84 0-13.09 6.24T142 51.26q0 12.62 4.36 19.08t13 6.46q8.85 0 13.12-6.26zM154 64.38c-1-2.64-1.59-7-1.59-13.11S153 40.79 154 38.12s2.84-4 5.3-4 4.19 1.34 5.29 4 1.65 7.06 1.65 13.15-.55 10.39-1.64 13.06-2.86 4-5.31 4-4.23-1.33-5.29-3.95z"></path>
</svg>