<svg data-name="games" viewBox="0 0 257.39 135.88">
    <path d="M68 54.7h4.83a32.16 32.16 0 0 1-6.65 13.94 45.66 45.66 0 0 0-10.72 32.17H44.72A65.13 65.13 0 0 1 46.22 89a38.38 38.38 0 0 1 12.66-20.58l4.61-5.15a15.92 15.92 0 0 1-6.76 1.08c-3.86 0-8.36-1.5-10.72-1.5-6.54 0-7.4 5.57-7.4 12.33h-5.36V53.73h5.57v5.36a11.5 11.5 0 0 1 10.73-5.79 23.94 23.94 0 0 1 8 1.82A24 24 0 0 0 64.13 57 4.41 4.41 0 0 0 68 54.7zm56 0h4.71a32.1 32.1 0 0 1-6.43 13.94 45.44 45.44 0 0 0-10.72 32.17h-10.75A65 65 0 0 1 102.2 89a38.44 38.44 0 0 1 12.66-20.59l4.61-5.15a15.84 15.84 0 0 1-6.76 1.61c-3.86 0-8.36-1.5-10.72-1.5-6.54 0-7.4 5.69-7.4 12.34h-5.36V54.27h5.57v5.36a11.51 11.51 0 0 1 10.3-6 23.66 23.66 0 0 1 8 1.83 24.45 24.45 0 0 0 6.55 1.82A4.41 4.41 0 0 0 124 54.7zm56 0h4.82a32 32 0 0 1-6.65 14 45.68 45.68 0 0 0-10.72 32.18h-10.76a64.93 64.93 0 0 1 .53-12.23 38.34 38.34 0 0 1 12.66-20.55l4.61-5.1a15.88 15.88 0 0 1-6.76 1.61c-3.86 0-8.36-1.5-10.72-1.5-5.69.21-6.87 5.9-6.87 12h-5.25V53.62h5.58V59a11.46 11.46 0 0 1 10.4-5.36 23.71 23.71 0 0 1 8 1.83 24.48 24.48 0 0 0 6.54 1.82A4.41 4.41 0 0 0 180 54.7zm77.43 3.11v39.68a6.23 6.23 0 0 1-6.22 6.22h-19.35a6.23 6.23 0 0 1-6.63-5.78V57.81a6.21 6.21 0 0 1 6.22-6.22h1.28v20.16a8.37 8.37 0 0 0 16.73 0V51.59h1.29a6.2 6.2 0 0 1 6.63 5.77c0 .15.01.3.01.45zm-22.2-28.64a16.44 16.44 0 0 0 11.8 0v42.9a5.9 5.9 0 0 1-11.8 0zm-8-15.23a13.94 13.94 0 1 1 13.94 13.94 13.94 13.94 0 0 1-14.02-13.94zm-35 5.9H25.85A25.85 25.85 0 0 0 0 45.69V110a25.85 25.85 0 0 0 25.85 25.85h166.33A25.85 25.85 0 0 0 218 110V45.69a25.85 25.85 0 0 0-25.74-26h-.11zm18.45 89.87a18.45 18.45 0 0 1-18.45 18.45H25.85A18.45 18.45 0 0 1 7.4 109.71V45.26a18.45 18.45 0 0 1 18.45-18.13h166.33a18.45 18.45 0 0 1 18.45 18.45zm-18.5-75.07H25.85a10.72 10.72 0 0 0-10.73 10.72v64.35a10.72 10.72 0 0 0 10.73 10.73h166.33a10.72 10.72 0 0 0 10.73-10.73V45.36a10.72 10.72 0 0 0-10.73-10.61zM79.25 100a11.58 11.58 0 0 1-11.58 11.59H38.29A11.59 11.59 0 0 1 26.7 100V55.77a11.58 11.58 0 0 1 11.59-11.58h29.38a11.57 11.57 0 0 1 11.58 11.58zm56 0a11.59 11.59 0 0 1-11.59 11.59H94.38A11.59 11.59 0 0 1 82.79 100V55.77a11.58 11.58 0 0 1 11.59-11.58h29.38a11.57 11.57 0 0 1 11.58 11.58zm56 0a11.59 11.59 0 0 1-11.58 11.59h-29.5A11.59 11.59 0 0 1 138.56 100V55.77a11.58 11.58 0 0 1 11.58-11.58h29.39a11.57 11.57 0 0 1 11.79 11.36 1.62 1.62 0 0 1 0 .22z"></path>
</svg>