<svg data-name="poker" viewBox="0 0 209.59 195.39">
    <path d="M67.17 167.74c-4.17-6.26-4.17-14.61-2.08-20.87l6.26-25C56.74 111.4 35.88 105.14 31.7 92.62 19.18 57.15 60.91 53 67.17 75.93 63 61.33 77.61 48.81 88 48.81l6.3-29.21C95.45 14.62 99.82 8 104.73 5 100.56.82 94.3-1.27 90.12.82l-77.2 23C4.58 25.86-1.68 36.29.4 44.64l31.3 127.27c2.09 10.43 10.43 14.61 20.87 12.52l25-8.34c-4.14 0-8.31-4.18-10.4-8.35zM198.62 32.12l-77.2-23c-8.34-2.08-18.1 1.21-20.86 12.52L71.35 149c-2.09 10.43 2.08 18.78 10.43 22.95l75.11 23c8.35 2.09 16.69-2.08 20.87-12.52l31.3-127.27c2.08-10.52-2.06-20.96-10.44-23.04zm-23 79.28c-4.17 33.39-35.47 18.78-37.56 0 0 14.61 14.61 27.13 14.61 27.13-6.26-4.17-12.52-6.26-18.78-10.43a35.48 35.48 0 0 0-20.86 0s16.69-4.18 25-16.7c-10.43 16.7-43.81 10.44-33.38-20.86 6.26-14.61 35.47-20.87 48-35.47 2.16 20.86 25.11 41.73 23.02 56.33z"></path>
</svg>