<svg viewBox="0 0 209.59 193.32">
    <path d="M103.84 101.44c3.82 0 9.57-1.91 11.48-5.74s1.91-7.65 1.91-11.48c0-1.92 0-3.83 1.92-5.74 3.83-3.83 9.57-5.75 13.4-3.83q5.74 0 5.74 5.74c0 3.83 0 7.66-1.91 9.57-1.92 3.83-9.58 3.83-11.49-1.91s3.83-5.75 5.74-3.83 1.92 3.83 1.92 5.74 5.74-3.83 0-7.66c-3.83-3.82-7.66-3.82-9.57 0-1.92 1.92-1.92 5.75-1.92 7.66 1.92 5.74 11.49 9.57 17.23 3.83h1.91c5.75 0 7.66-5.74 9.57-9.57 0-3.83 1.92-5.74 3.83-7.66s5.74-1.91 7.66-1.91c3.83 0 5.74 1.91 7.65 3.83 1.92 3.82-1.91 11.48-9.57 9.57-5.74-1.92-5.74-9.57 0-7.66a4.11 4.11 0 0 1 3.83 3.83 2.65 2.65 0 0 0 0-3.83c1.92-3.83-1.91-5.74-5.74-3.83a1.87 1.87 0 0 0-1.91 1.92c-1.92 1.91-1.92 3.82-1.92 7.65s3.83 5.74 5.74 5.74c11.49 1.92 17.23-7.65 13.4-15.31 0-1.91-1.91-1.91-1.91-3.83 1.91 0 1.91-1.91 3.83-1.91 1.91-1.91 3.82-7.66-7.66-19.14-5.74-3.83-5.74-9.57-1.91-15.31 7.65-7.66 19.14-3.83 19.14 3.82s-5.75 9.57-9.57 7.66-3.83-5.74-1.92-5.74h5.74c1.92 0 0-1.92 0-1.92-1.91-1.91-5.74-1.91-7.65-1.91-3.83 1.91-5.74 9.57 1.91 13.4 9.57 3.83 17.26-1.92 17.26-11.49 0-3.82-1.92-5.74-3.83-7.65-1.91-3.83-3.83-7.66-7.66-11.49l1.92-1.91L167 11.48c-5.74-1.91-9.57-1.91-15.31 0-17.23 3.83-42.11 5.75-47.85-11.48-5.75 19.14-30.63 15.31-45.94 11.48-5.74-1.91-9.57-1.91-15.31 0l-13.4 5.75a1.87 1.87 0 0 0 1.91 1.91c-3.82 3.86-5.74 7.66-7.65 11.48-1.92 1.92-3.83 5.75-3.83 7.66 0 9.57 9.57 17.23 17.23 11.48 5.74-3.82 5.74-11.48 1.91-13.39-1.91 0-5.74 0-7.66 1.91 0 0-1.91 1.91 0 1.91h5.75c1.91 1.92 1.91 5.75-1.92 5.75-3.83 3.82-9.57 1.91-9.57-5.75s11.49-11.48 19.14-3.82c3.83 3.82 3.83 11.48 0 15.31C31.1 61.25 33 67 34.93 70.82c0 1.91 1.92 1.91 3.83 1.91-1.91 0-1.91 1.92-1.91 3.83-3.85 7.66 1.91 17.23 11.48 15.31 3.83 0 5.74-3.82 5.74-5.74s0-5.74-1.91-7.65c-1.92-3.83-5.74-3.83-7.66 0a1.87 1.87 0 0 1-1.91 1.91v3.83a4.11 4.11 0 0 1 3.83-3.83c5.74-1.91 5.74 7.66 0 7.66-5.75 1.95-9.57-5.75-7.66-11.49 1.91-1.91 3.83-3.83 7.66-3.83 1.91 0 5.74 0 7.65 1.92s3.83 5.74 3.83 7.65c1.91 5.75 3.83 9.57 9.57 9.57h1.91c5.75 7.66 17.23 3.83 19.14-1.87 1.92-3.83 0-7.66-3.82-9.57-1.92-1.91-5.75 0-7.66 0-3.83 3.83 0 9.57 0 7.66S77 84.22 79 82.3s5.75 0 5.75 3.83c-1.92 7.66-9.57 5.74-13.4 3.83-1.92-1.91-1.92-5.74-1.92-9.57s3.83-5.74 5.75-5.74c5.74-1.92 9.57 0 13.39 3.83 1.92 1.91 1.92 3.82 1.92 5.74a12.16 12.16 0 0 0 0 11.48c3.78 1.92 9.51 5.74 13.35 5.74zm0-9.57c-1.92 0-5.75-1.91-5.75-5.74 0-1.91 1.92-5.74 5.75-5.74 1.91 0 5.74 1.91 5.74 5.74 0 1.92-1.92 5.74-5.74 5.74zm0-76.56c1.91 0 5.74 1.92 5.74 5.74 0 1.92-1.92 5.75-5.74 5.75-1.92 0-5.75-1.92-5.75-5.75 1.92-3.82 3.83-5.74 5.75-5.74zm0 17.23c3.82 0 5.74 3.83 5.74 5.74a3.83 3.83 0 0 1-7.66 0c-1.91-3.83 0-5.74 1.92-5.74zm0 23a8.23 8.23 0 0 1 7.65 7.65c0 3.83-1.91 9.57-7.65 9.57a8.23 8.23 0 0 1-7.66-7.65c0-5.74 3.83-9.57 7.66-9.57zM48.33 111s17.23-5.74 24.88 5.75c5.74 11.48-11.48 11.48-11.48 11.48 9.57 3.83 19.14-3.83 19.14-3.83C73.21 97.62 48.33 111 48.33 111zm112.93 0s0 13.4-11.49 17.23c0 0 13.4-11.48 0-15.31-11.48-5.74-21.05 11.48-21.05 11.48s7.66-26.78 32.54-13.4zm36.36-67c-9.57 5.74-17.22 15.32-19.14 26.8-1.91 5.74 0 11.48 3.83 17.23 0 0-13.4 13.39-24.88 11.48-19.14-3.83-19.14 13.4-36.37 1.91 0 0-3.83 5.75-15.31 5.75s-17.23-5.75-17.23-5.75c-15.31 9.58-15.31-7.63-36.36-3.8-11.49 1.91-24.88-9.57-24.88-9.57C31.1 82.3 33 76.56 31.1 70.82 29.19 59.34 21.53 49.76 12 44 2.39 53.59-1.44 67 .48 78.48c3.83 24.88 19.14 9.57 19.14 9.57s-11.49 15.31-5.74 30.62 11.48 13.4 9.57 21c-3.83 9.57 1.91 19.15 1.91 19.15 0-5.75 5.74-7.66 11.49-7.66 9.57 0 17.22-13.4 17.22-13.4 0 11.48-9.57 11.48-9.57 23 0 9.57 5.74 17.23 15.31 19.14 1.92 7.66 13.4 13.4 13.4 13.4l1.92-9.57c7.65 1.91 24.88 3.83 30.62 3.83s24.88-1.92 30.63-3.83l1.91 9.57s9.57-5.74 13.4-13.4c9.57-1.9 15.31-9.55 15.31-19.12 0-11.49-9.57-11.49-9.57-23 0 0 7.66 13.4 17.23 13.4 5.74 0 11.48 1.91 11.48 9.57 0 0 3.83-9.57 1.91-19.14-3.82-9.57 3.83-5.74 9.57-21.06S190 90 190 90s15.31 15.31 19.14-9.57C211 67 207.19 53.59 197.62 44zm-178 36.37l-5.74-7.66c1.91 11.49-5.75 26.8-9.57 7.66S12 51.68 12 51.68c15.28 13.4 7.62 28.71 7.62 28.71zm70.82 32.54c3.83-1.92 7.65 3.83 7.65 3.83s1.92-3.83 5.75-3.83 5.74 3.83 5.74 3.83 3.83-5.75 7.65-3.83 0 11.48-13.39 11.48-17.23-9.55-13.4-11.46zm13.4 17.22c-7.66 0-13.4 5.75-11.49 1.92 3.83-3.83 9.57-5.74 11.49-5.74 3.82 0 9.57 1.91 11.48 3.82 3.83 3.87-3.83.02-11.48.02zm-51.68-1.91c-5.74-3.83-9.57-9.57-9.57-17.23 0 0-11.49 1.92-9.57-13.39 0 0 3.83 11.48 11.48 7.65S79 95.7 84.7 124.41c0 1.92-17.23 13.4-32.54 3.83zm82.3 47.85c-5.74 0-9.57-1.91-13.4-5.74-3.83 5.74-9.57 7.66-15.31 7.66s-13.4-1.92-17.23-7.66a20.64 20.64 0 0 1-13.39 5.74c-13.4-1.91-26.8-28.71 13.39-30.62 0 0 1.92-11.49 17.23-11.49S123 145.47 123 145.47c38.26 1.91 23 28.71 11.46 30.62zM165.09 111c0 7.66-3.83 13.4-9.57 17.23-15.32 9.57-30.63-1.91-30.63-1.91 5.74-28.71 32.54-23 40.2-19.14s11.48-7.66 11.48-7.66c0 13.4-11.48 11.48-11.48 11.48zm40.19-30.62c-3.83 21-11.48 3.83-9.57-7.66L190 80.39s-5.74-15.31 7.65-30.63c0 1.92 11.49 9.58 7.66 30.63zm-88 68.9s0-9.57-13.39-9.57-13.4 9.57-13.4 9.57c-30.63 0-26.8 23-15.31 23 3.82 0 7.65-1.91 11.48-3.82-1.91-1.92-1.91-3.83 0-7.66a1.87 1.87 0 0 1-1.91-1.91s1.86-3.89 3.77-3.89a1.87 1.87 0 0 1 1.92 2v1.92c-1.92 3.82-1.92 7.65 1.91 9.57 3.83 3.82 7.66 3.82 13.4 3.82 3.83 0 9.57-1.91 13.4-3.82 0-1.92 1.91-5.75 0-9.57a1.92 1.92 0 1 1 1.91 1.91v7.66c3.83 3.82 7.66 3.82 11.49 3.82 13.45-.05 15.31-23.02-15.32-23.02z"/>
</svg>