<svg data-name="promotions" viewBox="0 0 59.6 63.8">
    <path d="M31.3 18.5c.1.4.4.6.8.5.2 0 .3-.1.4-.3 1.5-4 4.8-7.2 7.2-5.4 2.8 2.1-.9 5.2-2.9 6.7-.6.5-.2 1.1.7.9 2-.4 5.2-1.6 7-3.9 1.7-2.3 1.8-4.9.3-6.8-2-2.8-5.2-2.3-6.8-1.9-3.2 1.1-7.2 6.1-6.7 10.2zm12.2 1.4c-.2.4.6 1.2 1.3.8 2.3-1.2 4.9-1.9 7.5-2.1-.4-1.2-1.2-2.2-2.2-2.9-2.6.9-4.8 2.3-6.6 4.2zM30.1 21c.9.2 1.1-1.1.4-1.4-4.3-1.5-7.2-4.3-6.7-9.4.6-5.5 6.1-5.9 9.9-.9 1.3-.9 2.7-1.7 4.1-2.2-3.4-7.6-12.3-8.3-16.2-5.8-3.7 2.3-4.2 6.6-3.8 9.1 1 6.3 6.1 9 12.3 10.6zm-8.7-.7c1.3.2 1.1-1.4.3-1.7-6.2-2.4-9.7-8.2-10.4-9.3-2 1-3.2 3.1-3.1 5.3 2.3 2.9 8 5.1 13.2 5.7zm36.3 2H1.9c-1.1 0-1.9.9-1.9 1.9V38c0 1.1.8 2 1.9 2H5v21.8c0 1.1.9 1.9 1.9 1.9h45.7c1.1 0 1.9-.9 1.9-1.9V40h3.1c1.1 0 1.9-.9 1.9-1.9V24.3c.1-1-.8-1.9-1.8-2zM3.9 36.1v-9.8H23v9.8H3.9zm46.8 23.8H37.6V42H23v18H8.9V40h41.8v19.9zm5-23.8H37.6v-9.8h18.1v9.8z"/>
</svg>