<svg id="18-yrs-restriction" width="76" height="77" fill="none">
    <circle cx="38" cy="38.18" r="33.424" stroke="#5E5E5E"
        stroke-width="9.153" />
    <path fill="#5E5E5E"
        d="M19.991 13.473l6.554 6.554-7.865 7.864-6.553-6.553zM55.21 48.693l6.553 6.553-7.864 7.865-6.554-6.554zM23.877 27.053V48.57h-4.248V31.95l-5.103 1.622v-3.348l8.893-3.171h.457zm21.458 15.633c0 1.347-.315 2.482-.944 3.407-.63.914-1.494 1.607-2.596 2.079-1.091.462-2.33.693-3.716.693-1.386 0-2.63-.23-3.731-.693-1.102-.472-1.972-1.165-2.61-2.08-.64-.924-.96-2.06-.96-3.406 0-.905.183-1.72.546-2.448a5.536 5.536 0 011.52-1.888 6.923 6.923 0 012.315-1.21c.885-.285 1.848-.427 2.89-.427 1.396 0 2.645.246 3.746.737 1.102.492 1.967 1.185 2.596 2.08.63.894.944 1.946.944 3.156zm-4.277-.28c0-.66-.128-1.224-.384-1.697a2.59 2.59 0 00-1.047-1.106c-.452-.255-.978-.383-1.578-.383-.6 0-1.125.128-1.578.383a2.682 2.682 0 00-1.062 1.106c-.245.472-.368 1.038-.368 1.697 0 .648.123 1.209.368 1.68.256.473.61.837 1.062 1.092.462.246.998.369 1.608.369.61 0 1.135-.123 1.578-.369.452-.255.796-.62 1.032-1.091.246-.472.369-1.033.369-1.681zm3.82-9.616c0 1.091-.29 2.06-.87 2.905-.58.836-1.387 1.49-2.42 1.962-1.022.472-2.192.708-3.51.708-1.327 0-2.506-.236-3.539-.708-1.032-.472-1.838-1.126-2.418-1.962-.58-.845-.87-1.814-.87-2.905 0-1.298.29-2.39.87-3.274.59-.895 1.396-1.573 2.418-2.035 1.033-.463 2.203-.694 3.51-.694 1.328 0 2.502.232 3.525.694 1.032.462 1.839 1.14 2.419 2.035.59.885.885 1.976.885 3.274zm-4.248.192c0-.58-.103-1.082-.31-1.505a2.317 2.317 0 00-.884-1.003c-.374-.236-.836-.354-1.387-.354-.53 0-.988.114-1.371.34a2.254 2.254 0 00-.87.988c-.197.423-.295.934-.295 1.534 0 .58.098 1.091.295 1.533.206.433.501.772.885 1.018.383.246.845.369 1.386.369.54 0 .998-.123 1.371-.369.384-.246.674-.585.87-1.018.207-.442.31-.953.31-1.533zm21.65 3.628v3.701H47.562V36.61H62.28zm-5.339-5.826v15.633h-4.026V30.784h4.026z" />
</svg>
