<svg viewBox="0 0 90.715 73.166" class="account-balance-icon">
    <path d="M64.622 36.343v5.854a9.942 9.942 0 0 1-2.196-1.222 2.439 2.439 0 0 1-.486-1.706 2.625 2.625 0 0 1 .486-1.463 2.81 2.81 0 0 1 2.196-1.463zm3.17 15.118v7.315a8.199 8.199 0 0 0 2.926-1.46c.564-.601.91-1.374.976-2.197a2.776 2.776 0 0 0-.732-1.949 5.852 5.852 0 0 0-3.17-1.709zm22.923-2.924c0 13.602-11.026 24.628-24.63 24.628-13.603 0-24.628-11.026-24.628-24.628 0-13.604 11.026-24.63 24.628-24.63 13.526-.042 24.536 10.862 24.63 24.384v.246zm-10.486 5.364a9.122 9.122 0 0 0-3.171-7.073 24.182 24.182 0 0 0-9.266-3.9v-6.585a4.384 4.384 0 0 1 1.708 1.22c.498.676.91 1.414 1.218 2.195l8.536-1.219a9.552 9.552 0 0 0-3.414-5.608 14.61 14.61 0 0 0-7.804-2.44v-2.194h-3.268v2.194a12.191 12.191 0 0 0-8.29 2.926 8.854 8.854 0 0 0-2.927 6.828 8.46 8.46 0 0 0 4.634 7.804 34.873 34.873 0 0 0 6.583 2.194v8.046a5.291 5.291 0 0 1-2.194-1.706 16.824 16.824 0 0 1-1.22-3.17l-9.267.976a18.17 18.17 0 0 0 1.222 3.9 9.71 9.71 0 0 0 2.436 2.927 9.21 9.21 0 0 0 3.658 2.194c1.742.528 3.546.823 5.365.88v4.388h3.414V64.29c1.575.013 3.14-.232 4.634-.734a26.867 26.867 0 0 0 3.658-1.948 12.878 12.878 0 0 0 2.926-3.416c.409-1.4.686-2.838.829-4.291zM7.072 14.884v-4.242c0-2.196 1.463-5.609 8.292-8.047A55.326 55.326 0 0 1 33.068.009a54.327 54.327 0 0 1 17.801 2.684c6.828 2.438 8.292 5.852 8.292 8.046v4.146c0 2.194-1.464 5.609-8.292 8.047a49.389 49.389 0 0 1-17.801 2.682 54.325 54.325 0 0 1-17.704-2.78c-7.072-2.438-8.536-5.608-8.292-8.046v.096zm10.973 2.439a13.857 13.857 0 0 1-2.926-.976v4.048c.936.433 1.918.762 2.926.974v-4.046zm8.292 1.706c-1.219-.244-2.439-.244-3.414-.488v3.902c1.118.282 2.262.446 3.414.488v-3.902zm8.779.244h-3.658v3.902h3.658v-3.902zm8.778-.731a16.468 16.468 0 0 1-3.414.488v3.804c1.219-.244 2.438-.244 3.414-.488v-3.804zm7.316-2.194c-.936.433-1.918.76-2.927.976v3.9c.976-.243 1.951-.73 2.927-.974v-3.902zm5.365-3.414a13.94 13.94 0 0 1-1.95 1.706v3.902a12.27 12.27 0 0 0 1.95-1.706v-3.902zM9.999 9.52c0 4.146 10.485 8.78 23.166 8.78s23.166-4.634 23.166-8.78c0-4.146-10.242-7.804-23.166-7.804S9.999 5.374 9.999 9.52zm-.245 7.07a13.777 13.777 0 0 0 1.951 1.709v-3.904a6.578 6.578 0 0 1-1.951-1.706v3.901zm34.14 13.657c-.975.244-1.707.732-2.682.976v2.926a21.582 21.582 0 0 0-1.951 4.146 48.163 48.163 0 0 1-13.168 1.217 54.267 54.267 0 0 1-17.801-2.681C1.463 34.393 0 30.979 0 28.785v-4.146c0-1.952.976-4.39 5.121-6.585.231.617.561 1.195.976 1.708a5.466 5.466 0 0 0-2.927 3.657c0 4.146 10.486 8.778 23.167 8.778 9.267 0 17.07-2.438 20.97-5.364a15.125 15.125 0 0 0-3.413 3.414zM4.39 28.051a12.184 12.184 0 0 1-1.951-1.706v3.804c.596.629 1.249 1.2 1.951 1.708v-3.902.096zm6.339 2.928c-.975-.244-1.951-.732-2.926-.976v3.902c.929.51 1.91.917 2.926 1.22v-4.146zm8.292 1.706c-1.22-.243-2.439-.243-3.414-.488v3.904c1.118.28 2.262.444 3.414.488v-4 .096zm8.779.488h-3.658v3.902H27.8v-3.902zm8.779-.976a19.01 19.01 0 0 1-3.511.392v3.9c1.219-.242 2.438-.242 3.414-.488v-3.9l.097.096zm.731 16.34a26.394 26.394 0 0 0 .244 4.388 47.505 47.505 0 0 1-11.705-2.439c-6.828-2.437-8.291-5.852-8.291-8.046v-.976l2.682.246v2.437a13.777 13.777 0 0 0 1.951 1.709v-3.904h2.927a36.509 36.509 0 0 0 12.437 3.658 5.973 5.973 0 0 0-.245 2.927zm-8.778-3.758a14.999 14.999 0 0 1-2.927-1.218v3.9c.976.488 1.951.734 2.927 1.222v-3.904zm8.047 1.71c-1.219-.246-2.438-.246-3.414-.488v3.9c1.118.282 2.262.445 3.414.488v-3.9z"/>
</svg>