<svg id="infobar-icons" viewBox="0 0 20 20">
<path id="infobar-news" transform="translate(-3023.261 354.838)" d="M3037.8-351.8c-0.1,0-0.2,0-0.3,0.1c-0.9,0.9-1.8,1.7-2.8,2.4
	c-1.5,1.1-3.7,2.4-5.6,2.4h-2.2c-1.1,0.1-2,1.1-1.9,2.2c0.1,1,0.9,1.9,1.9,1.9h0v1.3c0,0.1,0.1,0.2,0.2,0.3s0.2-0.1,0.3-0.2
	c0,0,0,0,0,0v-1.3h1.5l-0.7,3.9h-0.8v-1.5c0-0.1-0.1-0.2-0.2-0.3s-0.2,0.1-0.3,0.2c0,0,0,0,0,0c0,0,0,0,0,0v1.7
	c0,0.1,0.1,0.2,0.2,0.2c0,0,0,0,0,0h1.2c0.1,0,0.2-0.1,0.2-0.2l0.2-1.1h0.8c0.1,0,0.2-0.1,0.2-0.2l0,0v-1.6c0-0.1-0.1-0.2-0.2-0.2
	h-0.5l0.2-1.1c1.9,0.1,4,1.3,5.4,2.4c1,0.7,1.9,1.6,2.8,2.4c0.1,0.1,0.2,0.1,0.3,0c0,0,0,0,0,0c0,0,0.1-0.1,0.1-0.2v-13.5
	C3037.9-351.7,3037.8-351.8,3037.8-351.8z M3026.9-343.3c-0.9,0-1.5-0.8-1.5-1.6c0-0.8,0.7-1.5,1.5-1.5h2v3.2H3026.9z M3029.4-341.2
	v1.1h-0.5l0.2-1.1H3029.4z M3037.4-338.6c-0.8-0.8-1.6-1.5-2.5-2.1c-1.6-1.4-3.6-2.2-5.7-2.5v-3.2c2.1-0.3,4.1-1.1,5.7-2.5
	c0.9-0.6,1.7-1.3,2.5-2.1V-338.6z M3041.2-345.1h-1c-0.2,0-0.3,0.1-0.3,0.3c0,0.2,0.1,0.3,0.3,0.3l0,0h1c0.2,0,0.3-0.1,0.3-0.3
	C3041.6-345,3041.4-345.1,3041.2-345.1z M3039.4-347c0.1,0,0.1,0,0.2,0l0.9-0.5c0.1-0.1,0.2-0.3,0.1-0.4s-0.3-0.2-0.4-0.1l0,0
	l-0.9,0.5c-0.1,0.1-0.2,0.3-0.1,0.4C3039.1-347.1,3039.2-347,3039.4-347L3039.4-347z M3040.4-342.1l-0.9-0.5c-0.1-0.1-0.3,0-0.4,0.1
	c-0.1,0.1,0,0.3,0.1,0.4l0.9,0.5c0.1,0.1,0.3,0,0.4-0.1C3040.6-341.8,3040.5-342,3040.4-342.1z"/>
</svg>
