<svg data-name="password-unmask" viewBox="0 0 153.24 89.504" class="password-icon-unmask">
    <path d="M69.133 44.443a9.262 9.262 0 0 0 10.434-7.901v-.741a10 10 0 0 0-6.976-9.875 18.503 18.503 0 0 1 6.173-1.234c10.908 0 19.752 8.843 19.752 19.752 0 10.909-8.844 19.751-19.752 19.751-10.91 0-19.752-8.843-19.752-19.751a22.147 22.147 0 0 1 1.234-6.791 9.258 9.258 0 0 0 8.887 6.79zM6.172 40.739C7.406 38.888 38.888 0 79.01 0c40.123 0 71.604 38.888 72.84 40.739a6.483 6.483 0 0 1 0 8.024c-1.236 1.854-32.717 40.741-72.84 40.741-40.122 0-71.604-38.887-72.837-40.741C2.764 48.764 0 48.16 0 44.75a6.172 6.172 0 0 1 6.172-6.172v2.161zm72.592 33.949c16.705 0 30.245-13.542 30.245-30.245 0-16.705-13.54-30.246-30.245-30.246S48.518 27.738 48.518 44.443c.033 16.688 13.554 30.214 30.246 30.245zm59.256-30.245a121.395 121.395 0 0 0-19.507-17.53 50.532 50.532 0 0 1 3.703 17.283 39.403 39.403 0 0 1-3.703 17.282 121.303 121.303 0 0 0 19.755-17.035h-.248zm-98.762 17.9a57.812 57.812 0 0 1-3.703-17.9 39.414 39.414 0 0 1 3.951-17.53 121.455 121.455 0 0 0-19.754 17.283 155.737 155.737 0 0 0 19.754 18.147h-.248z"/>
</svg>
