<svg data-name="password-mask" viewBox="0 0 152.957 121.906" class="password-icon-mask">
    <path d="M151.623 58.668a133.868 133.868 0 0 0-33.65-29.207l16.507-17.144L120.892 0 99.941 20.953a73.438 73.438 0 0 0-23.493-4.444c-41.271 0-73.652 40-74.923 41.905a6.348 6.348 0 0 0 0 8.254 137.32 137.32 0 0 0 27.302 25.397l-15.873 15.874 12.699 13.967 20.572-20.314a71.443 71.443 0 0 0 30.476 6.985c41.272 0 73.654-40.001 74.922-41.909a6.663 6.663 0 0 0 0-8zM15.747 62.477a124.977 124.977 0 0 1 20.319-18.031 40.543 40.543 0 0 0-4.063 18.031 45.552 45.552 0 0 0 3.809 18.417 160.552 160.552 0 0 1-20.065-18.417zm29.842 0c.034-17.068 13.79-30.937 30.858-31.111a29.666 29.666 0 0 1 10.794 1.905l-8.89 8.89h-1.905a22.572 22.572 0 0 0-6.349 1.269 11.36 11.36 0 0 1 4.443 3.176L60.574 60.573a13.845 13.845 0 0 1-3.174-5.079 22.77 22.77 0 0 0-1.271 6.983v1.905l-8.888 8.89a29.637 29.637 0 0 1-1.652-10.795zm31.112 31.112a30.36 30.36 0 0 1-17.144-5.077l7.62-8.256a17.955 17.955 0 0 0 9.271 2.286c11.079.139 20.179-8.726 20.317-19.807v-.003-.507a21.061 21.061 0 0 0-2.538-9.525l7.618-8.254a32.882 32.882 0 0 1 5.714 17.779c.104 17.216-13.767 31.257-30.985 31.364h-.126.253zm40.638-12.695a42.64 42.64 0 0 0 3.809-17.781 45.629 45.629 0 0 0-3.809-18.413 101.472 101.472 0 0 1 20.314 18.413 248.453 248.453 0 0 1-20.314 17.781z"/>
</svg>
