<svg id="phone-icons" viewBox="0 0 20 20">
<path id="phone" d="M19.9,16.9c0.2-0.6-0.2-1.2-0.8-1.4L15.3,14c-0.2-0.1-0.4-0.1-0.6-0.1c-0.5,0-0.9,0.1-1.2,0.4l-1.2,1
	c-0.2,0.2-0.5,0.2-0.8,0.2c-0.1,0-0.2,0-0.3-0.1c-1.3-0.6-2.5-1.4-3.6-2.3c-0.9-0.7-1.6-1.5-2.2-2.4c-0.1-0.3,0-0.7,0.3-0.9l1.1-0.9
	c0.5-0.4,0.6-1,0.5-1.6L5.9,4.1c-0.2-0.6-0.8-1-1.5-1C3,3.1,1.8,3.7,1,4.7c-1.6,2-1.5,5.7,1.4,8.4c2.1,1.9,4.3,3.6,6.7,5.3
	c1.4,1,3.2,1.6,5.1,1.6c0.3,0,0.6,0,0.9,0C17.3,19.8,19.2,18.6,19.9,16.9z M15,19.4c-0.3,0-0.5,0-0.8,0c-1.7,0-3.4-0.5-4.7-1.5
	c-2.3-1.6-4.5-3.4-6.6-5.2C0.3,10.4,0.1,6.8,1.6,5c0.6-0.8,1.7-1.3,2.9-1.3C4.8,3.7,5.2,4,5.3,4.3l1.2,3.2c0.1,0.3,0,0.7-0.3,1
	L5.1,9.4c-0.5,0.4-0.6,1-0.4,1.6c0.6,0.9,1.4,1.8,2.3,2.5c1.1,1,2.3,1.8,3.8,2.4c0.2,0.1,0.4,0.1,0.6,0.1c0.5,0,0.9-0.1,1.3-0.4
	l1.2-1c0.3-0.2,0.7-0.3,1.1-0.2l3.8,1.4c0.3,0.1,0.5,0.4,0.4,0.7C18.7,18.2,17,19.3,15,19.4L15,19.4z M9,7.2C9,7.3,9.1,7.4,9.3,7.4
	c0.1,0,0.3-0.1,0.3-0.2C10.5,5,9.2,2.6,6.7,1.8C6.5,1.8,6.3,1.9,6.2,2c-0.1,0.1,0,0.3,0.2,0.4c0,0,0,0,0,0C8.6,3.1,9.8,5.1,9,7
	C8.9,7,8.9,7.1,9,7.2z M11,8.3c0.2,0.1,0.4,0,0.4-0.2C12.9,4.9,10.9,1.2,7,0C6.8,0,6.6,0,6.5,0.2c-0.1,0.1,0,0.3,0.2,0.4
	C10.3,1.7,12.1,5,10.8,8C10.7,8.1,10.8,8.3,11,8.3C11,8.3,11,8.3,11,8.3z"/>
</svg>
