<svg id="rounded" viewBox="0 0 100 100">
    <!-- viewbox="0 0 100 100" -->
    <path id="exclamation-rounded" d="M50 .015C22.432.015 0 22.443 0 50.008 0 77.571 22.432 100 50 100s50-22.429 50-49.993C100 22.443 77.568.015 50 .015zm-.176 93.961c-24.287 0-43.994-19.694-43.994-43.968 0-24.279 19.692-43.973 43.994-43.973 24.297 0 43.984 19.685 43.984 43.973.001 24.283-19.677 43.968-43.984 43.968zm-6.113-22.107c0-3.793 2.583-6.459 6.25-6.459 3.804 0 6.245 2.632 6.328 6.459.078 3.828-2.49 6.459-6.328 6.459-3.35.112-6.152-2.484-6.265-5.8a5.805 5.805 0 0 1 .015-.659zm2.339-11.634L44.541 21.73h10.85l-1.514 38.471-7.827.034z"/>
    <!-- viewbox="0 0 100 100" -->
    <path id="check-rounded" d="M50 0C22.388 0 0 22.379 0 49.993c0 27.613 22.388 49.993 50 49.993s50-22.395 50-49.993C100 22.394 77.617 0 50 0zm29.409 34.941l-37.93 39.32-.22.215a6.294 6.294 0 0 1-.41.381c-2.837 2.392-7.09 2.05-9.502-.757L14.932 54.992a6.644 6.644 0 0 1 .776-9.418c.005-.005.005-.01.015-.01 2.832-2.397 7.09-2.06 9.507.752l11.538 13.465 32.891-34.082c2.578-2.666 6.846-2.758 9.541-.21a6.651 6.651 0 0 1 .209 9.452z"/>
    <!-- viewbox="0 0 39.19 39.53" -->
    <g id="check-rounded-thin">
        <path d="M19.59 0a19.77 19.77 0 0 0 0 39.53 19.77 19.77 0 0 0 0-39.53zm-.07 37.15a17.39 17.39 0 1 1 17.24-17.39 17.32 17.32 0 0 1-17.24 17.39z"/>
        <path d="M30 12.9a1.38 1.38 0 0 0-1-.4 1.43 1.43 0 0 0-1 .44L16 25.51l-4.64-5.44a1.42 1.42 0 0 0-2-.16 1.42 1.42 0 0 0-.5 1 1.45 1.45 0 0 0 .33 1l5.66 6.64a1.43 1.43 0 0 0 2 .16l.09-.09.05-.05L30 14.91a1.42 1.42 0 0 0 0-2.01z"/>
    </g>
</svg>
