<svg viewBox="0 0 30.67 30.67"><g id="rounded-questionmark"><path d="M15.33 0a15.34 15.34 0 1 0 15.34 15.33A15.34 15.34 0 0 0 15.33 0zm0 28.31a13 13 0 1 1 13-13 13 13 0 0 1-13 13z"/><path d="M15.61 5.46A12.08 12.08 0 0 0 9.57 7l1.17 2.5a17.43 17.43 0 0 1 2.19-.91 7.66 7.66 0 0 1 2.44-.38 3.49 3.49 0 0 1 2.24.63 2.22 2.22 0 0 1 .77 1.81 3.11 3.11 0 0 1-.48 1.74 11.09 11.09 0 0 1-2.13 2 7.37 7.37 0 0 0-1.94 2.11 5.33 5.33 0 0 0-.55 2.56V20H16v-.63a3.3 3.3 0 0 1 .43-1.81 8.37 8.37 0 0 1 1.73-1.69 14.85 14.85 0 0 0 2.13-1.93 5.47 5.47 0 0 0 .92-1.56 5.2 5.2 0 0 0 .31-1.87 4.58 4.58 0 0 0-1.6-3.71 6.45 6.45 0 0 0-4.31-1.34zM14.75 22.35c-1.36 0-2 .71-2 2.12a2.26 2.26 0 0 0 .52 1.59 2 2 0 0 0 1.52.56 2 2 0 0 0 1.48-.62 2.26 2.26 0 0 0 .53-1.57 2.11 2.11 0 0 0-.53-1.56 2 2 0 0 0-1.52-.52z"/></g></svg>