<svg id="rounded" viewBox="0 0 100 100">
    <!-- viewbox="0 0 100 100" -->
    <path id="exclamation-rounded" d="M50 .015C22.432.015 0 22.443 0 50.008 0 77.571 22.432 100 50 100s50-22.429 50-49.993C100 22.443 77.568.015 50 .015zm-.176 93.961c-24.287 0-43.994-19.694-43.994-43.968 0-24.279 19.692-43.973 43.994-43.973 24.297 0 43.984 19.685 43.984 43.973.001 24.283-19.677 43.968-43.984 43.968zm-6.113-22.107c0-3.793 2.583-6.459 6.25-6.459 3.804 0 6.245 2.632 6.328 6.459.078 3.828-2.49 6.459-6.328 6.459-3.35.112-6.152-2.484-6.265-5.8a5.805 5.805 0 0 1 .015-.659zm2.339-11.634L44.541 21.73h10.85l-1.514 38.471-7.827.034z"/>
    <!-- viewbox="0 0 100 100" -->
    <path id="check-rounded" d="M50 0C22.388 0 0 22.379 0 49.993c0 27.613 22.388 49.993 50 49.993s50-22.395 50-49.993C100 22.394 77.617 0 50 0zm29.409 34.941l-37.93 39.32-.22.215a6.294 6.294 0 0 1-.41.381c-2.837 2.392-7.09 2.05-9.502-.757L14.932 54.992a6.644 6.644 0 0 1 .776-9.418c.005-.005.005-.01.015-.01 2.832-2.397 7.09-2.06 9.507.752l11.538 13.465 32.891-34.082c2.578-2.666 6.846-2.758 9.541-.21a6.651 6.651 0 0 1 .209 9.452z"/>
    <!-- viewbox="0 0 39.19 39.53" -->
    <g id="check-rounded-thin">
        <path d="M19.59 0a19.77 19.77 0 0 0 0 39.53 19.77 19.77 0 0 0 0-39.53zm-.07 37.15a17.39 17.39 0 1 1 17.24-17.39 17.32 17.32 0 0 1-17.24 17.39z"/>
        <path d="M30 12.9a1.38 1.38 0 0 0-1-.4 1.43 1.43 0 0 0-1 .44L16 25.51l-4.64-5.44a1.42 1.42 0 0 0-2-.16 1.42 1.42 0 0 0-.5 1 1.45 1.45 0 0 0 .33 1l5.66 6.64a1.43 1.43 0 0 0 2 .16l.09-.09.05-.05L30 14.91a1.42 1.42 0 0 0 0-2.01z"/>
    </g>
    <!-- viewBox="0 0 33.56 33.56" -->
    <g id="checkbox-checked">
        <g opacity=".96">
            <path d="M4.79.2h24a4.59 4.59 0 0 1 4.59 4.59v24a4.6 4.6 0 0 1-4.6 4.6h-24a4.6 4.6 0 0 1-4.6-4.6v-24A4.6 4.6 0 0 1 4.79.2z" fill="#2b2829"/>
            <path d="M28.76.4a4.4 4.4 0 0 1 4.4 4.39v24a4.4 4.4 0 0 1-4.4 4.4h-24A4.4 4.4 0 0 1 .4 28.76v-24A4.4 4.4 0 0 1 4.79.4h24m0-.4h-24A4.81 4.81 0 0 0 0 4.79v24a4.81 4.81 0 0 0 4.79 4.8h24a4.81 4.81 0 0 0 4.8-4.8v-24A4.81 4.81 0 0 0 28.76 0z" fill="#8c8c8c"/>
        </g>
        <path d="M28.82 7.62a1.62 1.62 0 0 0-1.14-.46 1.67 1.67 0 0 0-1.19.51l-14 14.61L7.13 16a1.67 1.67 0 0 0-1.26-.58 1.63 1.63 0 0 0-1.07.4 1.66 1.66 0 0 0-.18 2.33l6.57 7.71a1.64 1.64 0 0 0 1.26.58 1.68 1.68 0 0 0 1.07-.44l.11-.1.06-.07L28.88 10a1.67 1.67 0 0 0-.06-2.38z" fill="#ffe000"/>
    </g>
    <!-- viewBox="0 0 33.56 33.56" -->
    <g id="checkbox-unchecked" opacity=".96">
        <path d="M4.79.2h24a4.59 4.59 0 0 1 4.59 4.59v24a4.6 4.6 0 0 1-4.6 4.6h-24a4.6 4.6 0 0 1-4.6-4.6v-24A4.6 4.6 0 0 1 4.79.2z" fill="#2b2829"/>
        <path d="M28.76.4a4.4 4.4 0 0 1 4.4 4.39v24a4.4 4.4 0 0 1-4.4 4.4h-24A4.4 4.4 0 0 1 .4 28.76v-24A4.4 4.4 0 0 1 4.79.4h24m0-.4h-24A4.81 4.81 0 0 0 0 4.79v24a4.81 4.81 0 0 0 4.79 4.8h24a4.81 4.81 0 0 0 4.8-4.8v-24A4.81 4.81 0 0 0 28.76 0z" fill="#8c8c8c"/>
    </g>
</svg>
