<svg xmlns="http://www.w3.org/2000/svg"><g id='icon-upload' transform="translate(-653 3367)"><rect width="37" height="22" rx="11" transform="translate(653 -3367)" fill="#eaeaea"/><path d="M0,0H13a0,0,0,0,1,0,0V3a1,1,0,0,1-1,1H1A1,1,0,0,1,0,3V0A0,0,0,0,1,0,0Z" transform="translate(665 -3353)" fill="#eaeaea"/><path d="M1,1V3H12V1H1M0,0H13V3a1,1,0,0,1-1,1H1A1,1,0,0,1,0,3Z" transform="translate(665 -3353)"/><rect width="11" height="7" transform="translate(666 -3357)" fill="#eaeaea"/><path d="M1,1V6h9V1H1M0,0H11V7H0Z" transform="translate(666 -3357)" fill="#eaeaea"/><path d="M4.778.244a.3.3,0,0,1,.444,0L9.544,5a.3.3,0,0,1-.222.5H.678A.3.3,0,0,1,.456,5Z" transform="translate(666.5 -3363)"/><path d="M5,1.487,2.261,4.5H7.739L5,1.487M5,.146a.3.3,0,0,1,.222.1L9.544,5a.3.3,0,0,1-.222.5H.678A.3.3,0,0,1,.456,5L4.778.244A.3.3,0,0,1,5,.146Z" transform="translate(666.5 -3363)"/><path d="M0,0H5A0,0,0,0,1,5,0V5A1,1,0,0,1,4,6H1A1,1,0,0,1,0,5V0A0,0,0,0,1,0,0Z" transform="translate(669 -3357.6)"/><path d="M1,1V5H4V1H1M0,0H5V5A1,1,0,0,1,4,6H1A1,1,0,0,1,0,5Z" transform="translate(669 -3357.6)"/></g></svg>