<svg viewBox="0 0 595.28 841.89" class="user-icon">
    <path fill-rule="evenodd" clip-rule="evenodd" fill="#90191C" d="M544.222 129.104H51.065c-22.882 0-41.433 18.551-41.433 41.432V649.64c0 22.881 18.551 41.432 41.433 41.432h493.156c22.883 0 41.427-18.551 41.427-41.432V170.537c0-22.882-18.544-41.433-41.426-41.433z"/>
    <path fill-rule="evenodd" clip-rule="evenodd" fill="#FFF" d="M224.971 408.977s12.792 60.855 74.9 63.15c16.922.631 31.887-9.115 42.053-17.01 23.775-18.463 29.277-46.14 29.277-46.14s11.604-12.029 18.383-26.009c6.179-12.727 7.583-27.066 7.476-35.413-.219-17.521-8.914-14.71-8.914-14.71l-.894-43.252s1.192-74.398-91.838-75.271c-80.253-.747-86.493 70.945-86.493 70.945-1.338 4.108-.892 47.577-.892 47.577s-3.746-1.018-6.208 2.19c-2.599 3.384-3.878 11.37-1.819 26.358 4.016 29.203 24.969 47.585 24.969 47.585zm217.568 85.65c-19.826-8.484-41.706-17.555-56.116-23.873-18.436-8.086-27.702-13.328-27.702-13.328s-49.485 62.719-52.611 63.15c-3.117.43-68.658-63.15-68.658-63.15-15.156 14.275-73.115 25.303-108.78 52.77-35.666 27.465-42.8 78.725-42.8 78.725s124.735 17.189 231.559 16.938c104.93-.244 191.984-17.924 191.984-19.529-.001-3.248-10.254-67.488-66.876-91.703z"/>
</svg>