<svg width="18" height="18" viewBox="0 0 18 18" fill="none" xmlns="http://www.w3.org/2000/svg">
<g id="warning">
<mask id="mask0_91_17" style="mask-type:alpha" maskUnits="userSpaceOnUse" x="0" y="0" width="18" height="18">
<path id="Bounding box" d="M0 0H18V18H0V0Z" fill="#D9D9D9"/>
</mask>
<g mask="url(#mask0_91_17)">
<path id="warning_2" d="M0.900002 15.3L9 1.8L17.1 15.3H0.900002ZM3.28125 13.95H14.7188L9 4.425L3.28125 13.95ZM8.99605 13.05C9.18618 13.05 9.34688 12.9857 9.47813 12.8571C9.60938 12.7285 9.675 12.5691 9.675 12.379C9.675 12.1888 9.6107 12.0281 9.48208 11.8969C9.35346 11.7656 9.19408 11.7 9.00396 11.7C8.81382 11.7 8.65313 11.7643 8.52188 11.8929C8.39063 12.0215 8.325 12.1809 8.325 12.371C8.325 12.5612 8.38931 12.7219 8.51792 12.8531C8.64655 12.9844 8.80592 13.05 8.99605 13.05ZM8.325 10.8H9.675V7.2H8.325V10.8Z" fill="#F99F27"/>
</g>
</g>
</svg>
