<svg id="dafabet-login" viewBox="0 0 24 300">
<path id="user-login" d="M12.439,225.095c-2.591-0.141-4.889-1.713-5.958-4.077h11.917
    C17.328,223.382,15.03,224.954,12.439,225.095 M12.021,210c-4.619,0-8.362,3.744-8.362,8.362s3.744,8.362,8.362,8.362
    c4.618,0,8.362-3.744,8.362-8.362S16.639,210,12.021,210 M17.039,227.875c-1.537,0.841-3.266,1.273-5.018,1.254
    c-1.752,0.019-3.48-0.413-5.017-1.254C3.763,228.71,1.15,230.697,0,235.087h24c-1.15-4.39-3.658-6.376-7.004-7.212"/>
<path id="user-password" d="M7.31,247.977c-0.075-2.412,1.816-4.429,4.228-4.508h0.451
    c2.411-0.146,4.483,1.691,4.629,4.102v5.645H7.31V247.977z M20.102,253.214v-5.238c0.109-4.289-3.277-7.855-7.566-7.968h-0.427
    c-4.235-0.193-7.83,3.075-8.04,7.31v5.811H0v16.118h24v-16.033H20.102L20.102,253.214z"/>
<path id="password-mask" d="M23.791,159.206c-1.492-1.812-3.276-3.361-5.28-4.583l2.59-2.69L18.969,150l-3.288,3.288
    c-1.182-0.432-2.428-0.668-3.686-0.697c-6.476,0-11.557,6.276-11.756,6.575c-0.318,0.373-0.318,0.922,0,1.295
    c1.24,1.517,2.682,2.858,4.284,3.985l-2.49,2.491l1.992,2.192l3.228-3.188c1.493,0.714,3.126,1.088,4.782,1.096
    c6.476,0,11.557-6.276,11.756-6.576C24.07,160.089,24.07,159.577,23.791,159.206L23.791,159.206z M2.471,159.803
    c0.957-1.056,2.025-2.004,3.188-2.829c-0.427,0.881-0.646,1.85-0.637,2.829c-0.004,0.995,0.199,1.979,0.598,2.89
    C4.49,161.82,3.436,160.854,2.471,159.803L2.471,159.803z M7.153,159.803c0.006-2.678,2.164-4.854,4.842-4.881
    c0.578-0.007,1.152,0.095,1.693,0.299l-1.395,1.395h-0.299c-0.34,0.019-0.675,0.085-0.996,0.199c0.27,0.107,0.509,0.278,0.697,0.498
    l-2.191,2.192c-0.222-0.226-0.392-0.498-0.498-0.797c-0.124,0.353-0.191,0.722-0.199,1.095v0.299l-1.395,1.395
    C7.222,160.953,7.134,160.379,7.153,159.803L7.153,159.803z M12.035,164.685c-0.956,0.01-1.894-0.268-2.69-0.797l1.196-1.295
    c0.443,0.249,0.946,0.373,1.455,0.359c1.738,0.021,3.166-1.37,3.188-3.108v0v-0.079c-0.013-0.523-0.149-1.035-0.398-1.495
    l1.195-1.295c0.563,0.824,0.874,1.793,0.896,2.79c0.017,2.701-2.16,4.904-4.862,4.921h-0.02H12.035L12.035,164.685z M18.411,162.693
    c0.397-0.876,0.602-1.828,0.598-2.79c0.003-0.994-0.2-1.978-0.598-2.889c1.188,0.814,2.26,1.786,3.188,2.889
    C20.587,160.89,19.523,161.821,18.411,162.693L18.411,162.693z"/>
<path id="password-unmask" d="M10.827,186.96c0.793,0.109,1.524-0.445,1.634-1.237v-0.116
    c0.024-0.702-0.422-1.334-1.092-1.546c0.309-0.119,0.636-0.185,0.967-0.193c1.708,0,3.093,1.385,3.093,3.094
    c0,1.708-1.385,3.093-3.093,3.093c-1.709,0-3.094-1.385-3.094-3.093c0.009-0.363,0.074-0.722,0.193-1.064
    C9.609,186.523,10.177,186.958,10.827,186.96z M0.966,186.38c0.193-0.29,5.125-6.38,11.408-6.38c6.284,0,11.214,6.091,11.408,6.38
    c0.291,0.369,0.291,0.888,0,1.257c-0.194,0.291-5.124,6.38-11.408,6.38c-6.283,0-11.214-6.09-11.407-6.38
    c-0.534,0-0.967-0.095-0.967-0.628c0-0.534,0.433-0.967,0.966-0.967l0,0V186.38z M12.336,191.697c2.616,0,4.737-2.121,4.737-4.737
    s-2.121-4.737-4.737-4.737c-2.617,0-4.737,2.121-4.737,4.737C7.604,189.574,9.721,191.692,12.336,191.697z M21.616,186.96
    c-0.917-1.023-1.941-1.943-3.055-2.745c0.351,0.861,0.547,1.777,0.58,2.707c0.014,0.935-0.184,1.86-0.58,2.707
    c1.124-0.775,2.162-1.67,3.094-2.668H21.616L21.616,186.96z M6.148,189.764c-0.341-0.897-0.537-1.844-0.58-2.803
    c-0.008-0.951,0.204-1.89,0.619-2.745c-1.126,0.788-2.164,1.695-3.094,2.707c0.948,1.035,1.983,1.985,3.094,2.842H6.148
    L6.148,189.764z"/>
<!-- SODA -->
<path id="user-login-soda" d="M12,210.6c-6.6,0-12,5.4-12,12c0,6.6,5.4,12,12,12c0.4,0,0.7,0,1.1,0c0.3,0,0.7-0.1,1-0.1l0.1,0
    c6.5-1.2,10.8-7.5,9.6-14C22.7,214.7,17.8,210.6,12,210.6z M11,233.7L11,233.7c-0.3,0-0.6-0.1-1-0.1c0,0,0,0-0.1,0
    c-0.3-0.1-0.6-0.1-0.9-0.2l-0.1,0c-0.3-0.1-0.6-0.2-0.8-0.3c0,0-0.1,0-0.1,0c-0.3-0.1-0.5-0.2-0.8-0.3c0,0-0.1,0-0.1,0
    c-0.3-0.1-0.5-0.3-0.8-0.4l-0.1-0.1c-0.2-0.1-0.5-0.3-0.7-0.5l-0.1-0.1c-0.2-0.2-0.5-0.3-0.7-0.5l-0.1-0.1v-3.4c0-2.4,2-4.4,4.4-4.4
    h5.6c2.4,0,4.4,2,4.4,4.4v3.4l-0.1,0c-0.2,0.2-0.5,0.4-0.7,0.5c0,0-0.1,0-0.1,0.1c-0.2,0.2-0.5,0.3-0.7,0.5c0,0-0.1,0-0.1,0.1
    c-0.3,0.1-0.5,0.3-0.8,0.4c0,0-0.1,0-0.1,0c-0.3,0.1-0.5,0.2-0.8,0.3c0,0-0.1,0-0.1,0c-0.3,0.1-0.6,0.2-0.9,0.3l-0.1,0
    c-0.3,0.1-0.6,0.1-0.9,0.2c0,0,0,0-0.1,0c-0.3,0.1-0.6,0.1-0.9,0.1h0c-0.3,0-0.6,0-1,0C11.7,233.7,11.4,233.7,11,233.7z M20,230.4
    v-2.6c0-2.9-2.3-5.2-5.2-5.2H9.2c-2.9,0-5.2,2.3-5.2,5.2v2.6c-4.3-4.4-4.3-11.5,0.2-15.8c4.4-4.3,11.5-4.3,15.8,0.2
    C24.3,219.1,24.3,226,20,230.4L20,230.4z M12,213.8c-2.2,0-4,1.8-4,4s1.8,4,4,4s4-1.8,4-4S14.2,213.8,12,213.8L12,213.8z M12,220.9
    c-1.8,0-3.2-1.4-3.2-3.2s1.4-3.2,3.2-3.2s3.2,1.4,3.2,3.2v0C15.2,219.5,13.8,220.9,12,220.9z"/>
<path id="user-password-soda" class="st0" d="M21.9,269.5H2.2c-1.2,0-2.1-1-2.2-2.1v-16.4c0-1.2,1-2.1,2.2-2.2h19.7
    c1.2,0,2.1,1,2.1,2.2v16.4C24,268.6,23,269.5,21.9,269.5z M2.2,249.8c-0.6,0-1.1,0.5-1.1,1.1v16.4c0,0.6,0.5,1.1,1.1,1.1h19.7
    c0.6,0,1.1-0.5,1.1-1.1v-16.4c0-0.6-0.5-1.1-1.1-1.1H2.2z M19.6,249.8c-0.3,0-0.5-0.2-0.5-0.5v-1.4c0-3.9-3.2-7.1-7.1-7.1
    s-7.1,3.2-7.1,7.1c0,0,0,0,0,0v1.4c0,0.3-0.2,0.5-0.5,0.5c-0.3,0-0.5-0.2-0.5-0.5v-1.4c0-4.5,3.6-8.2,8.1-8.2s8.2,3.6,8.2,8.1
    c0,0,0,0,0,0v1.4C20.1,249.6,19.9,249.8,19.6,249.8z M12,264.5c-0.9,0-1.6-0.7-1.6-1.6v-2.7c-1.6-0.9-2.2-2.9-1.4-4.6
    c0.9-1.6,2.9-2.2,4.6-1.4s2.2,2.9,1.4,4.6c-0.3,0.6-0.8,1-1.4,1.4v2.7C13.6,263.7,12.9,264.5,12,264.5z M12,254.9
    c-1.3,0-2.3,1-2.3,2.3c0,0.9,0.6,1.8,1.4,2.2c0.2,0.1,0.3,0.3,0.3,0.5v3c0,0.3,0.3,0.6,0.6,0.6c0.3,0,0.6-0.3,0.6-0.6v-3
    c0-0.2,0.1-0.4,0.3-0.5c1.2-0.5,1.8-1.9,1.3-3C13.8,255.5,12.9,254.9,12,254.9L12,254.9z"/>
<path id="password-mask-soda" class="st0" d="M14.1,183.3c-2-1.2-4.5-0.6-5.7,1.4c-0.8,1.4-0.8,3.1,0,4.5c0.4,0.6,0.9,1.1,1.5,1.5
    c2,1.1,4.5,0.4,5.6-1.7c0.7-1.4,0.7-3-0.1-4.3C15.1,184.2,14.7,183.7,14.1,183.3z M12,189.5c-1.4,0-2.5-1.1-2.5-2.5
    c0-1.4,1.1-2.5,2.5-2.5s2.5,1.1,2.5,2.5S13.4,189.5,12,189.5L12,189.5z M23.8,186.4c-1.5-1.9-3.2-3.6-5.2-4.9l0,0
    c-0.5-0.3-1.4-0.8-1.6-0.9c-3.9-1.8-8.5-1.3-12,1.3c-1.8,1.2-3.5,2.8-4.8,4.6c-0.2,0.3-0.2,0.8,0,1.1c1.5,1.9,3.2,3.6,5.2,4.9
    c0.5,0.3,1.1,0.6,1.6,0.9c3.9,1.8,8.5,1.3,12-1.3c1.8-1.2,3.5-2.8,4.8-4.6C24.1,187.2,24.1,186.7,23.8,186.4L23.8,186.4z
     M18.1,190.6c-2.7,2-6.1,2.6-9.2,1.6l0,0c-0.8-0.3-1.6-0.6-2.3-1.1l0,0C4.8,190,3.3,188.6,2,187c1.1-1.4,2.5-2.6,3.9-3.6
    c2.6-2,5.9-2.6,9-1.7l0,0c1,0.3,1.9,0.8,2.8,1.3l0,0c1.6,1.1,3,2.4,4.3,3.9C20.8,188.4,19.5,189.6,18.1,190.6L18.1,190.6z"/>
<path id="password-unmask" d="M10.8,187c0.8,0.1,1.5-0.4,1.6-1.2v-0.1c0-0.7-0.4-1.3-1.1-1.5c0.3-0.1,0.6-0.2,1-0.2
    c1.7,0,3.1,1.4,3.1,3.1c0,1.7-1.4,3.1-3.1,3.1c-1.7,0-3.1-1.4-3.1-3.1c0-0.4,0.1-0.7,0.2-1.1C9.6,186.5,10.2,187,10.8,187z M1,186.4
    c0.2-0.3,5.1-6.4,11.4-6.4c6.3,0,11.2,6.1,11.4,6.4c0.3,0.4,0.3,0.9,0,1.3c-0.2,0.3-5.1,6.4-11.4,6.4c-6.3,0-11.2-6.1-11.4-6.4
    c-0.5,0-1-0.1-1-0.6c0-0.5,0.4-1,1-1l0,0V186.4z M12.3,191.7c2.6,0,4.7-2.1,4.7-4.7s-2.1-4.7-4.7-4.7c-2.6,0-4.7,2.1-4.7,4.7
    C7.6,189.6,9.7,191.7,12.3,191.7z M21.6,187c-0.9-1-1.9-1.9-3.1-2.7c0.4,0.9,0.5,1.8,0.6,2.7c0,0.9-0.2,1.9-0.6,2.7
    C19.7,188.9,20.7,188,21.6,187L21.6,187L21.6,187z M6.1,189.8c-0.3-0.9-0.5-1.8-0.6-2.8c0-1,0.2-1.9,0.6-2.7
    c-1.1,0.8-2.2,1.7-3.1,2.7C4,188,5.1,188.9,6.1,189.8L6.1,189.8L6.1,189.8z"/>
</svg>
