<svg id="dafabet-login" viewBox="0 0 24 300">
<path id="user-login" d="M12.439,225.095c-2.591-0.141-4.889-1.713-5.958-4.077h11.917
    C17.328,223.382,15.03,224.954,12.439,225.095 M12.021,210c-4.619,0-8.362,3.744-8.362,8.362s3.744,8.362,8.362,8.362
    c4.618,0,8.362-3.744,8.362-8.362S16.639,210,12.021,210 M17.039,227.875c-1.537,0.841-3.266,1.273-5.018,1.254
    c-1.752,0.019-3.48-0.413-5.017-1.254C3.763,228.71,1.15,230.697,0,235.087h24c-1.15-4.39-3.658-6.376-7.004-7.212"/>
<path id="user-password" d="M7.31,247.977c-0.075-2.412,1.816-4.429,4.228-4.508h0.451
    c2.411-0.146,4.483,1.691,4.629,4.102v5.645H7.31V247.977z M20.102,253.214v-5.238c0.109-4.289-3.277-7.855-7.566-7.968h-0.427
    c-4.235-0.193-7.83,3.075-8.04,7.31v5.811H0v16.118h24v-16.033H20.102L20.102,253.214z"/>
<path id="password-mask" d="M5.5,166.1c-3.3-2-5.5-4.8-5.5-4.8s5.4-6.8,12-6.8c1.2,0,2.3,0.2,3.4,0.6l-1.7,1.9
    c-2.1-1-4.6,0.1-5.6,2.5c-0.5,1.2-0.5,2.6,0,3.8L5.5,166.1z M18.2,156.2l-2.4,2.7c1.1,2.3,0.3,5.2-1.7,6.5c-1.3,0.8-2.8,0.8-4,0
    l-1.7,2c1.2,0.4,2.4,0.7,3.7,0.7c6.6,0,12-6.8,12-6.8S21.7,158.3,18.2,156.2z M12,164.6c1.7,0,3-1.5,3-3.4c0-0.4-0.1-0.8-0.2-1.2
    l-3.9,4.4C11.3,164.5,11.6,164.6,12,164.6z M12,158.2c0.1,0,0.3,0,0.4,0.1l0.3-0.3c-1.6-0.4-3.2,0.7-3.6,2.5c-0.1,0.5-0.1,1,0,1.6
    l1.9-2.1c-0.2-0.6,0.1-1.3,0.6-1.6C11.7,158.3,11.9,158.2,12,158.2z M10.4,164.1l4.1-4.6l0.9-1l2.2-2.5l1.5-1.7c0.3-0.4,0.3-1,0-1.4
    c-0.3-0.4-0.9-0.4-1.2,0c0,0,0,0,0,0l0,0l-2.1,2.3l-1.8,2l-0.9,1l-0.4,0.5l-1.5,1.7l-2,2.3l-0.9,1L6,166.4l-1.8,2l0,0
    c-0.3,0.4-0.3,1,0,1.4c0.3,0.4,0.9,0.4,1.2,0c0,0,0,0,0,0l0,0l2.2-2.5l1.8-2.1L10.4,164.1z"/>
<path id="password-unmask" d="M12,180c-6.6,0-12,7-12,7s5.4,7,12,7s12-7,12-7S18.6,180,12,180z M12,191.9c-2.3,0-4.2-2.2-4.2-4.9
    c0-2.7,1.9-4.9,4.2-4.9c2.3,0,4.2,2.2,4.2,4.9c0,0,0,0,0,0C16.2,189.7,14.3,191.9,12,191.9L12,191.9z M12,183.6c-1.7,0-3,1.5-3,3.4
    s1.3,3.4,3,3.4s3-1.5,3-3.4S13.7,183.6,12,183.6L12,183.6z M12,186.4c-0.6,0-1.1-0.6-1.1-1.2s0.5-1.3,1.1-1.3s1.1,0.6,1.1,1.2
    c0,0,0,0,0,0C13.1,185.9,12.6,186.4,12,186.4z"/>
<!-- SODA -->
<path id="user-login-soda" d="M12,210.6c-6.6,0-12,5.4-12,12c0,6.6,5.4,12,12,12c0.4,0,0.7,0,1.1,0c0.3,0,0.7-0.1,1-0.1l0.1,0
    c6.5-1.2,10.8-7.5,9.6-14C22.7,214.7,17.8,210.6,12,210.6z M11,233.7L11,233.7c-0.3,0-0.6-0.1-1-0.1c0,0,0,0-0.1,0
    c-0.3-0.1-0.6-0.1-0.9-0.2l-0.1,0c-0.3-0.1-0.6-0.2-0.8-0.3c0,0-0.1,0-0.1,0c-0.3-0.1-0.5-0.2-0.8-0.3c0,0-0.1,0-0.1,0
    c-0.3-0.1-0.5-0.3-0.8-0.4l-0.1-0.1c-0.2-0.1-0.5-0.3-0.7-0.5l-0.1-0.1c-0.2-0.2-0.5-0.3-0.7-0.5l-0.1-0.1v-3.4c0-2.4,2-4.4,4.4-4.4
    h5.6c2.4,0,4.4,2,4.4,4.4v3.4l-0.1,0c-0.2,0.2-0.5,0.4-0.7,0.5c0,0-0.1,0-0.1,0.1c-0.2,0.2-0.5,0.3-0.7,0.5c0,0-0.1,0-0.1,0.1
    c-0.3,0.1-0.5,0.3-0.8,0.4c0,0-0.1,0-0.1,0c-0.3,0.1-0.5,0.2-0.8,0.3c0,0-0.1,0-0.1,0c-0.3,0.1-0.6,0.2-0.9,0.3l-0.1,0
    c-0.3,0.1-0.6,0.1-0.9,0.2c0,0,0,0-0.1,0c-0.3,0.1-0.6,0.1-0.9,0.1h0c-0.3,0-0.6,0-1,0C11.7,233.7,11.4,233.7,11,233.7z M20,230.4
    v-2.6c0-2.9-2.3-5.2-5.2-5.2H9.2c-2.9,0-5.2,2.3-5.2,5.2v2.6c-4.3-4.4-4.3-11.5,0.2-15.8c4.4-4.3,11.5-4.3,15.8,0.2
    C24.3,219.1,24.3,226,20,230.4L20,230.4z M12,213.8c-2.2,0-4,1.8-4,4s1.8,4,4,4s4-1.8,4-4S14.2,213.8,12,213.8L12,213.8z M12,220.9
    c-1.8,0-3.2-1.4-3.2-3.2s1.4-3.2,3.2-3.2s3.2,1.4,3.2,3.2v0C15.2,219.5,13.8,220.9,12,220.9z"/>
<path id="user-password-soda" d="M21.9,269.5H2.2c-1.2,0-2.1-1-2.2-2.1v-16.4c0-1.2,1-2.1,2.2-2.2h19.7
    c1.2,0,2.1,1,2.1,2.2v16.4C24,268.6,23,269.5,21.9,269.5z M2.2,249.8c-0.6,0-1.1,0.5-1.1,1.1v16.4c0,0.6,0.5,1.1,1.1,1.1h19.7
    c0.6,0,1.1-0.5,1.1-1.1v-16.4c0-0.6-0.5-1.1-1.1-1.1H2.2z M19.6,249.8c-0.3,0-0.5-0.2-0.5-0.5v-1.4c0-3.9-3.2-7.1-7.1-7.1
    s-7.1,3.2-7.1,7.1c0,0,0,0,0,0v1.4c0,0.3-0.2,0.5-0.5,0.5c-0.3,0-0.5-0.2-0.5-0.5v-1.4c0-4.5,3.6-8.2,8.1-8.2s8.2,3.6,8.2,8.1
    c0,0,0,0,0,0v1.4C20.1,249.6,19.9,249.8,19.6,249.8z M12,264.5c-0.9,0-1.6-0.7-1.6-1.6v-2.7c-1.6-0.9-2.2-2.9-1.4-4.6
    c0.9-1.6,2.9-2.2,4.6-1.4s2.2,2.9,1.4,4.6c-0.3,0.6-0.8,1-1.4,1.4v2.7C13.6,263.7,12.9,264.5,12,264.5z M12,254.9
    c-1.3,0-2.3,1-2.3,2.3c0,0.9,0.6,1.8,1.4,2.2c0.2,0.1,0.3,0.3,0.3,0.5v3c0,0.3,0.3,0.6,0.6,0.6c0.3,0,0.6-0.3,0.6-0.6v-3
    c0-0.2,0.1-0.4,0.3-0.5c1.2-0.5,1.8-1.9,1.3-3C13.8,255.5,12.9,254.9,12,254.9L12,254.9z"/>
<path id="password-unmask-soda" d="M14.1,183.3c-2-1.2-4.5-0.6-5.7,1.4c-0.8,1.4-0.8,3.1,0,4.5c0.4,0.6,0.9,1.1,1.5,1.5
    c2,1.1,4.5,0.4,5.6-1.7c0.7-1.4,0.7-3-0.1-4.3C15.1,184.2,14.7,183.7,14.1,183.3z M12,189.5c-1.4,0-2.5-1.1-2.5-2.5
    c0-1.4,1.1-2.5,2.5-2.5s2.5,1.1,2.5,2.5S13.4,189.5,12,189.5L12,189.5z M23.8,186.4c-1.5-1.9-3.2-3.6-5.2-4.9l0,0
    c-0.5-0.3-1.4-0.8-1.6-0.9c-3.9-1.8-8.5-1.3-12,1.3c-1.8,1.2-3.5,2.8-4.8,4.6c-0.2,0.3-0.2,0.8,0,1.1c1.5,1.9,3.2,3.6,5.2,4.9
    c0.5,0.3,1.1,0.6,1.6,0.9c3.9,1.8,8.5,1.3,12-1.3c1.8-1.2,3.5-2.8,4.8-4.6C24.1,187.2,24.1,186.7,23.8,186.4L23.8,186.4z
     M18.1,190.6c-2.7,2-6.1,2.6-9.2,1.6l0,0c-0.8-0.3-1.6-0.6-2.3-1.1l0,0C4.8,190,3.3,188.6,2,187c1.1-1.4,2.5-2.6,3.9-3.6
    c2.6-2,5.9-2.6,9-1.7l0,0c1,0.3,1.9,0.8,2.8,1.3l0,0c1.6,1.1,3,2.4,4.3,3.9C20.8,188.4,19.5,189.6,18.1,190.6L18.1,190.6z"/>
<path id="password-mask-soda" d="M21.3,150.2c-0.3-0.3-0.9-0.3-1.2,0c0,0,0,0,0,0l0,0l-3.1,3.1
    c-3.9-1.8-8.5-1.3-12,1.2c-1.8,1.2-3.5,2.7-4.8,4.4c-0.2,0.3-0.2,0.8,0,1.1c1.5,1.9,3.2,3.5,5.2,4.8l-2.8,2.8
    c-0.3,0.3-0.3,0.9,0,1.2c0.3,0.3,0.9,0.3,1.2,0l17.4-17.4C21.7,151.1,21.7,150.6,21.3,150.2z M9.8,160.5c-0.1-0.3-0.2-0.6-0.2-0.9
    c0-1.3,1.1-2.4,2.4-2.4c0.3,0,0.6,0.1,0.9,0.2L9.8,160.5z M14.2,156.1c-1.9-1.2-4.5-0.7-5.7,1.2c-0.9,1.4-0.9,3.1,0,4.5l-1.8,1.8
    c-1.8-1.1-3.4-2.5-4.7-4.1c1.1-1.3,2.5-2.5,3.9-3.5c2.8-2.1,6.4-2.6,9.7-1.4L14.2,156.1z M23.8,159c-1.1-1.4-2.4-2.6-3.7-3.7
    c-0.4-0.3-0.9-0.3-1.2,0.1c-0.3,0.4-0.3,0.9,0.1,1.2c0,0,0,0,0.1,0c1.1,0.9,2.1,1.8,3,2.9c-1,1.1-2,2.1-3.2,3
    c-2.5,2-5.7,2.9-8.8,2.3c-0.5-0.1-0.9,0.2-1.1,0.7c-0.1,0.5,0.2,0.9,0.7,1.1c0,0,0,0,0,0c0.8,0.2,1.5,0.2,2.3,0.2
    c1.2,0,2.4-0.2,3.5-0.5c1.6-0.5,3.1-1.3,4.5-2.3c1.5-1.1,2.9-2.4,4-3.9C24.1,159.8,24.1,159.3,23.8,159z"/>
</svg>
