<svg viewBox="0 0 20 20">
    <path d="M19.753,12.318l-9.343,6.188c-0.258,0.144-0.584,0.144-0.832,0l-9.354-6.188
        c-0.101-0.057-0.169-0.124-0.225-0.2v0.754c0,0.201,0.112,0.392,0.303,0.506l9.242,6.494c0.27,0.171,0.64,0.171,0.91,0l9.242-6.494
        C19.888,13.254,20,13.072,20,12.872v-0.754C19.921,12.194,19.854,12.27,19.753,12.318z M6.603,11.268l2.976,1.671
        c0.248,0.144,0.573,0.144,0.82,0l2.976-1.671c0.236-0.134,0.225-0.42-0.011-0.544l-1.449-0.735v0.974c0,0.22-0.135,0.43-0.359,0.544
        c-0.348,0.172-0.898,0.392-1.549,0.392c-0.629,0-1.202-0.22-1.55-0.392c-0.225-0.115-0.371-0.325-0.371-0.544V9.979l-1.482,0.754
        C6.378,10.847,6.367,11.134,6.603,11.268z M0.371,10.905l7.67-3.514c-1.516-0.63-2.56-1.958-2.56-3.495
        c0-2.167,2.088-3.925,4.648-3.896c2.471,0.029,4.481,1.748,4.515,3.848c0.022,1.576-1.067,2.941-2.639,3.571l7.614,3.485
        c0.483,0.238,0.494,0.506,0.034,0.764l-9.253,5.806c-0.247,0.143-0.572,0.143-0.82,0l-9.242-5.806
        C-0.124,11.411-0.112,11.143,0.371,10.905z M17.024,11.382c0,0.249,0.382,0.439,0.865,0.439c0.472,0,0.865-0.2,0.865-0.439
        c0-0.239-0.382-0.439-0.865-0.439S17.024,11.134,17.024,11.382z M16.047,11.945c-0.539,0-0.977,0.22-0.977,0.497
        c0,0.277,0.438,0.497,0.977,0.497c0.539,0,0.977-0.219,0.977-0.497C17.024,12.165,16.586,11.945,16.047,11.945L16.047,11.945z
        M11.544,1.767c0.854,0.439,1.415,1.222,1.415,2.12c0,0.659-0.292,1.261-0.775,1.709c-0.056,0.067-0.09,0.143-0.09,0.229
        c0,0.22,0.202,0.392,0.46,0.392c0.146,0,0.27-0.057,0.359-0.153c0.606-0.583,0.966-1.346,0.966-2.187
        c0-1.175-0.741-2.206-1.853-2.779c-0.09-0.048-0.191-0.076-0.303-0.066c-0.213,0.019-0.382,0.162-0.404,0.344
        C11.286,1.547,11.387,1.7,11.544,1.767z M4.705,11.525l4.773,2.673c0.314,0.172,0.719,0.172,1.033,0l4.773-2.673
        c0.348-0.191,0.337-0.63-0.023-0.812l-3.335-1.69V7.448c-0.27,0.105-0.562,0.181-0.865,0.239v2.625c0,0.22-0.18,0.401-0.438,0.43
        c-0.303,0.029-0.561-0.172-0.561-0.42v-2.54c-0.708,0-1.37-0.134-1.965-0.373v1.595l-3.369,1.709
        C4.368,10.895,4.357,11.325,4.705,11.525L4.705,11.525z"/>
</svg>
