<svg id="quicklinks-icons" viewBox="0 0 32 20">
<path id="quicklinks-payments" d="M3.731,17h3.107c0.327,0,0.615-0.109,0.65-0.445
    C7.525,16.22,7.272,16,6.948,16H3.841c-0.326,0-0.615,0.107-0.651,0.443C3.153,16.778,3.407,17,3.731,17z M8.971,17h5.636
    c0.326,0,0.58-0.222,0.543-0.557C15.114,16.146,14.897,16,14.606,16H9.079c-0.323,0-0.615,0.107-0.65,0.443
    C8.429,16.778,8.646,17,8.971,17L8.971,17z M30.539,2.383v15.232c0,1.341-1.948,2.385-3.249,2.385H2.323C1.057,20,0,18.918,0,17.615
    V2.383C0,1.08,1.057,0,2.323,0H27.29C28.591,0,30.539,1.08,30.539,2.383z M0.985,4h28.569V2.383C29.555,1.602,28.087,1,27.29,1
    H2.323c-0.76,0-1.338,0.564-1.338,1.383V4z M29.555,10H0.985v7.652C0.985,18.436,1.527,19,2.323,19H27.29
    c0.758,0,2.265-0.529,2.265-1.348V10z"/>
<path id="quicklinks-contact" d="M3.37,13.549C0.127,8.787-0.853,4.211,0.769,2.95
    C1.625,2.256,1.87,2.13,1.962,2.13l3.091,4.574c-1.041,0.977-0.857,3.248,0.521,5.268c1.379,2.018,3.366,2.996,4.621,2.301
    l3.093,4.575c-0.367,0.315-0.734,0.631-1.165,0.884C10.409,20.867,6.584,18.312,3.37,13.549z M13.685,18.187l-3.001-4.417
    c-0.183-0.252-0.122-0.6,0.123-0.789l1.469-1.072c0.247-0.189,0.583-0.125,0.768,0.127l2.997,4.384
    c0.184,0.254,0.123,0.6-0.121,0.788l-1.5,1.104C14.174,18.501,13.838,18.438,13.685,18.187L13.685,18.187z M5.635,6.357L2.666,1.972
    c-0.184-0.252-0.123-0.6,0.122-0.789l1.468-1.072c0.247-0.189,0.582-0.127,0.767,0.125l3.001,4.417
    C8.207,4.905,8.145,5.253,7.9,5.442L6.4,6.515C6.155,6.705,5.818,6.641,5.635,6.357L5.635,6.357z M11.205,3.833
    c-0.459,0.063-0.796,0.537-0.704,1.01c0.091,0.473,0.521,0.82,0.979,0.725c0.152-0.031,0.305,0,0.458,0.033
    c0.337,0.125,0.614,0.315,0.798,0.631c0.244,0.347,0.428,0.757,0.488,1.198c0.063,0.379,0.031,0.758-0.061,1.137
    c-0.121,0.473,0.184,0.945,0.643,1.072c0.429,0.094,0.857-0.127,1.01-0.568c0.184-0.6,0.215-1.262,0.123-1.893
    c-0.123-0.726-0.398-1.419-0.826-1.987c-0.429-0.568-1.01-1.01-1.682-1.23C12.001,3.801,11.602,3.77,11.205,3.833L11.205,3.833z
     M10.746,0.585c-0.459,0.092-0.766,0.535-0.674,1.008c0.093,0.474,0.52,0.789,0.979,0.694c0.887-0.157,1.807-0.031,2.602,0.379
    C14.388,3.044,15,3.581,15.461,4.274c0.49,0.727,0.826,1.547,0.979,2.398c0.213,1.198,0.061,2.429-0.46,3.501
    c-0.184,0.441,0,0.947,0.429,1.167c0.398,0.19,0.889,0,1.103-0.377c0.673-1.421,0.888-3.03,0.612-4.576
    c-0.215-1.134-0.643-2.207-1.316-3.122c-0.644-0.915-1.47-1.672-2.449-2.145C13.256,0.521,11.969,0.332,10.746,0.585L10.746,0.585z"
    />
<path id="quicklinks-download" d="M13.592,19.999H0v-3.434c0-0.4,0.105-0.733,0.493-0.733
    c0.39,0,0.493,0.333,0.493,0.733v2.434h10.837v-2.434c0-0.4,0.48-0.733,0.869-0.733s0.79,0.333,0.79,0.733l0.032,3.434H13.592z
     M13.625,7.6c-0.518-0.532-1.264-0.532-1.781,0l-2.978,3.167V1.766c0-0.932-0.508-1.73-1.413-1.765
    C6.547-0.034,5.911,0.7,5.911,1.634V10.8L2.54,7.6c-0.518-0.532-1.492-0.532-2.008,0C0.013,8.132-0.054,9,0.465,9.532l6.563,6.8
    l6.614-6.8C14.158,9,14.142,8.132,13.625,7.6z"/>
<path id="quicklinks-faq" d="M9.702,20C4.331,20,0,15.536,0,10C0,4.463,4.331,0,9.702,0
    c5.373,0,9.703,4.463,9.703,10C19.404,15.536,15.074,20,9.702,20z M9.702,1.342C5.08,1.342,1.303,5.235,1.303,10
    c0,4.764,3.743,8.656,8.398,8.656c4.657,0,8.398-3.857,8.398-8.656C18.1,5.235,14.358,1.342,9.702,1.342z M9.539,16.645
    c-0.944,0-1.726-0.807-1.726-1.779c0-0.974,0.782-1.778,1.726-1.778c0.945,0,1.725,0.805,1.725,1.778
    C11.264,15.838,10.483,16.645,9.539,16.645z M10.827,11.376V12H7.872v-1.061c0-1.678,2.657-2.617,2.657-3.624
    c-0.033-0.638-0.495-1.141-1.146-1.141c-0.682,0-1.207,0.603-1.761,1.341L5.78,5.738c1.106-1.477,2.417-2.383,4.01-2.383
    c2.117,0,3.693,1.543,3.693,3.994C13.483,9.697,10.827,10.269,10.827,11.376z"/>
<path id="quicklinks-home" d="M19.645,8.027c-0.357,0-0.65,0.301-0.682,0.669l0.027,9.898
    l-4.223-0.034v-5.651c0-0.167-0.224-0.472-0.352-0.604C14.285,12.17,13.965,12,13.771,12H9.325c-0.358,0-0.468,0.508-0.468,0.909V19
    H4.557L4.426,8.898c0.032-0.367-0.317-0.805-0.674-0.837C3.395,8.028,2.946,8.261,2.946,8.662v0.1L3.167,19.33
    c0,0.368,0.35,0.67,0.74,0.67h5.418c0.357,0,0.517-0.302,0.517-0.67V14h3.941v5.297c0,0.368-0.022,0.668,0.334,0.668L19.671,20
    c0.357,0,0.569-0.302,0.603-0.67l0.09-10.601C20.363,8.361,20,8.027,19.645,8.027L19.645,8.027z M23.083,7.225L12.05,0.051
    C12.017,0.051,12.017,0,11.985,0h-0.032h-0.097h-0.357c-0.034,0-0.065,0-0.097,0h-0.033l-0.031,0.051L0.304,7.217
    c-0.324,0.199-0.39,0.638-0.194,0.94c0.131,0.2,0.324,0.336,0.552,0.336c0.13,0,0.26-0.033,0.357-0.101l10.676-6.922l10.675,6.923
    c0.324,0.201,0.714,0.102,0.909-0.199C23.473,7.858,23.407,7.425,23.083,7.225L23.083,7.225z"/>
<path id="quicklinks-livechat" d="M15.378,0H2.882C1.293,0,0,1.323,0,2.961v9.605
    c0,1.636,1.293,2.646,2.882,2.646h2.689L4.288,20l6.904-4.788h4.186c1.591,0,3.604-1.039,3.604-2.677V2.961
    C18.981,1.323,16.937,0,15.378,0z M11.989,12.169H2.997v-1.014h8.992V12.169z M14.986,9.127H2.997V8.113h11.989V9.127z
     M14.986,7.099H2.997V6.084h11.989V7.099z M14.986,4.057H2.997V3.042h11.989V4.057z"/>
<path id="quicklinks-logout" d="M12.729,0.036V4h-0.984V2.583L2.877,2.652v14.799l8.867,0.07V16
    h0.984v4H0L0.014,0L12.729,0.036z M6.705,5.374l3.2,2.897L3.862,8.237v3.316l6.043-0.07L6.561,14.31l3.729,0.14l4.879-4.468
    L10.226,5.34L6.705,5.374z"/>
<path id="quicklinks-notification" d="M12.579,16.659c-0.976-1.564,0.601-6.525,1.604-8.563
    c1.002-2.036-0.059-3.926-0.66-4.752c0.803-0.62,0.975-1.802,0.373-2.598c-0.602-0.798-1.747-1.004-2.521-0.383
    c-0.458,0.353-0.716,0.884-0.716,1.475c-1.031,0-3.15,0.295-4.095,2.274c-1.004,2.038-3.926,6.318-5.73,6.436
    c-1.804,0.118-0.801,3.781,4.239,6.378C10.113,19.521,13.552,18.223,12.579,16.659z M12.806,1.1
    c0.403,0.207,0.546,0.738,0.345,1.122c-0.087,0.147-0.17,0.268-0.313,0.355c-0.373-0.266-0.774-0.473-1.205-0.622
    c-0.028-0.176,0-0.354,0.085-0.501C11.918,1.041,12.404,0.894,12.806,1.1z M10.2,3.462C9.97,3.551,9.741,3.667,9.542,3.817
    C9.141,4.14,8.796,4.525,8.48,4.968C8.166,5.411,7.878,5.854,7.593,6.325L6.733,7.773C6.16,8.775,5.501,9.721,4.786,10.607
    c-0.373,0.443-0.801,0.856-1.289,1.181c-0.229,0.177-0.516,0.296-0.772,0.414c-0.288,0.117-0.573,0.147-0.86,0.147
    c0.487-0.236,0.916-0.562,1.289-1.005c0.343-0.413,0.659-0.855,0.944-1.298c0.573-0.916,1.118-1.89,1.69-2.864
    C5.931,6.946,6.075,6.71,6.248,6.443c0.171-0.266,0.315-0.472,0.486-0.708l0.517-0.71c0.172-0.235,0.371-0.441,0.573-0.648
    C8.022,4.17,8.251,3.964,8.48,3.787C8.71,3.61,8.996,3.432,9.253,3.314c0.288-0.117,0.572-0.177,0.89-0.177
    c0.142,0,0.286,0.029,0.428,0.06c0.144,0.029,0.286,0.088,0.401,0.178C10.715,3.344,10.458,3.375,10.2,3.462L10.2,3.462z
     M8.452,18.52c-0.574-0.117-1.146-0.297-1.719-0.502c-0.057,1.033,0.688,1.92,1.691,1.978c0.772,0.061,1.518-0.414,1.803-1.18
    C9.626,18.756,9.054,18.667,8.452,18.52L8.452,18.52z"/>
<path id="quicklinks-promotions" d="M9.545,5.806c0.03,0.127,0.121,0.189,0.243,0.158
    c0.061,0,0.091-0.031,0.121-0.096c0.458-1.256,1.463-2.261,2.195-1.694c0.853,0.659-0.274,1.632-0.884,2.103
    c-0.184,0.158-0.061,0.347,0.213,0.284c0.608-0.126,1.584-0.503,2.131-1.225c0.52-0.724,0.55-1.539,0.094-2.136
    c-0.611-0.88-1.586-0.722-2.072-0.598C10.609,2.949,9.392,4.519,9.545,5.806z M13.26,6.246c-0.059,0.127,0.185,0.378,0.398,0.252
    c0.698-0.377,1.492-0.596,2.283-0.66c-0.122-0.376-0.365-0.69-0.67-0.909C14.479,5.209,13.809,5.65,13.26,6.246z M9.179,6.592
    C9.453,6.655,9.513,6.246,9.3,6.152C7.992,5.681,7.107,4.802,7.26,3.201c0.184-1.727,1.858-1.854,3.017-0.283
    c0.395-0.281,0.822-0.532,1.247-0.69c-1.035-2.386-3.746-2.604-4.934-1.82C5.462,1.128,5.311,2.479,5.432,3.264
    C5.738,5.241,7.292,6.089,9.179,6.592L9.179,6.592z M6.529,6.373C6.925,6.435,6.863,5.933,6.62,5.837
    c-1.888-0.753-2.954-2.573-3.168-2.92C2.842,3.232,2.477,3.891,2.508,4.582C3.208,5.493,4.945,6.183,6.529,6.373z M17.586,7H0.588
    C0.254,7,0,7.283,0,7.597v4.333C0,12.275,0.254,13,0.588,13H1.97v6.403C1.97,19.747,1.807,20,2.112,20h13.92
    c0.336,0,0.716-0.284,0.716-0.597V13h0.808c0.336,0,1.162-0.725,1.162-1.039V7.628C18.718,7.314,18.029,7,17.723,7H17.586z
     M0.985,11V8h5.911v3H0.985z M15.762,19h-3.939v-6H6.896v6h-3.94v-6h12.806V19L15.762,19z M16.748,11h-4.926V8h4.926V11z"/>
<path id="quicklinks-settings" d="M12.945,10c0-0.92-0.315-1.706-0.947-2.356
    c-0.631-0.651-1.395-0.977-2.287-0.977c-0.892,0-1.652,0.325-2.285,0.977C6.793,8.294,6.478,9.08,6.478,10s0.315,1.706,0.948,2.357
    c0.633,0.65,1.394,0.976,2.285,0.976c0.893,0,1.656-0.325,2.287-0.976C12.63,11.706,12.945,10.92,12.945,10z M19.703,8.58v2.892
    c0,0.104-0.178,0.204-0.246,0.3c-0.066,0.094-0.224,0.15-0.324,0.168l-2.375,0.364c-0.158,0.47-0.341,0.863-0.511,1.186
    c0.297,0.434,0.737,1.033,1.345,1.797c0.082,0.104,0.121,0.212,0.121,0.325s-0.041,0.212-0.115,0.3
    c-0.229,0.32-0.648,0.79-1.253,1.406c-0.606,0.615-1.002,0.924-1.187,0.924c-0.104,0-0.212-0.038-0.331-0.117l-1.743-1.406
    c-0.37,0.199-0.753,0.365-1.148,0.495c-0.135,1.181-0.256,1.987-0.366,2.421C11.51,19.877,11.357,20,11.113,20H8.311
    C8.193,20,8.088,19.962,8,19.89c-0.088-0.075-0.137-0.167-0.146-0.281l-0.353-2.396c-0.412-0.139-0.791-0.3-1.137-0.482
    l-1.781,1.394c-0.083,0.079-0.189,0.117-0.315,0.117c-0.118,0-0.223-0.048-0.316-0.143c-1.06-0.99-1.754-1.72-2.083-2.188
    c-0.06-0.088-0.088-0.187-0.088-0.3c0-0.104,0.033-0.204,0.102-0.3c0.126-0.183,0.341-0.47,0.643-0.866
    c0.304-0.394,0.532-0.7,0.683-0.917c-0.228-0.435-0.401-0.864-0.519-1.289l-2.311-0.352c-0.11-0.017-0.203-0.071-0.271-0.163
    C0.04,11.634,0,11.531,0,11.419v-2.89c0-0.104,0.04-0.204,0.106-0.3c0.068-0.097,0.15-0.153,0.243-0.17L2.7,7.694
    c0.119-0.399,0.282-0.798,0.493-1.197C2.856,6.002,2.405,5.404,1.842,4.7C1.757,4.596,1.716,4.491,1.716,4.389
    c0-0.087,0.037-0.188,0.113-0.3c0.22-0.313,0.635-0.78,1.245-1.4c0.611-0.62,1.009-0.931,1.193-0.931
    c0.109,0,0.219,0.044,0.329,0.13L6.339,3.28C6.71,3.082,7.093,2.917,7.49,2.787c0.134-1.181,0.256-1.988,0.363-2.422
    C7.914,0.122,8.064,0,8.311,0h2.803c0.119,0,0.221,0.037,0.311,0.112c0.088,0.072,0.137,0.167,0.146,0.278l0.353,2.396
    c0.413,0.139,0.792,0.298,1.139,0.481l1.793-1.395c0.074-0.077,0.176-0.116,0.305-0.116c0.107,0,0.213,0.044,0.314,0.13
    c1.086,1.033,1.78,1.771,2.083,2.213c0.061,0.07,0.09,0.166,0.09,0.288c0,0.103-0.035,0.203-0.102,0.298
    c-0.126,0.184-0.341,0.472-0.646,0.866c-0.303,0.396-0.529,0.701-0.681,0.919c0.218,0.434,0.39,0.859,0.519,1.276l2.312,0.364
    c0.108,0.018,0.343,0.071,0.409,0.162C19.525,8.365,19.703,8.467,19.703,8.58z"/>
<path id="quicklinks-announcement" d="M0.985,7.838L0,8.198v3.152l0.985,0.359V13H3.94V7H0.985V7.838
    z M23.644,7.657v4.188l2.955-0.495V8.198L23.644,7.657z M4.926,6.712V13l0,0v7h3.94v-6.938c8.866,1.217,13.792,6.443,13.792,6.443V0
    C22.658,0,15.762,6.712,4.926,6.712z"/>
<path id="quicklinks-language" d="M10,0C4.463,0,0,4.463,0,10s4.463,10,10,10s10-4.463,10-10S15.537,0,10,0z
     M7.215,1.879C6.577,2.45,6.007,3.154,5.604,3.893c-0.1,0.168-0.201,0.369-0.268,0.57L5.269,4.597L5.135,4.564
    c-0.47-0.101-0.974-0.235-1.443-0.369C4.665,3.154,5.873,2.349,7.215,1.879z M1.409,9.564C1.51,7.886,2.081,6.275,3.087,4.899
    c0.537,0.201,1.074,0.369,1.61,0.503l0.202,0.033L4.832,5.638C4.43,6.846,4.195,8.121,4.161,9.396v0.168H1.409z M1.409,10.436
    l2.752-0.033v0.168c0.034,1.275,0.269,2.551,0.671,3.759l0.067,0.201l-0.202,0.067c-0.537,0.134-1.074,0.302-1.61,0.503
    C2.081,13.758,1.51,12.114,1.409,10.436z M3.691,15.805c0.47-0.167,0.939-0.268,1.443-0.369l0.134-0.033l0.067,0.135
    c0.1,0.201,0.168,0.369,0.268,0.57c0.403,0.771,0.974,1.443,1.611,2.014C5.873,17.65,4.665,16.846,3.691,15.805z M9.564,18.322
    l-0.236-0.067c-1.342-0.302-2.348-1.477-2.952-2.617L6.275,15.47l-0.135-0.235l0.269-0.033C7.383,15.066,8.389,15,9.362,14.967
    h0.202V18.322z M9.396,14.094c-1.142,0.033-2.282,0.102-3.424,0.303L5.805,14.43l-0.066-0.135C5.303,13.121,5.066,11.912,5,10.671
    V10.47h4.53v3.657L9.396,14.094z M9.564,9.564H5.033V9.362c0.067-1.241,0.303-2.483,0.738-3.624l0.067-0.135l0.168,0.034
    C7.147,5.805,8.289,5.906,9.43,5.939h0.168L9.564,9.564z M9.564,5.033H9.362C8.355,5,7.383,4.933,6.409,4.799L6.141,4.765
    L6.275,4.53l0.101-0.168C7.014,3.222,8.02,2.047,9.328,1.745l0.236-0.067V5.033z M16.309,4.195c-0.47,0.134-0.939,0.268-1.443,0.369
    l-0.134,0.033l-0.067-0.134c-0.1-0.201-0.168-0.369-0.268-0.57c-0.403-0.772-0.974-1.443-1.611-2.013
    C14.127,2.349,15.336,3.121,16.309,4.195z M10.436,1.678l0.236,0.067c1.342,0.302,2.348,1.477,2.952,2.617l0.101,0.202l0.135,0.235
    l-0.269,0.033c-0.974,0.134-1.979,0.201-2.953,0.234h-0.202V1.678z M10.436,5.906h0.202c1.141-0.033,2.282-0.102,3.423-0.303
    l0.168-0.033l0.066,0.135C14.697,6.879,14.934,8.088,15,9.329V9.53h-4.564V5.906z M10.436,10.436h4.531v0.202
    c-0.067,1.241-0.303,2.45-0.705,3.624l-0.066,0.168l-0.168-0.033c-1.142-0.168-2.282-0.27-3.424-0.303h-0.201v-3.658H10.436z
     M10.672,18.289l-0.236,0.066V15h0.202c1.007,0.033,1.979,0.101,2.953,0.234l0.269,0.034l-0.135,0.235l-0.101,0.201
    C12.986,16.813,11.98,17.986,10.672,18.289z M12.785,18.121c0.672-0.57,1.208-1.242,1.611-2.014c0.1-0.168,0.201-0.369,0.268-0.57
    l0.067-0.135l0.134,0.033c0.471,0.102,0.974,0.235,1.443,0.369C15.336,16.879,14.127,17.65,12.785,18.121z M16.912,15.101
    c-0.536-0.201-1.073-0.335-1.644-0.47l-0.202-0.033l0.068-0.201c0.402-1.209,0.637-2.484,0.67-3.759V10.47h2.752
    C18.49,12.114,17.92,13.758,16.912,15.101z M15.805,9.564V9.396c-0.033-1.275-0.268-2.551-0.67-3.759l-0.068-0.202l0.202-0.033
    c0.536-0.134,1.107-0.268,1.644-0.469c1.008,1.342,1.578,2.987,1.679,4.665L15.805,9.564z"/>
</svg>