<svg viewBox="0 0 81.9 53.8">
    <path d="M10.3 45.8H18.9c.9.1 1.7-.6 1.8-1.5.1-.9-.6-1.7-1.5-1.8H10.6c-.9-.1-1.7.6-1.8 1.5-.1.9.6 1.7 1.5 1.8zm14.5 0H40.4c.9-.1 1.6-.9 1.5-1.8-.1-.8-.7-1.4-1.5-1.5H25.1c-.9-.1-1.7.6-1.8 1.5 0 .9.6 1.7 1.5 1.8zM82 6.4v40.9c0 3.6-2.9 6.4-6.5 6.4H6.4c-3.5 0-6.4-2.9-6.4-6.4V6.4C0 2.9 2.9 0 6.4 0h69.1C79.1 0 82 2.9 82 6.4zM2.5 11.2h76.9V6.4c0-2.1-1.7-3.9-3.9-3.9H6.4c-2.1 0-3.9 1.7-3.9 3.9v4.8zm76.9 15.7H2.5v20.5c0 2.1 1.7 3.9 3.9 3.9h69.1c2.1 0 3.9-1.7 3.9-3.9V26.9z"/>
</svg>
