<svg viewBox="0 0 51.1 68">
    <path d="M44 56.5c-3.4-5.3 2.1-22.1 5.6-29s-.2-13.3-2.3-16.1c2.8-2.1 3.4-6.1 1.3-8.8s-6.1-3.4-8.8-1.3c-1.6 1.2-2.5 3-2.5 5-3.6 0-11 1-14.3 7.7-3.5 6.9-13.7 21.4-20 21.8S.2 48.6 17.8 57.4s29.6 4.4 26.2-.9zm.8-52.7c1.4.7 1.9 2.5 1.2 3.8-.3.5-.6.9-1.1 1.2-1.3-.9-2.7-1.6-4.2-2.1-.1-.6 0-1.2.3-1.7.7-1.4 2.4-1.9 3.8-1.2zm-9.1 8c-.8.3-1.6.7-2.3 1.2-1.4 1.1-2.6 2.4-3.7 3.9s-2.1 3-3.1 4.6l-3 4.9c-2 3.4-4.3 6.6-6.8 9.6-1.3 1.5-2.8 2.9-4.5 4-.8.6-1.8 1-2.7 1.4-1 .4-2 .5-3 .5 1.7-.8 3.2-1.9 4.5-3.4 1.2-1.4 2.3-2.9 3.3-4.4 2-3.1 3.9-6.4 5.9-9.7.5-.8 1-1.6 1.6-2.5s1.1-1.6 1.7-2.4l1.8-2.4c.6-.8 1.3-1.5 2-2.2s1.5-1.4 2.3-2 1.8-1.2 2.7-1.6c1-.4 2-.6 3.1-.6.5 0 1 .1 1.5.2s1 .3 1.4.6c-.9-.1-1.8 0-2.7.3zm-6.1 51c-2-.4-4-1-6-1.7-.2 3.5 2.4 6.5 5.9 6.7 2.7.2 5.3-1.4 6.3-4-2.1-.2-4.1-.5-6.2-1z"/>
</svg>
