<svg id="dafabet-header" viewBox="0 0 24 300">
<path id="burger-menu" d="M24,92.604H0V90h24v2.557V92.604z M24,96.37H0v2.554h24V96.32V96.37z M24,102.592H0v2.604
    h24V102.592z"/>
<path id="amount-balance" d="M17.097,9.614v1.549c-0.207-0.083-0.402-0.191-0.581-0.323
    c-0.098-0.128-0.144-0.29-0.129-0.451c0.004-0.139,0.048-0.274,0.129-0.387C16.633,9.784,16.851,9.639,17.097,9.614L17.097,9.614z
     M17.936,13.614v1.935c0.281-0.075,0.544-0.207,0.774-0.386c0.149-0.159,0.241-0.363,0.258-0.581
    c0.005-0.19-0.064-0.375-0.193-0.516C18.549,13.832,18.255,13.673,17.936,13.614z M24,12.84c0,3.599-2.917,6.516-6.517,6.516
    c-3.599,0-6.515-2.917-6.515-6.516s2.917-6.516,6.515-6.516c3.579-0.011,6.491,2.874,6.517,6.451V12.84L24,12.84z M21.226,14.26
    c0.013-0.717-0.295-1.403-0.839-1.871c-0.736-0.512-1.571-0.863-2.451-1.032V9.614c0.174,0.07,0.33,0.181,0.452,0.323
    c0.132,0.179,0.241,0.374,0.322,0.581l2.258-0.322c-0.116-0.586-0.437-1.111-0.903-1.484C19.452,8.305,18.735,8.081,18,8.066V7.486
    h-0.865v0.581c-0.802-0.023-1.584,0.252-2.193,0.774c-0.51,0.459-0.793,1.12-0.774,1.806c-0.027,0.868,0.451,1.672,1.226,2.065
    c0.56,0.25,1.144,0.445,1.742,0.58v2.129c-0.23-0.096-0.431-0.252-0.581-0.452c-0.136-0.268-0.244-0.549-0.323-0.838l-2.452,0.258
    c0.068,0.354,0.177,0.701,0.323,1.032c0.162,0.298,0.381,0.561,0.645,0.774c0.272,0.267,0.604,0.466,0.968,0.581
    c0.461,0.14,0.938,0.218,1.419,0.233v1.161h0.903v-1.161c0.417,0.003,0.831-0.061,1.226-0.194c0.335-0.146,0.659-0.319,0.967-0.515
    c0.309-0.253,0.571-0.56,0.774-0.904C21.115,15.024,21.188,14.644,21.226,14.26L21.226,14.26z M1.871,3.938V2.815
    c0-0.581,0.387-1.484,2.194-2.129c1.514-0.48,3.096-0.712,4.684-0.684c1.599-0.027,3.19,0.213,4.709,0.71
    c1.807,0.645,2.194,1.548,2.194,2.129v1.097c0,0.581-0.387,1.484-2.194,2.129c-1.513,0.523-3.109,0.764-4.709,0.71
    C7.158,6.792,5.574,6.543,4.065,6.041C2.194,5.396,1.807,4.557,1.871,3.912V3.938z M4.774,4.583C4.507,4.525,4.248,4.439,4,4.324
    v1.071C4.248,5.51,4.507,5.597,4.774,5.653V4.583z M6.968,5.034C6.645,4.969,6.323,4.969,6.064,4.905v1.032
    C6.36,6.012,6.663,6.055,6.968,6.066V5.034z M9.291,5.099H8.323v1.032h0.968V5.099z M11.613,4.905
    c-0.296,0.074-0.599,0.118-0.903,0.129v1.006c0.322-0.064,0.645-0.064,0.903-0.129V4.905z M13.548,4.325
    c-0.248,0.115-0.507,0.201-0.774,0.258v1.032c0.258-0.064,0.516-0.193,0.774-0.258V4.325z M14.968,3.421
    c-0.158,0.166-0.33,0.317-0.516,0.451v1.033c0.188-0.132,0.36-0.283,0.516-0.451V3.421z M2.645,2.519
    c0,1.097,2.774,2.322,6.129,2.322c3.355,0,6.129-1.226,6.129-2.322c0-1.097-2.709-2.065-6.129-2.065
    C5.355,0.454,2.645,1.421,2.645,2.519z M2.581,4.389c0.158,0.167,0.33,0.318,0.516,0.452V3.808c-0.2-0.115-0.376-0.268-0.516-0.451
    V4.389z M11.613,8.002c-0.258,0.064-0.452,0.193-0.71,0.258v0.774c-0.21,0.346-0.383,0.714-0.516,1.097
    c-1.141,0.267-2.313,0.375-3.484,0.321c-1.598,0.028-3.19-0.212-4.709-0.709C0.387,9.099,0,8.195,0,7.615V6.518
    c0-0.517,0.258-1.162,1.354-1.742c0.061,0.163,0.149,0.316,0.259,0.452c-0.391,0.19-0.675,0.546-0.774,0.968
    c0,1.097,2.774,2.322,6.129,2.322c2.452,0,4.516-0.645,5.548-1.419C12.168,7.349,11.864,7.654,11.613,8.002L11.613,8.002z
     M1.161,7.421C0.974,7.29,0.801,7.138,0.646,6.97v1.006c0.158,0.167,0.331,0.318,0.516,0.452V7.396V7.421L1.161,7.421z M2.838,8.195
    C2.581,8.131,2.322,8.002,2.064,7.937V8.97C2.31,9.104,2.57,9.212,2.838,9.292V8.195z M5.032,8.647
    C4.709,8.583,4.387,8.583,4.129,8.518v1.033C4.425,9.625,4.728,9.668,5.032,9.68V8.622V8.647z M7.355,8.776H6.387v1.032h0.968V8.776
    z M9.678,8.518C9.372,8.581,9.061,8.616,8.749,8.622v1.032c0.322-0.064,0.645-0.064,0.903-0.129V8.493L9.678,8.518z M9.871,12.84
    c-0.011,0.389,0.01,0.777,0.064,1.161c-1.056-0.084-2.096-0.3-3.097-0.645c-1.806-0.645-2.193-1.548-2.193-2.129V10.97l0.709,0.065
    v0.645c0.158,0.167,0.331,0.318,0.517,0.452v-1.033h0.774c1.031,0.517,2.145,0.844,3.291,0.968
    C9.85,12.315,9.828,12.582,9.871,12.84L9.871,12.84z M7.548,11.847c-0.269-0.08-0.528-0.188-0.774-0.322v1.032
    c0.258,0.129,0.516,0.194,0.774,0.323V11.847L7.548,11.847z M9.678,12.299c-0.323-0.065-0.646-0.065-0.904-0.129v1.032
    c0.296,0.074,0.599,0.118,0.904,0.129V12.299z"/>
<path id="cashier-balance" d="M16.4,8.3c0.2,0,0.5-0.1,0.8-0.1h0c0.3,0,0.5,0,0.8,0c1.4,0,2.8,0.2,4.2,0.7v0v0v0l0-0.1l0,0
    c0,0,0,0,0-0.1V6c0,0,0,0.1,0,0.1l0,0c0,0,0,0,0,0.1v0c0,0,0,0,0,0.1c0,0,0,0,0,0c0,0,0,0,0,0.1l0,0c0,0,0,0,0,0.1l0,0L22,6.4l0,0
    l-0.1,0.1l0,0l-0.1,0l0,0l-0.1,0l0,0l-0.1,0.1h0l-0.1,0.1l-0.1,0l-0.1,0l-0.1,0l-0.1,0c-0.1,0-0.1,0-0.2,0.1h0L20.7,7l-0.1,0l-0.2,0
    l-0.1,0l-0.2,0h0l-0.3,0.1l-0.1,0l-0.2,0l-0.1,0h-0.1l-0.1,0l-0.2,0l-0.1,0l-0.2,0h-0.1l-0.3,0h-0.1l-0.2,0H18h-0.2h-0.1h-0.2h-0.1
    l-0.5,0h-0.1h-0.4h-0.6h-0.4h-0.1l-0.3,0.1h-0.1c-0.1,0-0.2,0-0.3,0h0l-0.3,0h-0.1l-0.4,0h0l-0.4-0.1h-0.1l-0.1,0l-0.1,0l-0.1,0
    l-0.1-0.1c-0.1,0-0.2,0-0.2,0l0,0l-0.2-0.1l-0.1,0l-0.1,0h0c0.1,0.1,0.1,0.3,0.1,0.4c0,0.1,0,0.1,0,0.2c0,0,0,0,0-0.1l0,0
    c0,0,0-0.1,0-0.1v2.2C13.2,9,14.7,8.5,16.4,8.3z M11.5,11.4C11.5,11.4,11.5,11.4,11.5,11.4L11.5,11.4l0,0.1l0,0c0,0,0,0,0,0.1h0
    c0,0,0,0,0,0.1l0,0c0,0,0,0-0.1,0.1l0,0c0,0-0.1,0-0.1,0.1c0,0,0,0,0,0l-0.1,0l0,0l-0.1,0l0,0c0,0-0.1,0-0.1,0.1h0l-0.1,0.1l-0.1,0
    l-0.1,0l-0.1,0l-0.1,0l-0.2,0.1h0L10,12.3l-0.1,0l-0.2,0l-0.1,0l-0.2,0.1h0l-0.3,0.1H9.1l-0.2,0l-0.1,0H8.7l-0.1,0l-0.2,0l-0.1,0
    l-0.2,0H8l-0.3,0.1H7.6l-0.2,0H7.3H7.1H7H6.7H6.6c-0.1,0-0.3,0-0.5,0H6.1H5.7H5.2H4.8H4.8l-0.3,0H4.4l-0.3,0h0c-0.1,0-0.2,0-0.3,0
    H3.6l-0.4,0h0l-0.4-0.1H2.8l-0.1,0l-0.1-0.1l-0.1,0l-0.1,0c-0.1,0-0.2,0-0.2,0l0,0l-0.2-0.1l-0.1,0l-0.1,0l-0.1,0l-0.1,0l-0.1,0
    l-0.1,0l-0.1,0l-0.1,0l-0.1,0l-0.1,0l-0.1,0l-0.1,0l-0.1,0l-0.1,0l-0.1,0l-0.1,0l-0.1,0l-0.1,0l0,0l-0.1,0l0,0l0,0c0,0,0,0,0,0l0,0
    c0,0,0,0,0,0c0,0,0,0,0,0c0,0,0,0,0,0l0,0c0,0,0,0,0,0c0,0,0,0,0-0.1c0,0,0,0,0,0c0,0,0-0.1,0-0.1v2.8c0,0,0,0.1,0,0.1c0,0,0,0,0,0
    c0,0,0,0,0,0.1c0,0,0,0,0,0l0,0c0,0,0,0,0,0c0,0,0,0,0,0l0,0l0,0l0,0l0,0l0,0l0.1,0l0,0l0.1,0l0.1,0l0.1,0l0.1,0l0.1,0l0.1,0l0.1,0
    l0.1,0l0.1,0l0.1,0l0.1,0l0.1,0l0.1,0l0.1,0l0.1,0l0.1,0l0.1,0l0.1,0h0l0.2,0.1l0,0l0.2,0.1h0l0.1,0l0.1,0l0.1,0l0.1,0h0h0l0.4,0.1
    h0l0.4,0h0h0c0.1,0,0.2,0,0.3,0h0c0.1,0,0.2,0,0.4,0h0h0.1h0.3h0.1l0.4,0h0.5h0.4h0.1c0.2,0,0.3,0,0.5,0h0.1h0.2h0.1h0.2h0.1h0.1
    l0.2,0h0.1l0.3,0H8l0.2,0l0.1,0l0.2,0h0.1h0h0.1l0.1,0h0l0.2,0l0.1,0l0.3-0.1h0l0.2-0.1l0.1,0l0.2,0h0h0l0.2-0.1h0l0.2-0.1h0l0.1,0
    l0.1,0l0.1,0l0.1,0h0l0.1,0h0l0.1-0.1l0,0h0l0.1,0l0,0l0,0l0,0l0,0l0.1-0.1l0,0l0,0l0.1-0.1l0,0l0,0l0,0v0c0,0,0,0,0-0.1l0,0l0,0
    l0-0.1v0v0l0,0l0,0v-0.1L11.5,11.4C11.4,11.3,11.4,11.4,11.5,11.4L11.5,11.4z M11.5,15.2C11.5,15.2,11.5,15.3,11.5,15.2L11.5,15.2
    l0,0.1l0,0c0,0,0,0,0,0.1h0l0,0.1l0,0l-0.1,0.1l0,0l-0.1,0.1c0,0,0,0,0,0l-0.1,0l0,0l-0.1,0l0,0l-0.1,0.1h0l-0.1,0.1l-0.1,0l-0.1,0
    l-0.1,0l-0.1,0l-0.2,0.1h0L10,16.1l-0.1,0l-0.2,0l-0.1,0l-0.2,0.1h0l-0.3,0.1l-0.1,0l-0.2,0l-0.1,0H8.7l-0.1,0l-0.2,0H8.3L8,16.5H8
    l-0.3,0.1H7.6l-0.2,0H7.3H7.1H6.9H6.7H6.6c-0.1,0-0.3,0-0.5,0H5.6H5.3H5.2H4.8H4.8l-0.3,0H4.4l-0.3,0h0l-0.3,0H3.6l-0.4,0h0
    l-0.4-0.1H2.8l-0.1,0l-0.1,0l-0.1,0l-0.1,0l-0.2,0l0,0l-0.3-0.1l-0.1,0l-0.1,0l-0.1,0l-0.1,0l-0.1,0l-0.1,0l-0.1,0l-0.1,0L1,16
    l-0.1,0l-0.1,0l-0.1,0l-0.1,0l-0.1,0l-0.1,0l-0.1,0l-0.1,0l-0.1,0l0,0l-0.1,0l0,0l0,0l0,0l0,0l0,0l0,0l0,0c0,0,0,0,0,0l0,0
    c0,0,0,0,0-0.1c0,0,0,0,0,0c0,0,0-0.1,0-0.1v2.7c0,0,0,0.1,0,0.1c0,0,0,0,0,0l0,0.1l0,0c0,0,0,0,0,0l0,0l0,0l0,0l0,0l0,0l0,0l0,0
    l0.1,0l0,0l0.1,0l0.1,0l0.1,0l0.1,0l0.1,0l0.1,0l0.1,0l0.1,0l0.1,0l0.1,0l0.1,0l0.1,0l0.1,0l0.1,0l0.1,0l0.1,0l0.1,0l0.1,0h0
    c0.1,0,0.2,0,0.2,0.1l0,0l0.2,0h0l0.1,0l0.1,0l0.1,0l0.1,0h0h0l0.4,0.1h0l0.4,0h0h0l0.3,0h0l0.4,0h0.1l0.3,0h0.1h0.4h0.1h0.3h0.6
    h0.5h0h0.1h0.2h0.1h0.2h0.1h0.1l0.2,0h0.1l0.3,0H8l0.2,0l0.1,0l0.2,0h0.1h0l0.1,0h0.1h0l0.2,0l0.1,0l0.3-0.1h0c0.1,0,0.1,0,0.2,0
    l0.1,0l0.2,0h0h0l0.2-0.1h0l0.2-0.1h0l0.1,0l0.1,0l0.1,0l0.1,0h0l0.1,0h0l0.1-0.1l0,0l0,0l0.1,0l0,0l0,0l0,0l0,0c0,0,0.1,0,0.1-0.1
    l0,0l0,0l0.1-0.1l0,0l0,0l0,0l0,0c0,0,0,0,0-0.1c0,0,0,0,0,0l0,0l0-0.1v0l0,0l0-0.1l0,0V18L11.5,15.2C11.4,15.2,11.4,15.2,11.5,15.2
    L11.5,15.2z M24,15.2C24,15.2,24,15.3,24,15.2C24,15.3,24,15.3,24,15.2l0,0.1v0c0,0,0,0,0,0.1l0,0l0,0.1l0,0l-0.1,0.1l0,0l-0.1,0.1
    l0,0l-0.1,0c0,0,0,0,0,0l-0.1,0l0,0l-0.1,0.1h0l-0.1,0.1l-0.1,0l-0.1,0L23,16l-0.1,0l-0.2,0.1h0l-0.2,0.1l-0.1,0l-0.2,0l-0.1,0
    L22,16.3h0l-0.3,0.1l-0.1,0l-0.2,0l-0.1,0h-0.1l-0.1,0l-0.2,0h-0.1l-0.3,0.1h-0.1l-0.3,0h-0.1l-0.2,0h-0.1h-0.2h-0.1h-0.2h-0.1
    c-0.1,0-0.3,0-0.5,0h-0.6h-0.3h-0.1h-0.4h-0.1l-0.3,0h-0.1l-0.3,0h0l-0.3,0h-0.1l-0.4,0h0l-0.4-0.1h-0.1l-0.1,0l-0.1,0l-0.1,0
    l-0.1,0l-0.2,0l0,0l-0.2-0.1l-0.1,0l-0.1,0l-0.1,0l-0.1,0l-0.1,0l-0.1,0l-0.1,0l-0.1,0l-0.1,0l-0.1,0l-0.1,0l-0.1,0l-0.1,0l-0.1,0
    l-0.1,0L13,15.8l-0.1,0l-0.1,0l0,0l-0.1,0l0,0l0,0l0,0c0,0,0,0,0,0l0,0c0,0,0,0,0,0l0,0l0,0c0,0,0,0,0,0c0,0,0,0,0-0.1v0
    c0,0,0-0.1,0-0.1v2.7c0,0,0,0.1,0,0.1c0,0,0,0,0,0c0,0,0,0,0,0.1c0,0,0,0,0,0l0,0l0,0c0,0,0,0,0,0l0,0c0,0,0,0,0,0l0,0l0,0l0,0
    l0.1,0l0,0l0.1,0l0.1,0l0.1,0l0.1,0l0.1,0l0.1,0l0.1,0l0.1,0l0.1,0l0.1,0l0.1,0l0.1,0l0.1,0l0.1,0l0.1,0l0.1,0l0.1,0l0.1,0h0
    c0.1,0,0.2,0,0.2,0.1l0,0l0.2,0h0l0.1,0l0.1,0l0.1,0l0.1,0h0h0l0.4,0.1h0l0.4,0h0h0l0.3,0h0l0.4,0H17l0.3,0h0.1h0.3h0.2h0.3h0.6h0.5
    h0h0.1h0.2h0.1h0.2h0.1h0.1l0.2,0h0.1l0.3,0h0.1l0.2,0l0.1,0l0.2,0h0.1h0h0.1h0.1h0l0.2,0l0.1,0l0.3-0.1h0c0.1,0,0.1,0,0.2,0l0.1,0
    l0.2,0h0h0l0.2-0.1h0l0.2-0.1h0l0.1,0l0.1,0l0.1,0l0.1,0h0l0.1,0h0l0.1-0.1l0,0l0,0l0.1,0l0,0l0,0l0,0l0,0c0,0,0.1,0,0.1-0.1l0,0
    l0,0l0.1-0.1l0,0l0,0l0,0l0,0c0,0,0,0,0-0.1l0,0v0c0,0,0,0,0-0.1c0,0,0,0,0,0l0,0c0,0,0,0,0-0.1l0,0c0,0,0,0,0-0.1L24,15.2
    C24,15.2,24,15.2,24,15.2L24,15.2z M12.4,5.7L12.4,5.7l-0.2-0.1l-0.1,0l-0.1,0l-0.1,0l-0.1,0l-0.1,0l-0.1,0l-0.1,0l-0.1,0l-0.1,0
    l-0.1,0l-0.1,0l-0.1,0l-0.1,0l-0.1,0l0,0l-0.1,0l0,0l0,0c0,0,0,0,0,0l0,0c0,0,0,0,0,0l0,0l0,0c0,0,0,0,0,0c0,0,0,0,0,0
    c0,0,0,0,0-0.1c0,0,0,0,0,0c0,0,0-0.1,0-0.1V1.9c0,0,0,0.1,0,0.1l0,0c0,0,0-0.1,0-0.1c0-1.8,5.1-1.9,5.7-1.9c0.6,0,5.8,0.1,5.8,1.9
    c0,0.1,0,0.1,0,0.2c0,0,0,0,0-0.1l0,0c0,0,0-0.1,0-0.1v2.8c0,0,0,0,0,0.1l0,0l0,0.1v0v0c0,0,0,0,0,0.1c0,0,0,0,0,0l0,0
    c0,0,0,0,0,0.1v0l0,0l0,0l0,0L22,5.1l0,0l0,0l-0.1,0.1l0,0l0,0l0,0l0,0l-0.1,0l0,0l0,0l-0.1,0.1h0l-0.1,0h0l-0.1,0l-0.1,0l-0.1,0
    l-0.1,0h0c-0.1,0-0.1,0-0.2,0.1h0l-0.2,0.1h0l0,0l-0.2,0l-0.1,0l-0.2,0h0l-0.3,0.1l-0.1,0l-0.2,0h0l-0.1,0h-0.1h0h-0.1l-0.2,0
    l-0.1,0l-0.2,0h-0.1l-0.3,0h-0.1l-0.3,0.1H18H18h-0.2h-0.1h-0.2h-0.1c-0.1,0-0.3,0-0.5,0h-0.1h-0.4h-0.5h-0.4h-0.1l-0.3,0h-0.1h0
    c-0.1,0-0.2,0-0.4,0l0,0c-0.1,0-0.2,0-0.3,0h0h0L14,6h0L13.6,6h0h0l-0.1,0l-0.1,0l-0.1,0h-0.1h0l-0.2-0.1l0,0l-0.2-0.1h0l-0.1,0
    L12.4,5.7z M16.5,2.9c3.1,0,4.8-0.7,5-1c-0.3-0.3-1.9-1-5-1s-4.8,0.7-5,1C11.7,2.2,13.3,2.9,16.5,2.9z M11.5,7.5
    C11.5,7.5,11.5,7.5,11.5,7.5v2.7v0.1l0,0l0,0.1l0,0v0l0,0.1l0,0l0,0c0,0,0,0,0,0.1l0,0l0,0l0,0.1l0,0l-0.1,0.1l0,0l0,0l-0.1,0.1l0,0
    l0,0l0,0l0,0l-0.1,0h0l0,0l-0.1,0.1h0l-0.1,0h0l-0.1,0l-0.1,0l-0.1,0l-0.1,0h0l-0.2,0.1h0L10,11.2h0h0l-0.2,0l-0.1,0l-0.2,0h0
    l-0.3,0.1H9.1l-0.2,0h0H8.8H8.7h0H8.6l-0.2,0H8.3l-0.2,0H8l-0.3,0.2H7.6l-0.2,0H7.3H7.3l-0.2,0H7H6.7H6.7h0l-0.5,0H5.6H5.3H5.2H4.8
    H4.8l-0.3,0H4.4l-0.4,0h0l-0.3,0h0h0l-0.4,0h0l-0.4-0.1h0h0l-0.1-0.1H2.6l-0.1,0l-0.1,0h0l-0.2,0l0,0l-0.2-0.1h0l-0.1,0l-0.1,0
    l-0.1,0l-0.1-0.1l-0.1,0l-0.1,0l-0.1,0l-0.1,0l-0.1,0l-0.1,0l-0.1,0l-0.1,0l-0.1,0l-0.1,0l-0.1,0l-0.1,0l-0.1,0l-0.1,0l0,0l-0.1,0
    l0,0l0,0l0,0l0,0l0,0l0,0l0,0c0,0,0,0,0,0c0,0,0,0,0,0c0,0,0,0,0-0.1c0,0,0,0,0,0c0,0,0-0.1,0-0.1V7.4c0,0,0,0.1,0,0.1l0,0
    c0,0,0-0.1,0-0.1c0-1.8,5.2-1.9,5.7-1.9h0.6h0.2h0h0.2h0h0.2h0l0.2,0h0l0.2,0l0,0l0.2,0l0,0l0.5,0h0l0.2,0l0,0l0.2,0h0
    c0.1,0,0.2,0,0.2,0h0l0.2,0h0l0.2,0.1h0l0.2,0.1h0l0.2,0l0,0V5.8c0,0,0,0.1,0,0.1l0,0l0,0h0L10,6h0l0.2,0.1l0,0l0.2,0.1l0,0l0.2,0.1
    l0,0l0.1,0.1l0,0c0,0,0.1,0.1,0.1,0.1c0,0,0,0,0,0c0,0,0.1,0.1,0.1,0.1l0,0c0,0,0.1,0.1,0.1,0.1l0,0l0.1,0.1l0,0c0,0,0,0.1,0.1,0.1
    l0,0c0,0,0,0.1,0,0.1v0c0,0.1,0,0.1,0,0.2C11.5,7.4,11.4,7.4,11.5,7.5C11.4,7.5,11.4,7.4,11.5,7.5C11.5,7.4,11.5,7.5,11.5,7.5z
    M10.8,7.4C10.8,7.4,10.7,7.4,10.8,7.4c-0.1-0.1-0.1-0.1-0.1-0.1l-0.1,0l-0.1,0l-0.1,0C10.3,7.1,10.1,7,10,7L9.9,7
    c-0.1,0-0.3-0.1-0.5-0.1l-0.1,0l-0.2,0L9,6.7l-0.2,0l-0.1,0l-0.3,0l-0.1,0L8,6.5l-0.2,0l-0.3,0l-0.2,0L7,6.5l-0.2,0H6.6H6.3H6H5.7
    c-3.1,0-4.8,0.7-5,1c0.3,0.3,1.9,1,5,1H6h0.3h0.3h0.3l0.2,0l0.3,0h0.1l0.3,0l0.1-0.1l0.3,0l0.1,0l0.3,0h0c0.2,0,0.5-0.1,0.7-0.1h0
    c0.4-0.1,0.8-0.2,1.1-0.4C10.6,7.6,10.6,7.5,10.8,7.4L10.8,7.4L10.8,7.4z M24,11.3v2.8c0,0,0,0,0,0.1l0,0c0,0,0,0,0,0.1l0,0
    c0,0,0,0,0,0c0,0,0,0,0,0.1v0l0,0c0,0,0,0,0,0.1l0,0l0,0l0,0l0,0l-0.1,0.1l0,0l0,0l-0.1,0.1l0,0l0,0l0,0l0,0l-0.1,0l0,0l0,0
    l-0.1,0.1h0l-0.1,0h0l-0.1,0l-0.1,0l-0.1,0l-0.1,0h0L22.7,15h0L22.5,15h0h0l-0.2,0l-0.1,0l-0.2,0h0l-0.3,0.1h-0.1l-0.2,0h0h-0.1
    h-0.1h0h-0.1l-0.2,0h-0.1l-0.2,0h-0.1l-0.3,0h-0.1l-0.3,0.2h-0.1h-0.1l-0.2,0h-0.1h-0.2h-0.1h0h-0.5h-0.6h-0.3h-0.2h-0.3h-0.1
    l-0.3,0h-0.1l-0.4,0h0l-0.3,0h0h0l-0.4,0h0l-0.4-0.1h0h0l-0.1,0l-0.1,0l-0.1,0l-0.1,0h0l-0.2,0l0,0l-0.2-0.1h0l-0.1,0l-0.1,0l-0.1,0
    l-0.1,0l-0.1,0l-0.1,0l-0.1,0l-0.1,0l-0.1,0l-0.1,0l-0.1,0l-0.1,0l-0.1,0l-0.1,0l-0.1,0l-0.1,0l-0.1,0l-0.1,0l0,0l-0.1,0
    c0,0,0,0,0,0l0,0l0,0l0,0l0,0l0,0l0,0l0,0c0,0,0,0,0,0c0,0,0,0,0-0.1c0,0,0,0,0,0c0,0,0-0.1,0-0.1v-2.7c0,0,0,0.1,0,0.1l0,0
    c0,0,0-0.1,0-0.1c0-1.5,3.6-1.8,5.1-1.9l0,0H18h0.2C18.8,9.4,24,9.5,24,11.3c0,0,0,0.1,0,0.1C24,11.4,24,11.4,24,11.3L24,11.3
    C24,11.4,24,11.4,24,11.3z M23.3,11.3c-0.3-0.3-1.9-1-5-1c-0.2,0-0.4,0-0.6,0c-2.8,0.1-4.2,0.7-4.5,1c0.2,0.3,1.7,0.9,4.5,1
    c0.2,0,0.4,0,0.6,0C21.4,12.3,23,11.6,23.3,11.3L23.3,11.3z"/>
</svg>
