<svg viewBox="0 0 59.6 59.6">
    <path d="M29.8 0C13.3 0 0 13.3 0 29.8s13.3 29.8 29.8 29.8 29.8-13.3 29.8-29.8S46.3 0 29.8 0zm-8.3 5.6c-1.9 1.7-3.6 3.8-4.8 6-.3.5-.6 1.1-.8 1.7l-.2.4-.4-.1c-1.4-.3-2.9-.7-4.3-1.1 2.9-3.1 6.5-5.5 10.5-6.9zM4.2 28.5c.3-5 2-9.8 5-13.9 1.6.6 3.2 1.1 4.8 1.5l.6.1-.2.6c-1.2 3.6-1.9 7.4-2 11.2v.5H4.2zm0 2.6l8.2-.1v.5c.1 3.8.8 7.6 2 11.2l.2.6-.6.2c-1.6.4-3.2.9-4.8 1.5-3-4-4.7-8.9-5-13.9zm6.8 16c1.4-.5 2.8-.8 4.3-1.1l.4-.1.2.4c.3.6.5 1.1.8 1.7 1.2 2.3 2.9 4.3 4.8 6-4-1.4-7.6-3.8-10.5-6.9zm17.5 7.5l-.7-.2c-4-.9-7-4.4-8.8-7.8l-.3-.5-.4-.7.8-.1c2.9-.4 5.9-.6 8.8-.7h.6v10zM28 42c-3.4.1-6.8.3-10.2.9l-.5.1-.2-.4c-1.3-3.5-2-7.1-2.2-10.8v-.6h13.5v10.9L28 42zm.5-13.5H15v-.6c.2-3.7.9-7.4 2.2-10.8l.2-.4.5.1c3.4.5 6.8.8 10.2.9h.5l-.1 10.8zm0-13.5h-.6c-3-.1-5.9-.3-8.8-.7l-.8-.1.4-.7.3-.5c1.9-3.4 4.9-6.9 8.8-7.8l.7-.2v10zm20.1-2.5c-1.4.4-2.8.8-4.3 1.1l-.4.1-.2-.4c-.3-.6-.5-1.1-.8-1.7-1.2-2.3-2.9-4.3-4.8-6 4 1.4 7.6 3.7 10.5 6.9zM31.1 5l.7.2c4 .9 7 4.4 8.8 7.8l.3.6.4.7-.8.1c-2.9.4-5.9.6-8.8.7h-.6V5zm0 12.6h.6c3.4-.1 6.8-.3 10.2-.9l.5-.1.2.4c1.2 3.5 1.9 7.1 2.1 10.8v.6H31.1V17.6zm0 13.5h13.5v.6c-.2 3.7-.9 7.3-2.1 10.8l-.2.5-.5-.1c-3.4-.5-6.8-.8-10.2-.9H31V31.1h.1zm.7 23.4l-.7.2v-10h.6c3 .1 5.9.3 8.8.7l.8.1-.4.7-.3.6c-1.9 3.3-4.9 6.8-8.8 7.7zm6.3-.5c2-1.7 3.6-3.7 4.8-6 .3-.5.6-1.1.8-1.7l.2-.4.4.1c1.4.3 2.9.7 4.3 1.1-2.9 3.2-6.5 5.5-10.5 6.9zm12.3-9c-1.6-.6-3.2-1-4.9-1.4l-.6-.1.2-.6c1.2-3.6 1.9-7.4 2-11.2v-.5h8.2c-.2 4.9-1.9 9.8-4.9 13.8zm-3.3-16.5V28c-.1-3.8-.8-7.6-2-11.2l-.2-.6.6-.1c1.6-.4 3.3-.8 4.9-1.4 3 4 4.7 8.9 5 13.9l-8.3-.1z"/>
</svg>