<svg viewBox="0 0 59.6 63.3">
    <path d="M11 42.9C.4 27.8-2.8 13.3 2.5 9.3c2.8-2.2 3.6-2.6 3.9-2.6l10.1 14.5c-3.4 3.1-2.8 10.3 1.7 16.7s11 9.5 15.1 7.3l10.1 14.5c-1.2 1-2.4 2-3.8 2.8C34 66.1 21.5 58 11 42.9zm33.7 14.7l-9.8-14c-.6-.8-.4-1.9.4-2.5l4.8-3.4c.8-.6 1.9-.4 2.5.4L52.4 52c.6.8.4 1.9-.4 2.5L47.1 58c-.8.6-1.9.4-2.4-.4zM18.4 20.1L8.7 6.2c-.6-.8-.4-1.9.4-2.5L13.9.3c.8-.6 1.9-.4 2.5.4l9.8 14c.6.8.4 1.9-.4 2.5l-4.9 3.4c-.8.6-1.9.4-2.5-.5zm18.2-8c-1.5.2-2.6 1.7-2.3 3.2s1.7 2.6 3.2 2.3c.5-.1 1 0 1.5.1 1.1.4 2 1 2.6 2 .8 1.1 1.4 2.4 1.6 3.8.2 1.2.1 2.4-.2 3.6-.4 1.5.6 3 2.1 3.4 1.4.3 2.8-.4 3.3-1.8.6-1.9.7-4 .4-6-.4-2.3-1.3-4.5-2.7-6.3s-3.3-3.2-5.5-3.9c-1.4-.5-2.7-.6-4-.4zM35.1 1.8c-1.5.3-2.5 1.7-2.2 3.2s1.7 2.5 3.2 2.2c2.9-.5 5.9-.1 8.5 1.2 2.4 1.2 4.4 2.9 5.9 5.1 1.6 2.3 2.7 4.9 3.2 7.6.7 3.8.2 7.7-1.5 11.1-.6 1.4 0 3 1.4 3.7 1.3.6 2.9 0 3.6-1.2 2.2-4.5 2.9-9.6 2-14.5-.7-3.6-2.1-7-4.3-9.9-2.1-2.9-4.8-5.3-8-6.8-3.6-1.9-7.8-2.5-11.8-1.7z"/>
</svg>