<svg viewBox="0 0 72.2 59.9">
    <path d="M60.6 24.1c-1.1 0-2 .9-2.1 2l-.4 29.6-13.5-.1V38.7c0-.5-.2-1.1-.6-1.5-.4-.4-.9-.6-1.5-.6H28.8c-1.1 0-2.1.9-2.1 2.1v17H14.1l-.4-29.6c.1-1.1-.8-2.1-1.9-2.2s-2.2.9-2.3 2.1v.3l.5 31.6c0 1.1.9 2 2.1 2h16.7c1.1 0 2-.9 2.1-2v-17h9.7v16.9c0 1.1.9 2 2 2l17.6.1c1.1 0 2-.9 2.1-2l.4-31.7c0-1.1-1-2.1-2.1-2.1zm10.6-2.4L37.2.3c-.1 0-.1-.1-.2-.1h-.1l-.3-.1h-1.1c-.1 0-.2 0-.3.1h-.1l-.1.1L1 21.7c-1 .6-1.2 1.9-.6 2.8.4.6 1 1 1.7 1 .4 0 .8-.1 1.1-.3L36.1 4.5 69 25.2c1 .6 2.2.3 2.8-.6.6-1 .4-2.3-.6-2.9z"/>
</svg>